Peddana-Regular.ufo
<glyph name="exclam" format="1">
  <advance width="140"/>
  <unicode hex="0021"/>
  <outline>
    <contour>
      <point x="113" y="24" type="qcurve"/>
      <point x="113" y="20"/>
      <point x="111" y="14"/>
      <point x="111" y="13" type="qcurve"/>
      <point x="110" y="9"/>
      <point x="105" y="6"/>
      <point x="103" y="2" type="qcurve"/>
      <point x="100" y="0"/>
      <point x="97" y="-3"/>
      <point x="93" y="-5" type="qcurve"/>
      <point x="91" y="-7"/>
      <point x="82" y="-7" type="qcurve"/>
      <point x="79" y="-7"/>
      <point x="73" y="-7"/>
      <point x="71" y="-5" type="qcurve"/>
      <point x="69" y="-3"/>
      <point x="63" y="0"/>
      <point x="63" y="2" type="qcurve"/>
      <point x="60" y="6"/>
      <point x="56" y="9"/>
      <point x="54" y="13" type="qcurve"/>
      <point x="54" y="24" type="line"/>
      <point x="54" y="35" type="line" name="hr01"/>
      <point x="56" y="39"/>
      <point x="63" y="45" type="qcurve"/>
      <point x="63" y="48"/>
      <point x="69" y="50"/>
      <point x="71" y="52" type="qcurve"/>
      <point x="73" y="52"/>
      <point x="79" y="54"/>
      <point x="82" y="54" type="qcurve" name="hr02"/>
      <point x="86" y="54"/>
      <point x="92" y="52"/>
      <point x="93" y="52" type="qcurve"/>
      <point x="101" y="48"/>
      <point x="105" y="45" type="qcurve"/>
      <point x="106" y="41"/>
      <point x="111" y="35" type="qcurve"/>
      <point x="111" y="33"/>
      <point x="113" y="27"/>
    </contour>
    <contour>
      <point x="111" y="303" type="line"/>
      <point x="111" y="291" type="line"/>
      <point x="111" y="286"/>
      <point x="110" y="275"/>
      <point x="108" y="268" type="qcurve"/>
      <point x="108" y="259"/>
      <point x="106" y="241"/>
      <point x="106" y="230" type="qcurve"/>
      <point x="105" y="223"/>
      <point x="105" y="204"/>
      <point x="103" y="194" type="qcurve"/>
      <point x="100" y="168"/>
      <point x="98" y="116"/>
      <point x="96" y="87" type="qcurve" name="hr03"/>
      <point x="71" y="87" type="line"/>
      <point x="69" y="116"/>
      <point x="63" y="168"/>
      <point x="61" y="194" type="qcurve" name="hr04"/>
      <point x="61" y="204"/>
      <point x="59" y="223"/>
      <point x="59" y="233" type="qcurve"/>
      <point x="54" y="251"/>
      <point x="54" y="268" type="qcurve"/>
      <point x="54" y="291" type="line"/>
      <point x="52" y="297"/>
      <point x="52" y="303"/>
      <point x="52" y="304" type="qcurve" name="hr05"/>
      <point x="52" y="320"/>
      <point x="59" y="326" type="qcurve"/>
      <point x="64" y="335"/>
      <point x="82" y="335" type="qcurve"/>
      <point x="99" y="335"/>
      <point x="105" y="326" type="qcurve"/>
      <point x="110" y="323"/>
      <point x="111" y="311"/>
      <point x="111" y="304" type="qcurve"/>
    </contour>
  </outline>
</glyph>
<glyph name="quotedbl" format="1">
  <advance width="167"/>
  <unicode hex="0022"/>
  <outline>
    <contour>
      <point x="39" y="204" type="line" name="hr00"/>
      <point x="21" y="324" type="line"/>
      <point x="21" y="331"/>
      <point x="24" y="340"/>
      <point x="26" y="343" type="qcurve"/>
      <point x="29" y="347"/>
      <point x="37" y="348"/>
      <point x="42" y="348" type="qcurve"/>
      <point x="47" y="348"/>
      <point x="54" y="347"/>
      <point x="56" y="343" type="qcurve"/>
      <point x="63" y="337"/>
      <point x="63" y="324" type="qcurve"/>
      <point x="45" y="204" type="line"/>
    </contour>
    <contour>
      <point x="117" y="204" type="line"/>
      <point x="99" y="324" type="line"/>
      <point x="99" y="331"/>
      <point x="103" y="340"/>
      <point x="105" y="343" type="qcurve"/>
      <point x="107" y="347"/>
      <point x="115" y="348"/>
      <point x="120" y="348" type="qcurve"/>
      <point x="125" y="348"/>
      <point x="133" y="347"/>
      <point x="138" y="343" type="qcurve"/>
      <point x="141" y="336"/>
      <point x="141" y="324" type="qcurve"/>
      <point x="124" y="204" type="line"/>
    </contour>
  </outline>
</glyph>
<glyph name="numbersign" format="1">
  <advance width="348"/>
  <unicode hex="0023"/>
  <outline>
    <contour>
      <point x="134" y="134" type="line" name="hr00"/>
      <point x="204" y="134" type="line"/>
      <point x="229" y="204" type="line"/>
      <point x="159" y="204" type="line"/>
    </contour>
    <contour>
      <point x="233" y="134" type="line"/>
      <point x="314" y="134" type="line"/>
      <point x="314" y="111" type="line"/>
      <point x="224" y="111" type="line"/>
      <point x="183" y="-11" type="line"/>
      <point x="159" y="-5" type="line"/>
      <point x="198" y="111" type="line"/>
      <point x="126" y="111" type="line"/>
      <point x="85" y="-11" type="line"/>
      <point x="61" y="-2" type="line"/>
      <point x="99" y="111" type="line"/>
      <point x="30" y="111" type="line"/>
      <point x="30" y="134" type="line"/>
      <point x="108" y="134" type="line"/>
      <point x="133" y="204" type="line"/>
      <point x="52" y="204" type="line"/>
      <point x="52" y="230" type="line"/>
      <point x="139" y="230" type="line"/>
      <point x="178" y="346" type="line"/>
      <point x="204" y="339" type="line"/>
      <point x="166" y="230" type="line"/>
      <point x="237" y="230" type="line"/>
      <point x="276" y="346" type="line"/>
      <point x="303" y="339" type="line"/>
      <point x="265" y="230" type="line"/>
      <point x="332" y="230" type="line"/>
      <point x="332" y="204" type="line"/>
      <point x="257" y="204" type="line"/>
    </contour>
  </outline>
</glyph>
<glyph name="dollar" format="1">
  <advance width="273"/>
  <unicode hex="0024"/>
  <outline>
    <contour>
      <point x="202" y="82" type="qcurve"/>
      <point x="202" y="89"/>
      <point x="201" y="101"/>
      <point x="198" y="106" type="qcurve"/>
      <point x="196" y="111"/>
      <point x="190" y="118"/>
      <point x="187" y="122" type="qcurve"/>
      <point x="182" y="125"/>
      <point x="174" y="132"/>
      <point x="169" y="134" type="qcurve"/>
      <point x="164" y="136"/>
      <point x="155" y="139"/>
      <point x="150" y="141" type="qcurve"/>
      <point x="150" y="26" type="line"/>
      <point x="161" y="26"/>
      <point x="169" y="33" type="qcurve"/>
      <point x="174" y="35"/>
      <point x="182" y="40"/>
      <point x="187" y="43" type="qcurve"/>
      <point x="194" y="48"/>
      <point x="198" y="61" type="qcurve"/>
      <point x="201" y="65"/>
      <point x="202" y="76"/>
    </contour>
    <contour>
      <point x="126" y="300" type="line"/>
      <point x="121" y="300"/>
      <point x="113" y="297"/>
      <point x="108" y="296" type="qcurve" name="hr01"/>
      <point x="104" y="292"/>
      <point x="98" y="288"/>
      <point x="96" y="286" type="qcurve"/>
      <point x="92" y="280"/>
      <point x="87" y="273"/>
      <point x="85" y="268" type="qcurve"/>
      <point x="80" y="257"/>
      <point x="80" y="246" type="qcurve"/>
      <point x="80" y="232"/>
      <point x="87" y="226" type="qcurve" name="hr02"/>
      <point x="89" y="222"/>
      <point x="93" y="215"/>
      <point x="96" y="211" type="qcurve"/>
      <point x="104" y="206"/>
      <point x="111" y="201" type="qcurve" name="hr03"/>
      <point x="116" y="198"/>
      <point x="124" y="195"/>
      <point x="128" y="194" type="qcurve"/>
      <point x="128" y="303" type="line"/>
    </contour>
    <contour>
      <point x="244" y="91" type="line"/>
      <point x="244" y="83"/>
      <point x="243" y="70"/>
      <point x="239" y="63" type="qcurve"/>
      <point x="236" y="51"/>
      <point x="229" y="42" type="qcurve"/>
      <point x="224" y="37"/>
      <point x="213" y="27"/>
      <point x="209" y="24" type="qcurve"/>
      <point x="198" y="14"/>
      <point x="187" y="11" type="qcurve" name="hr04"/>
      <point x="178" y="5"/>
      <point x="166" y="2" type="qcurve"/>
      <point x="161" y="0"/>
      <point x="150" y="0"/>
      <point x="148" y="0" type="qcurve"/>
      <point x="148" y="-52" type="line"/>
      <point x="126" y="-52" type="line" name="hr05"/>
      <point x="126" y="0" type="line"/>
      <point x="105" y="0" type="line"/>
      <point x="98" y="0"/>
      <point x="85" y="0"/>
      <point x="78" y="2" type="qcurve"/>
      <point x="70" y="2"/>
      <point x="52" y="7" type="qcurve"/>
      <point x="45" y="7"/>
      <point x="33" y="8"/>
      <point x="26" y="11" type="qcurve"/>
      <point x="26" y="96" type="line"/>
      <point x="52" y="96" type="line" name="hr06"/>
      <point x="61" y="39" type="line"/>
      <point x="65" y="35"/>
      <point x="70" y="33" type="qcurve"/>
      <point x="76" y="28"/>
      <point x="87" y="28" type="qcurve"/>
      <point x="95" y="24"/>
      <point x="105" y="24" type="qcurve" name="hr07"/>
      <point x="126" y="24" type="line"/>
      <point x="126" y="146" type="line"/>
      <point x="118" y="149"/>
      <point x="101" y="153"/>
      <point x="93" y="156" type="qcurve"/>
      <point x="85" y="160"/>
      <point x="70" y="167"/>
      <point x="63" y="174" type="qcurve"/>
      <point x="49" y="184"/>
      <point x="43" y="198" type="qcurve"/>
      <point x="39" y="206"/>
      <point x="35" y="224"/>
      <point x="35" y="235" type="qcurve"/>
      <point x="35" y="243"/>
      <point x="37" y="257"/>
      <point x="39" y="263" type="qcurve" name="hr08"/>
      <point x="41" y="268"/>
      <point x="47" y="280"/>
      <point x="50" y="286" type="qcurve"/>
      <point x="56" y="294"/>
      <point x="65" y="300" type="qcurve"/>
      <point x="70" y="303"/>
      <point x="80" y="309"/>
      <point x="85" y="314" type="qcurve"/>
      <point x="90" y="315"/>
      <point x="99" y="320"/>
      <point x="106" y="322" type="qcurve"/>
      <point x="111" y="324"/>
      <point x="121" y="324"/>
      <point x="126" y="326" type="qcurve"/>
      <point x="126" y="364" type="line"/>
      <point x="150" y="364" type="line"/>
      <point x="150" y="326" type="line"/>
      <point x="181" y="326" type="line"/>
      <point x="188" y="324"/>
      <point x="201" y="324"/>
      <point x="207" y="322" type="qcurve"/>
      <point x="213" y="320"/>
      <point x="226" y="317"/>
      <point x="233" y="315" type="qcurve"/>
      <point x="233" y="239" type="line"/>
      <point x="207" y="239" type="line"/>
      <point x="201" y="291" type="line"/>
      <point x="187" y="304"/>
      <point x="150" y="304" type="qcurve"/>
      <point x="150" y="187" type="line"/>
      <point x="155" y="184"/>
      <point x="166" y="183"/>
      <point x="173" y="181" type="qcurve"/>
      <point x="177" y="178"/>
      <point x="189" y="174"/>
      <point x="194" y="173" type="qcurve"/>
      <point x="198" y="168"/>
      <point x="208" y="163"/>
      <point x="212" y="159" type="qcurve"/>
      <point x="224" y="156"/>
      <point x="230" y="143" type="qcurve"/>
      <point x="238" y="134"/>
      <point x="241" y="122" type="qcurve"/>
      <point x="244" y="115"/>
      <point x="246" y="99"/>
      <point x="246" y="91" type="qcurve"/>
    </contour>
  </outline>
</glyph>
<glyph name="percent" format="1">
  <advance width="428"/>
  <unicode hex="0025"/>
  <outline>
    <contour>
      <point x="128" y="233" type="qcurve"/>
      <point x="128" y="243"/>
      <point x="126" y="259"/>
      <point x="126" y="268" type="qcurve"/>
      <point x="122" y="283"/>
      <point x="120" y="294" type="qcurve"/>
      <point x="118" y="299"/>
      <point x="112" y="308"/>
      <point x="108" y="311" type="qcurve"/>
      <point x="99" y="317"/>
      <point x="91" y="317" type="qcurve"/>
      <point x="80" y="317"/>
      <point x="73" y="311" type="qcurve"/>
      <point x="71" y="308"/>
      <point x="65" y="299"/>
      <point x="63" y="294" type="qcurve"/>
      <point x="57" y="283"/>
      <point x="54" y="268" type="qcurve"/>
      <point x="54" y="261"/>
      <point x="52" y="243"/>
      <point x="52" y="233" type="qcurve"/>
      <point x="52" y="223"/>
      <point x="54" y="206"/>
      <point x="54" y="198" type="qcurve"/>
      <point x="56" y="191"/>
      <point x="60" y="177"/>
      <point x="63" y="173" type="qcurve"/>
      <point x="65" y="162"/>
      <point x="73" y="155" type="qcurve"/>
      <point x="77" y="150"/>
      <point x="86" y="150"/>
      <point x="91" y="150" type="qcurve" name="hr01"/>
      <point x="96" y="150"/>
      <point x="104" y="150"/>
      <point x="108" y="155" type="qcurve" name="hr02"/>
      <point x="115" y="160"/>
      <point x="120" y="173" type="qcurve"/>
      <point x="126" y="198" type="line"/>
      <point x="126" y="206"/>
      <point x="128" y="224"/>
    </contour>
    <contour>
      <point x="367" y="96" type="qcurve"/>
      <point x="367" y="104"/>
      <point x="367" y="120"/>
      <point x="365" y="128" type="qcurve"/>
      <point x="364" y="136"/>
      <point x="360" y="150"/>
      <point x="359" y="156" type="qcurve"/>
      <point x="356" y="161"/>
      <point x="351" y="170"/>
      <point x="348" y="174" type="qcurve"/>
      <point x="343" y="176"/>
      <point x="336" y="178"/>
      <point x="331" y="178" type="qcurve"/>
      <point x="321" y="178"/>
      <point x="314" y="174" type="qcurve"/>
      <point x="309" y="170"/>
      <point x="303" y="161"/>
      <point x="300" y="156" type="qcurve"/>
      <point x="297" y="150"/>
      <point x="296" y="136"/>
      <point x="294" y="128" type="qcurve"/>
      <point x="292" y="120"/>
      <point x="291" y="104"/>
      <point x="291" y="96" type="qcurve"/>
      <point x="291" y="84"/>
      <point x="292" y="67"/>
      <point x="294" y="59" type="qcurve" name="hr03"/>
      <point x="297" y="42"/>
      <point x="300" y="33" type="qcurve" name="hr04"/>
      <point x="303" y="28"/>
      <point x="309" y="19"/>
      <point x="314" y="15" type="qcurve"/>
      <point x="319" y="8"/>
      <point x="331" y="8" type="qcurve"/>
      <point x="338" y="8"/>
      <point x="348" y="15" type="qcurve"/>
      <point x="351" y="19"/>
      <point x="356" y="28"/>
      <point x="359" y="33" type="qcurve"/>
      <point x="360" y="37"/>
      <point x="364" y="50"/>
      <point x="365" y="59" type="qcurve"/>
      <point x="367" y="67"/>
      <point x="367" y="84"/>
    </contour>
    <contour>
      <point x="166" y="233" type="qcurve"/>
      <point x="166" y="222"/>
      <point x="164" y="201"/>
      <point x="161" y="191" type="qcurve"/>
      <point x="159" y="184"/>
      <point x="150" y="167"/>
      <point x="148" y="159" type="qcurve"/>
      <point x="138" y="145"/>
      <point x="124" y="139" type="qcurve"/>
      <point x="117" y="134"/>
      <point x="99" y="131"/>
      <point x="91" y="131" type="qcurve"/>
      <point x="82" y="131"/>
      <point x="65" y="134"/>
      <point x="56" y="139" type="qcurve"/>
      <point x="41" y="146"/>
      <point x="35" y="159" type="qcurve"/>
      <point x="30" y="167"/>
      <point x="23" y="184"/>
      <point x="20" y="191" type="qcurve"/>
      <point x="17" y="201"/>
      <point x="15" y="222"/>
      <point x="15" y="233" type="qcurve"/>
      <point x="15" y="244"/>
      <point x="17" y="264"/>
      <point x="20" y="274" type="qcurve"/>
      <point x="23" y="282"/>
      <point x="30" y="300"/>
      <point x="35" y="307" type="qcurve"/>
      <point x="40" y="314"/>
      <point x="50" y="324"/>
      <point x="59" y="329" type="qcurve"/>
      <point x="71" y="335"/>
      <point x="91" y="335" type="qcurve"/>
      <point x="110" y="335"/>
      <point x="124" y="329" type="qcurve"/>
      <point x="131" y="324"/>
      <point x="143" y="314"/>
      <point x="148" y="307" type="qcurve"/>
      <point x="157" y="294"/>
      <point x="161" y="274" type="qcurve"/>
      <point x="164" y="264"/>
      <point x="166" y="244"/>
    </contour>
    <contour>
      <point x="91" y="0" type="line"/>
      <point x="300" y="329" type="line"/>
      <point x="331" y="329" type="line"/>
      <point x="122" y="0" type="line"/>
    </contour>
    <contour>
      <point x="405" y="93" type="qcurve"/>
      <point x="405" y="82"/>
      <point x="402" y="62"/>
      <point x="400" y="52" type="qcurve"/>
      <point x="396" y="42"/>
      <point x="391" y="27"/>
      <point x="387" y="20" type="qcurve"/>
      <point x="380" y="13"/>
      <point x="371" y="3"/>
      <point x="364" y="0" type="qcurve"/>
      <point x="355" y="-5"/>
      <point x="338" y="-9"/>
      <point x="331" y="-9" type="qcurve"/>
      <point x="319" y="-9"/>
      <point x="303" y="-5"/>
      <point x="296" y="0" type="qcurve"/>
      <point x="280" y="7"/>
      <point x="274" y="20" type="qcurve"/>
      <point x="269" y="27"/>
      <point x="261" y="44"/>
      <point x="259" y="54" type="qcurve"/>
      <point x="254" y="71"/>
      <point x="254" y="93" type="qcurve"/>
      <point x="254" y="113"/>
      <point x="259" y="134" type="qcurve"/>
      <point x="261" y="145"/>
      <point x="269" y="161"/>
      <point x="274" y="167" type="qcurve"/>
      <point x="278" y="174"/>
      <point x="289" y="184"/>
      <point x="296" y="190" type="qcurve"/>
      <point x="303" y="192"/>
      <point x="320" y="198"/>
      <point x="331" y="198" type="qcurve"/>
      <point x="338" y="198"/>
      <point x="357" y="192"/>
      <point x="364" y="190" type="qcurve"/>
      <point x="371" y="184"/>
      <point x="380" y="174"/>
      <point x="387" y="167" type="qcurve"/>
      <point x="391" y="161"/>
      <point x="396" y="145"/>
      <point x="400" y="134" type="qcurve"/>
      <point x="402" y="125"/>
      <point x="405" y="105"/>
    </contour>
  </outline>
</glyph>
<glyph name="ampersand" format="1">
  <advance width="356"/>
  <unicode hex="0026"/>
  <outline>
    <contour>
      <point x="103" y="163" type="line"/>
      <point x="99" y="160"/>
      <point x="93" y="155"/>
      <point x="89" y="150" type="qcurve"/>
      <point x="86" y="148"/>
      <point x="80" y="140"/>
      <point x="78" y="138" type="qcurve"/>
      <point x="76" y="133"/>
      <point x="71" y="127"/>
      <point x="71" y="122" type="qcurve"/>
      <point x="70" y="117"/>
      <point x="68" y="107"/>
      <point x="68" y="103" type="qcurve"/>
      <point x="68" y="84"/>
      <point x="73" y="71" type="qcurve"/>
      <point x="77" y="65"/>
      <point x="84" y="52"/>
      <point x="89" y="48" type="qcurve"/>
      <point x="98" y="36"/>
      <point x="111" y="33" type="qcurve"/>
      <point x="124" y="26"/>
      <point x="139" y="26" type="qcurve"/>
      <point x="144" y="26"/>
      <point x="156" y="26"/>
      <point x="159" y="28" type="qcurve"/>
      <point x="163" y="30"/>
      <point x="173" y="33"/>
      <point x="176" y="35" type="qcurve" name="hr01"/>
      <point x="185" y="37"/>
      <point x="191" y="43" type="qcurve"/>
      <point x="195" y="45"/>
      <point x="201" y="51"/>
      <point x="204" y="54" type="qcurve"/>
    </contour>
    <contour>
      <point x="176" y="257" type="qcurve"/>
      <point x="176" y="261"/>
      <point x="176" y="272"/>
      <point x="174" y="276" type="qcurve"/>
      <point x="173" y="281"/>
      <point x="168" y="290"/>
      <point x="166" y="294" type="qcurve"/>
      <point x="161" y="297"/>
      <point x="155" y="303"/>
      <point x="150" y="304" type="qcurve"/>
      <point x="147" y="308"/>
      <point x="138" y="309"/>
      <point x="131" y="309" type="qcurve"/>
      <point x="126" y="309"/>
      <point x="116" y="309"/>
      <point x="113" y="307" type="qcurve"/>
      <point x="108" y="304"/>
      <point x="101" y="299"/>
      <point x="99" y="296" type="qcurve"/>
      <point x="97" y="292"/>
      <point x="93" y="286"/>
      <point x="89" y="282" type="qcurve"/>
      <point x="87" y="278"/>
      <point x="87" y="268"/>
      <point x="87" y="263" type="qcurve"/>
      <point x="87" y="258"/>
      <point x="89" y="246"/>
      <point x="91" y="241" type="qcurve"/>
      <point x="95" y="237"/>
      <point x="99" y="226"/>
      <point x="103" y="222" type="qcurve"/>
      <point x="107" y="217"/>
      <point x="114" y="209"/>
      <point x="117" y="204" type="qcurve"/>
      <point x="122" y="201"/>
      <point x="129" y="195"/>
      <point x="133" y="191" type="qcurve"/>
      <point x="138" y="195"/>
      <point x="147" y="199"/>
      <point x="152" y="202" type="qcurve"/>
      <point x="156" y="206"/>
      <point x="161" y="213"/>
      <point x="166" y="218" type="qcurve"/>
      <point x="170" y="223"/>
      <point x="174" y="235" type="qcurve"/>
      <point x="176" y="240"/>
      <point x="176" y="252"/>
    </contour>
    <contour>
      <point x="244" y="11" type="line"/>
      <point x="222" y="35" type="line"/>
      <point x="215" y="31"/>
      <point x="205" y="24"/>
      <point x="201" y="20" type="qcurve"/>
      <point x="195" y="16"/>
      <point x="184" y="9"/>
      <point x="178" y="7" type="qcurve"/>
      <point x="171" y="3"/>
      <point x="159" y="0"/>
      <point x="152" y="-2" type="qcurve"/>
      <point x="145" y="-6"/>
      <point x="129" y="-7"/>
      <point x="122" y="-7" type="qcurve"/>
      <point x="99" y="-7"/>
      <point x="80" y="0" type="qcurve"/>
      <point x="67" y="5"/>
      <point x="48" y="20" type="qcurve"/>
      <point x="41" y="26"/>
      <point x="32" y="42"/>
      <point x="28" y="50" type="qcurve"/>
      <point x="23" y="60"/>
      <point x="20" y="79"/>
      <point x="20" y="89" type="qcurve"/>
      <point x="20" y="105"/>
      <point x="24" y="120" type="qcurve"/>
      <point x="27" y="127"/>
      <point x="34" y="136"/>
      <point x="37" y="143" type="qcurve"/>
      <point x="42" y="148"/>
      <point x="52" y="159"/>
      <point x="59" y="163" type="qcurve"/>
      <point x="65" y="167"/>
      <point x="78" y="173"/>
      <point x="85" y="176" type="qcurve" name="hr02"/>
      <point x="83" y="178"/>
      <point x="77" y="184"/>
      <point x="73" y="187" type="qcurve"/>
      <point x="68" y="194"/>
      <point x="61" y="204" type="qcurve" name="hr03"/>
      <point x="57" y="209"/>
      <point x="51" y="219"/>
      <point x="48" y="226" type="qcurve"/>
      <point x="45" y="233"/>
      <point x="43" y="246"/>
      <point x="43" y="252" type="qcurve"/>
      <point x="43" y="260"/>
      <point x="47" y="279"/>
      <point x="50" y="286" type="qcurve" name="hr04"/>
      <point x="54" y="293"/>
      <point x="65" y="307"/>
      <point x="71" y="311" type="qcurve"/>
      <point x="76" y="318"/>
      <point x="92" y="325"/>
      <point x="99" y="329" type="qcurve"/>
      <point x="117" y="335"/>
      <point x="138" y="335" type="qcurve"/>
      <point x="155" y="335"/>
      <point x="173" y="329" type="qcurve"/>
      <point x="178" y="325"/>
      <point x="191" y="318"/>
      <point x="198" y="314" type="qcurve"/>
      <point x="203" y="309"/>
      <point x="213" y="297"/>
      <point x="216" y="291" type="qcurve"/>
      <point x="220" y="283"/>
      <point x="222" y="269"/>
      <point x="222" y="261" type="qcurve"/>
      <point x="222" y="251"/>
      <point x="220" y="235"/>
      <point x="216" y="229" type="qcurve"/>
      <point x="213" y="224"/>
      <point x="205" y="212"/>
      <point x="201" y="207" type="qcurve"/>
      <point x="189" y="195"/>
      <point x="176" y="190" type="qcurve"/>
      <point x="164" y="181"/>
      <point x="150" y="174" type="qcurve"/>
      <point x="233" y="87" type="line"/>
      <point x="236" y="89"/>
      <point x="240" y="95"/>
      <point x="241" y="98" type="qcurve"/>
      <point x="244" y="101"/>
      <point x="248" y="110"/>
      <point x="251" y="113" type="qcurve"/>
      <point x="252" y="116"/>
      <point x="254" y="125"/>
      <point x="257" y="128" type="qcurve"/>
      <point x="261" y="139"/>
      <point x="261" y="143" type="qcurve"/>
      <point x="261" y="146"/>
      <point x="259" y="150" type="qcurve"/>
      <point x="258" y="150"/>
      <point x="254" y="152"/>
      <point x="252" y="152" type="qcurve"/>
      <point x="226" y="156" type="line"/>
      <point x="226" y="176" type="line"/>
      <point x="326" y="176" type="line"/>
      <point x="326" y="156" type="line"/>
      <point x="291" y="150" type="line"/>
      <point x="289" y="143"/>
      <point x="285" y="133"/>
      <point x="282" y="126" type="qcurve"/>
      <point x="280" y="119"/>
      <point x="275" y="110"/>
      <point x="272" y="105" type="qcurve"/>
      <point x="269" y="98"/>
      <point x="263" y="90"/>
      <point x="261" y="85" type="qcurve"/>
      <point x="258" y="80"/>
      <point x="252" y="71"/>
      <point x="247" y="68" type="qcurve"/>
      <point x="289" y="21" type="line"/>
      <point x="331" y="20" type="line"/>
      <point x="331" y="0" type="line"/>
      <point x="241" y="0" type="line"/>
    </contour>
  </outline>
</glyph>
<glyph name="quotesingle" format="1">
  <advance width="87"/>
  <unicode hex="0027"/>
  <outline>
    <contour>
      <point x="39" y="204" type="line" name="hr00"/>
      <point x="21" y="324" type="line"/>
      <point x="21" y="331"/>
      <point x="22" y="340"/>
      <point x="26" y="343" type="qcurve"/>
      <point x="29" y="347"/>
      <point x="37" y="348"/>
      <point x="42" y="348" type="qcurve"/>
      <point x="47" y="348"/>
      <point x="54" y="347"/>
      <point x="56" y="343" type="qcurve"/>
      <point x="63" y="337"/>
      <point x="63" y="324" type="qcurve"/>
      <point x="45" y="204" type="line"/>
    </contour>
  </outline>
</glyph>
<glyph name="parenleft" format="1">
  <advance width="204"/>
  <unicode hex="0028"/>
  <outline>
    <contour>
      <point x="167" y="-71" type="line" name="hr00"/>
      <point x="154" y="-70"/>
      <point x="132" y="-62"/>
      <point x="122" y="-59" type="qcurve"/>
      <point x="100" y="-48"/>
      <point x="87" y="-35" type="qcurve"/>
      <point x="79" y="-27"/>
      <point x="65" y="-11"/>
      <point x="61" y="0" type="qcurve"/>
      <point x="54" y="9"/>
      <point x="47" y="30"/>
      <point x="42" y="42" type="qcurve"/>
      <point x="37" y="52"/>
      <point x="35" y="76"/>
      <point x="33" y="89" type="qcurve"/>
      <point x="31" y="100"/>
      <point x="28" y="127"/>
      <point x="28" y="141" type="qcurve"/>
      <point x="28" y="161"/>
      <point x="34" y="198"/>
      <point x="37" y="218" type="qcurve"/>
      <point x="41" y="236"/>
      <point x="50" y="266"/>
      <point x="59" y="280" type="qcurve"/>
      <point x="78" y="309"/>
      <point x="103" y="329" type="qcurve"/>
      <point x="116" y="337"/>
      <point x="148" y="348"/>
      <point x="167" y="350" type="qcurve"/>
      <point x="167" y="329" type="line"/>
      <point x="154" y="327"/>
      <point x="132" y="317"/>
      <point x="124" y="309" type="qcurve"/>
      <point x="106" y="297"/>
      <point x="96" y="272" type="qcurve"/>
      <point x="89" y="258"/>
      <point x="82" y="231"/>
      <point x="78" y="212" type="qcurve"/>
      <point x="76" y="196"/>
      <point x="73" y="161"/>
      <point x="73" y="141" type="qcurve"/>
      <point x="73" y="120"/>
      <point x="76" y="84"/>
      <point x="78" y="68" type="qcurve"/>
      <point x="82" y="51"/>
      <point x="89" y="22"/>
      <point x="96" y="8" type="qcurve"/>
      <point x="105" y="-14"/>
      <point x="124" y="-31" type="qcurve"/>
      <point x="139" y="-43"/>
      <point x="167" y="-48" type="qcurve"/>
      <point x="167" y="-70" type="line"/>
    </contour>
  </outline>
</glyph>
<glyph name="parenright" format="1">
  <advance width="193"/>
  <unicode hex="0029"/>
  <outline>
    <contour>
      <point x="156" y="141" type="qcurve" name="hr00"/>
      <point x="156" y="127"/>
      <point x="154" y="100"/>
      <point x="152" y="89" type="qcurve"/>
      <point x="150" y="76"/>
      <point x="146" y="52"/>
      <point x="141" y="42" type="qcurve"/>
      <point x="139" y="30"/>
      <point x="131" y="9"/>
      <point x="124" y="0" type="qcurve"/>
      <point x="119" y="-11"/>
      <point x="105" y="-27"/>
      <point x="98" y="-35" type="qcurve"/>
      <point x="90" y="-42"/>
      <point x="73" y="-54"/>
      <point x="63" y="-59" type="qcurve"/>
      <point x="51" y="-62"/>
      <point x="29" y="-70"/>
      <point x="17" y="-71" type="qcurve"/>
      <point x="17" y="-48" type="line"/>
      <point x="31" y="-47"/>
      <point x="50" y="-37"/>
      <point x="61" y="-31" type="qcurve"/>
      <point x="69" y="-22"/>
      <point x="84" y="-3"/>
      <point x="89" y="8" type="qcurve"/>
      <point x="93" y="22"/>
      <point x="103" y="51"/>
      <point x="105" y="68" type="qcurve"/>
      <point x="107" y="84"/>
      <point x="111" y="120"/>
      <point x="111" y="141" type="qcurve"/>
      <point x="111" y="161"/>
      <point x="107" y="196"/>
      <point x="105" y="212" type="qcurve"/>
      <point x="103" y="231"/>
      <point x="93" y="258"/>
      <point x="89" y="272" type="qcurve"/>
      <point x="84" y="283"/>
      <point x="69" y="302"/>
      <point x="61" y="309" type="qcurve"/>
      <point x="42" y="325"/>
      <point x="17" y="329" type="qcurve"/>
      <point x="17" y="350" type="line"/>
      <point x="36" y="348"/>
      <point x="67" y="337"/>
      <point x="80" y="329" type="qcurve"/>
      <point x="107" y="309"/>
      <point x="124" y="280" type="qcurve"/>
      <point x="141" y="252"/>
      <point x="148" y="218" type="qcurve"/>
      <point x="150" y="199"/>
      <point x="156" y="161"/>
    </contour>
  </outline>
</glyph>
<glyph name="asterisk" format="1">
  <advance width="247"/>
  <unicode hex="002A"/>
  <outline>
    <contour>
      <point x="63" y="166" type="line" name="hr00"/>
      <point x="63" y="201" type="line"/>
      <point x="113" y="241" type="line"/>
      <point x="120" y="237" type="line"/>
      <point x="96" y="178" type="line"/>
    </contour>
    <contour>
      <point x="48" y="252" type="line"/>
      <point x="26" y="279" type="line"/>
      <point x="61" y="289" type="line"/>
      <point x="113" y="254" type="line"/>
      <point x="111" y="247" type="line"/>
    </contour>
    <contour>
      <point x="126" y="237" type="line"/>
      <point x="131" y="241" type="line"/>
      <point x="181" y="201" type="line"/>
      <point x="181" y="166" type="line"/>
      <point x="148" y="178" type="line"/>
    </contour>
    <contour>
      <point x="117" y="259" type="line"/>
      <point x="103" y="320" type="line"/>
      <point x="122" y="350" type="line"/>
      <point x="141" y="320" type="line"/>
      <point x="126" y="259" type="line"/>
    </contour>
    <contour>
      <point x="134" y="247" type="line"/>
      <point x="131" y="254" type="line"/>
      <point x="183" y="289" type="line"/>
      <point x="219" y="279" type="line"/>
      <point x="198" y="252" type="line"/>
    </contour>
  </outline>
</glyph>
<glyph name="plus" format="1">
  <advance width="444"/>
  <unicode hex="002B"/>
  <outline>
    <contour>
      <point x="261" y="0" type="line" name="hr00"/>
      <point x="229" y="0" type="line"/>
      <point x="229" y="133" type="line"/>
      <point x="98" y="133" type="line"/>
      <point x="98" y="161" type="line"/>
      <point x="229" y="161" type="line"/>
      <point x="229" y="294" type="line"/>
      <point x="261" y="294" type="line"/>
      <point x="261" y="161" type="line"/>
      <point x="392" y="161" type="line"/>
      <point x="392" y="133" type="line"/>
      <point x="261" y="133" type="line"/>
    </contour>
  </outline>
</glyph>
<glyph name="comma" format="1">
  <advance width="125"/>
  <unicode hex="002C"/>
  <outline>
    <contour>
      <point x="103" y="4" type="line" name="hr00"/>
      <point x="103" y="-6"/>
      <point x="99" y="-22"/>
      <point x="96" y="-31" type="qcurve"/>
      <point x="91" y="-37"/>
      <point x="82" y="-52"/>
      <point x="76" y="-57" type="qcurve"/>
      <point x="64" y="-70"/>
      <point x="48" y="-77" type="qcurve"/>
      <point x="34" y="-82"/>
      <point x="15" y="-85" type="qcurve"/>
      <point x="15" y="-68" type="line"/>
      <point x="31" y="-65"/>
      <point x="39" y="-59" type="qcurve"/>
      <point x="43" y="-55"/>
      <point x="54" y="-49"/>
      <point x="56" y="-45" type="qcurve"/>
      <point x="60" y="-41"/>
      <point x="64" y="-31"/>
      <point x="68" y="-26" type="qcurve"/>
      <point x="70" y="-20"/>
      <point x="70" y="-6"/>
      <point x="70" y="2" type="qcurve"/>
      <point x="39" y="2" type="line"/>
      <point x="39" y="3" type="line"/>
      <point x="39" y="3"/>
      <point x="37" y="4" type="qcurve"/>
      <point x="37" y="5"/>
      <point x="36" y="7"/>
      <point x="36" y="8" type="qcurve"/>
      <point x="35" y="8" type="line"/>
      <point x="33" y="11"/>
      <point x="33" y="13" type="qcurve"/>
      <point x="33" y="15" type="line"/>
      <point x="30" y="20"/>
      <point x="30" y="26" type="qcurve"/>
      <point x="30" y="29"/>
      <point x="33" y="36"/>
      <point x="33" y="39" type="qcurve"/>
      <point x="35" y="41"/>
      <point x="37" y="45"/>
      <point x="39" y="48" type="qcurve"/>
      <point x="41" y="51"/>
      <point x="45" y="54"/>
      <point x="48" y="56" type="qcurve"/>
      <point x="51" y="58"/>
      <point x="56" y="59"/>
      <point x="61" y="59" type="qcurve"/>
      <point x="65" y="59"/>
      <point x="75" y="58"/>
      <point x="78" y="54" type="qcurve"/>
      <point x="82" y="52"/>
      <point x="88" y="47"/>
      <point x="91" y="43" type="qcurve"/>
      <point x="95" y="40"/>
      <point x="96" y="31"/>
      <point x="98" y="26" type="qcurve"/>
      <point x="99" y="21"/>
      <point x="99" y="11"/>
      <point x="99" y="4" type="qcurve"/>
    </contour>
  </outline>
</glyph>
<glyph name="hyphen" format="1">
  <advance width="160"/>
  <unicode hex="002D"/>
  <outline>
    <contour>
      <point x="21" y="134" type="line" name="hr00"/>
      <point x="134" y="134" type="line"/>
      <point x="134" y="99" type="line"/>
      <point x="21" y="99" type="line"/>
    </contour>
  </outline>
</glyph>
<glyph name="period" format="1">
  <advance width="127"/>
  <unicode hex="002E"/>
  <outline>
    <contour>
      <point x="96" y="26" type="qcurve" name="hr00"/>
      <point x="96" y="17"/>
      <point x="93" y="13" type="qcurve"/>
      <point x="92" y="9"/>
      <point x="88" y="6"/>
      <point x="85" y="2" type="qcurve"/>
      <point x="83" y="0"/>
      <point x="77" y="-3"/>
      <point x="73" y="-5" type="qcurve"/>
      <point x="71" y="-7"/>
      <point x="65" y="-7"/>
      <point x="63" y="-7" type="qcurve"/>
      <point x="52" y="-7"/>
      <point x="48" y="-5" type="qcurve"/>
      <point x="45" y="-3"/>
      <point x="41" y="0"/>
      <point x="39" y="2" type="qcurve"/>
      <point x="33" y="8"/>
      <point x="33" y="13" type="qcurve"/>
      <point x="31" y="16"/>
      <point x="30" y="22"/>
      <point x="30" y="26" type="qcurve"/>
      <point x="30" y="35"/>
      <point x="33" y="39" type="qcurve"/>
      <point x="33" y="42"/>
      <point x="37" y="48"/>
      <point x="39" y="50" type="qcurve"/>
      <point x="42" y="54"/>
      <point x="50" y="56" type="qcurve"/>
      <point x="54" y="59"/>
      <point x="63" y="59" type="qcurve"/>
      <point x="67" y="59"/>
      <point x="72" y="58"/>
      <point x="76" y="56" type="qcurve"/>
      <point x="79" y="54"/>
      <point x="87" y="50" type="qcurve"/>
      <point x="89" y="48"/>
      <point x="92" y="42"/>
      <point x="93" y="39" type="qcurve"/>
      <point x="96" y="35"/>
    </contour>
  </outline>
</glyph>
<glyph name="slash" format="1">
  <advance width="263"/>
  <unicode hex="002F"/>
  <outline>
    <contour>
      <point x="0" y="-45" type="line" name="hr00"/>
      <point x="209" y="329" type="line"/>
      <point x="239" y="329" type="line"/>
      <point x="33" y="-45" type="line"/>
    </contour>
  </outline>
</glyph>
<glyph name="zero" format="1">
  <advance width="298"/>
  <unicode hex="0030"/>
  <outline>
    <contour>
      <point x="208" y="175" type="qcurve" name="hr00"/>
      <point x="208" y="186"/>
      <point x="208" y="206"/>
      <point x="206" y="215" type="qcurve"/>
      <point x="206" y="225"/>
      <point x="205" y="243"/>
      <point x="202" y="251" type="qcurve"/>
      <point x="199" y="260"/>
      <point x="195" y="276"/>
      <point x="193" y="283" type="qcurve"/>
      <point x="187" y="299"/>
      <point x="180" y="308" type="qcurve"/>
      <point x="175" y="314"/>
      <point x="164" y="323"/>
      <point x="160" y="328" type="qcurve"/>
      <point x="155" y="330"/>
      <point x="144" y="332"/>
      <point x="138" y="332" type="qcurve"/>
      <point x="131" y="332"/>
      <point x="117" y="330"/>
      <point x="111" y="328" type="qcurve"/>
      <point x="106" y="323"/>
      <point x="98" y="314"/>
      <point x="93" y="308" type="qcurve"/>
      <point x="85" y="298"/>
      <point x="82" y="283" type="qcurve"/>
      <point x="79" y="276"/>
      <point x="74" y="260"/>
      <point x="72" y="251" type="qcurve"/>
      <point x="67" y="233"/>
      <point x="67" y="215" type="qcurve"/>
      <point x="67" y="175" type="line"/>
      <point x="67" y="136" type="line"/>
      <point x="67" y="120"/>
      <point x="72" y="101" type="qcurve"/>
      <point x="74" y="92"/>
      <point x="79" y="76"/>
      <point x="82" y="69" type="qcurve"/>
      <point x="85" y="54"/>
      <point x="93" y="43" type="qcurve"/>
      <point x="98" y="38"/>
      <point x="106" y="30"/>
      <point x="111" y="28" type="qcurve"/>
      <point x="121" y="20"/>
      <point x="138" y="20" type="qcurve"/>
      <point x="150" y="20"/>
      <point x="160" y="28" type="qcurve"/>
      <point x="164" y="30"/>
      <point x="175" y="38"/>
      <point x="180" y="43" type="qcurve"/>
      <point x="187" y="53"/>
      <point x="193" y="69" type="qcurve"/>
      <point x="195" y="76"/>
      <point x="199" y="92"/>
      <point x="202" y="101" type="qcurve"/>
      <point x="205" y="109"/>
      <point x="206" y="127"/>
      <point x="206" y="136" type="qcurve"/>
      <point x="208" y="146"/>
      <point x="208" y="166"/>
    </contour>
    <contour>
      <point x="263" y="173" type="line"/>
      <point x="263" y="143"/>
      <point x="254" y="106" type="qcurve"/>
      <point x="251" y="89"/>
      <point x="239" y="60"/>
      <point x="231" y="48" type="qcurve"/>
      <point x="223" y="34"/>
      <point x="205" y="17"/>
      <point x="193" y="10" type="qcurve"/>
      <point x="180" y="0"/>
      <point x="153" y="-7"/>
      <point x="138" y="-7" type="qcurve"/>
      <point x="121" y="-7"/>
      <point x="93" y="0"/>
      <point x="82" y="10" type="qcurve"/>
      <point x="69" y="17"/>
      <point x="49" y="34"/>
      <point x="43" y="48" type="qcurve"/>
      <point x="35" y="60"/>
      <point x="22" y="89"/>
      <point x="19" y="106" type="qcurve"/>
      <point x="15" y="121"/>
      <point x="13" y="158"/>
      <point x="13" y="175" type="qcurve"/>
      <point x="13" y="187"/>
      <point x="13" y="211"/>
      <point x="14" y="224" type="qcurve"/>
      <point x="16" y="235"/>
      <point x="22" y="257"/>
      <point x="27" y="268" type="qcurve"/>
      <point x="30" y="276"/>
      <point x="36" y="295"/>
      <point x="43" y="305" type="qcurve"/>
      <point x="52" y="320"/>
      <point x="67" y="332" type="qcurve"/>
      <point x="74" y="339"/>
      <point x="89" y="348"/>
      <point x="101" y="353" type="qcurve"/>
      <point x="108" y="354"/>
      <point x="126" y="359"/>
      <point x="138" y="359" type="qcurve"/>
      <point x="148" y="359"/>
      <point x="169" y="354"/>
      <point x="176" y="353" type="qcurve"/>
      <point x="185" y="348"/>
      <point x="201" y="339"/>
      <point x="208" y="332" type="qcurve"/>
      <point x="221" y="323"/>
      <point x="231" y="305" type="qcurve"/>
      <point x="237" y="295"/>
      <point x="245" y="276"/>
      <point x="250" y="268" type="qcurve"/>
      <point x="252" y="257"/>
      <point x="258" y="235"/>
      <point x="259" y="224" type="qcurve"/>
      <point x="261" y="211"/>
      <point x="264" y="187"/>
      <point x="264" y="175" type="qcurve"/>
    </contour>
  </outline>
</glyph>
<glyph name="one" format="1">
  <advance width="252"/>
  <unicode hex="0031"/>
  <outline>
    <contour>
      <point x="47" y="18" type="line" name="hr00"/>
      <point x="102" y="21" type="line"/>
      <point x="105" y="21"/>
      <point x="110" y="24" type="qcurve"/>
      <point x="110" y="26"/>
      <point x="112" y="31"/>
      <point x="112" y="33" type="qcurve"/>
      <point x="112" y="308" type="line"/>
      <point x="32" y="293" type="line"/>
      <point x="32" y="317" type="line"/>
      <point x="142" y="351" type="line"/>
      <point x="163" y="351" type="line"/>
      <point x="163" y="33" type="line"/>
      <point x="163" y="31"/>
      <point x="165" y="26"/>
      <point x="168" y="24" type="qcurve"/>
      <point x="168" y="21"/>
      <point x="176" y="21" type="qcurve"/>
      <point x="223" y="18" type="line"/>
      <point x="223" y="-4" type="line"/>
      <point x="47" y="-4" type="line"/>
    </contour>
  </outline>
</glyph>
<glyph name="two" format="1">
  <advance width="295"/>
  <unicode hex="0032"/>
  <outline>
    <contour>
      <point x="17" y="30" type="line" name="hr00"/>
      <point x="36" y="46"/>
      <point x="73" y="75"/>
      <point x="90" y="89" type="qcurve"/>
      <point x="106" y="104"/>
      <point x="136" y="130"/>
      <point x="149" y="142" type="qcurve"/>
      <point x="161" y="154"/>
      <point x="178" y="181"/>
      <point x="186" y="193" type="qcurve"/>
      <point x="198" y="216"/>
      <point x="198" y="244" type="qcurve"/>
      <point x="198" y="264"/>
      <point x="193" y="279" type="qcurve"/>
      <point x="188" y="286"/>
      <point x="180" y="298"/>
      <point x="176" y="301" type="qcurve"/>
      <point x="171" y="307"/>
      <point x="160" y="314"/>
      <point x="153" y="317" type="qcurve"/>
      <point x="145" y="321"/>
      <point x="133" y="322"/>
      <point x="125" y="322" type="qcurve"/>
      <point x="120" y="322"/>
      <point x="110" y="322"/>
      <point x="106" y="320" type="qcurve"/>
      <point x="102" y="320"/>
      <point x="93" y="316" type="qcurve"/>
      <point x="90" y="314"/>
      <point x="86" y="313"/>
      <point x="84" y="310" type="qcurve"/>
      <point x="82" y="309" type="line"/>
      <point x="82" y="250" type="line"/>
      <point x="80" y="250"/>
      <point x="74" y="246" type="qcurve"/>
      <point x="72" y="246"/>
      <point x="67" y="246"/>
      <point x="66" y="244" type="qcurve"/>
      <point x="54" y="244" type="line"/>
      <point x="47" y="244"/>
      <point x="43" y="246" type="qcurve"/>
      <point x="37" y="246"/>
      <point x="33" y="250" type="qcurve"/>
      <point x="29" y="256"/>
      <point x="27" y="261" type="qcurve"/>
      <point x="25" y="263"/>
      <point x="24" y="270"/>
      <point x="24" y="274" type="qcurve"/>
      <point x="24" y="290"/>
      <point x="33" y="303" type="qcurve"/>
      <point x="42" y="317"/>
      <point x="58" y="329" type="qcurve"/>
      <point x="66" y="334"/>
      <point x="82" y="342"/>
      <point x="93" y="346" type="qcurve"/>
      <point x="103" y="349"/>
      <point x="125" y="352"/>
      <point x="138" y="352" type="qcurve"/>
      <point x="149" y="352"/>
      <point x="172" y="346"/>
      <point x="184" y="344" type="qcurve"/>
      <point x="193" y="339"/>
      <point x="211" y="329"/>
      <point x="221" y="322" type="qcurve"/>
      <point x="228" y="315"/>
      <point x="240" y="300"/>
      <point x="243" y="292" type="qcurve"/>
      <point x="247" y="282"/>
      <point x="252" y="262"/>
      <point x="252" y="250" type="qcurve"/>
      <point x="252" y="230"/>
      <point x="245" y="214" type="qcurve"/>
      <point x="242" y="205"/>
      <point x="231" y="188"/>
      <point x="227" y="179" type="qcurve"/>
      <point x="220" y="172"/>
      <point x="205" y="153"/>
      <point x="197" y="144" type="qcurve"/>
      <point x="188" y="136"/>
      <point x="171" y="119"/>
      <point x="160" y="109" type="qcurve"/>
      <point x="150" y="101"/>
      <point x="127" y="84"/>
      <point x="116" y="75" type="qcurve"/>
      <point x="95" y="56"/>
      <point x="69" y="39" type="qcurve"/>
      <point x="224" y="39" type="line"/>
      <point x="234" y="82" type="line"/>
      <point x="259" y="82" type="line"/>
      <point x="259" y="-5" type="line"/>
      <point x="17" y="-5" type="line"/>
    </contour>
  </outline>
</glyph>
<glyph name="three" format="1">
  <advance width="301"/>
  <unicode hex="0033"/>
  <outline>
    <contour>
      <point x="259" y="99" type="qcurve" name="hr00"/>
      <point x="259" y="87"/>
      <point x="252" y="66"/>
      <point x="247" y="55" type="qcurve"/>
      <point x="239" y="36"/>
      <point x="216" y="22" type="qcurve"/>
      <point x="201" y="7"/>
      <point x="176" y="0" type="qcurve"/>
      <point x="163" y="-4"/>
      <point x="138" y="-9"/>
      <point x="123" y="-9" type="qcurve"/>
      <point x="97" y="-9"/>
      <point x="77" y="-2" type="qcurve"/>
      <point x="55" y="5"/>
      <point x="43" y="14" type="qcurve"/>
      <point x="30" y="21"/>
      <point x="21" y="35" type="qcurve"/>
      <point x="18" y="39"/>
      <point x="17" y="48"/>
      <point x="17" y="53" type="qcurve"/>
      <point x="17" y="65" type="line"/>
      <point x="21" y="69"/>
      <point x="24" y="74" type="qcurve"/>
      <point x="26" y="75"/>
      <point x="30" y="75"/>
      <point x="33" y="78" type="qcurve"/>
      <point x="36" y="81"/>
      <point x="43" y="81"/>
      <point x="47" y="81" type="qcurve"/>
      <point x="56" y="81" type="line"/>
      <point x="58" y="81"/>
      <point x="64" y="78"/>
      <point x="66" y="75" type="qcurve"/>
      <point x="79" y="32" type="line"/>
      <point x="84" y="29"/>
      <point x="96" y="25"/>
      <point x="103" y="21" type="qcurve"/>
      <point x="108" y="18"/>
      <point x="118" y="16"/>
      <point x="125" y="16" type="qcurve"/>
      <point x="134" y="16"/>
      <point x="151" y="21"/>
      <point x="160" y="26" type="qcurve"/>
      <point x="171" y="31"/>
      <point x="184" y="41" type="qcurve"/>
      <point x="191" y="48"/>
      <point x="198" y="61"/>
      <point x="202" y="69" type="qcurve"/>
      <point x="205" y="75"/>
      <point x="206" y="90"/>
      <point x="206" y="99" type="qcurve"/>
      <point x="206" y="118"/>
      <point x="198" y="132" type="qcurve"/>
      <point x="192" y="142"/>
      <point x="180" y="150" type="qcurve"/>
      <point x="171" y="158"/>
      <point x="156" y="161" type="qcurve"/>
      <point x="149" y="163"/>
      <point x="135" y="164"/>
      <point x="127" y="164" type="qcurve"/>
      <point x="116" y="164" type="line"/>
      <point x="106" y="164" type="line"/>
      <point x="103" y="164"/>
      <point x="99" y="161"/>
      <point x="97" y="161" type="qcurve"/>
      <point x="97" y="194" type="line"/>
      <point x="103" y="194" type="line"/>
      <point x="109" y="194" type="line"/>
      <point x="118" y="194"/>
      <point x="134" y="195"/>
      <point x="141" y="198" type="qcurve"/>
      <point x="155" y="202"/>
      <point x="169" y="210" type="qcurve"/>
      <point x="180" y="217"/>
      <point x="187" y="231" type="qcurve"/>
      <point x="192" y="237"/>
      <point x="193" y="251"/>
      <point x="193" y="259" type="qcurve"/>
      <point x="193" y="267"/>
      <point x="192" y="283"/>
      <point x="187" y="288" type="qcurve"/>
      <point x="180" y="302"/>
      <point x="175" y="309" type="qcurve"/>
      <point x="162" y="320"/>
      <point x="151" y="322" type="qcurve"/>
      <point x="143" y="327"/>
      <point x="133" y="328"/>
      <point x="125" y="328" type="qcurve"/>
      <point x="120" y="328"/>
      <point x="110" y="328"/>
      <point x="106" y="326" type="qcurve"/>
      <point x="99" y="326"/>
      <point x="90" y="321" type="qcurve"/>
      <point x="87" y="319"/>
      <point x="81" y="315"/>
      <point x="79" y="314" type="qcurve"/>
      <point x="79" y="260" type="line"/>
      <point x="77" y="260"/>
      <point x="72" y="255"/>
      <point x="69" y="252" type="qcurve"/>
      <point x="66" y="250"/>
      <point x="60" y="253"/>
      <point x="56" y="253" type="qcurve"/>
      <point x="52" y="253"/>
      <point x="49" y="256"/>
      <point x="45" y="256" type="qcurve"/>
      <point x="43" y="259"/>
      <point x="37" y="259"/>
      <point x="36" y="261" type="qcurve"/>
      <point x="34" y="262"/>
      <point x="31" y="267"/>
      <point x="29" y="269" type="qcurve"/>
      <point x="27" y="275"/>
      <point x="27" y="284" type="qcurve"/>
      <point x="27" y="297"/>
      <point x="33" y="312" type="qcurve"/>
      <point x="37" y="319"/>
      <point x="51" y="329"/>
      <point x="58" y="334" type="qcurve"/>
      <point x="66" y="339"/>
      <point x="85" y="349"/>
      <point x="96" y="351" type="qcurve"/>
      <point x="106" y="354"/>
      <point x="126" y="357"/>
      <point x="139" y="357" type="qcurve"/>
      <point x="150" y="357"/>
      <point x="170" y="354"/>
      <point x="180" y="351" type="qcurve"/>
      <point x="192" y="347"/>
      <point x="208" y="339"/>
      <point x="215" y="333" type="qcurve"/>
      <point x="228" y="322"/>
      <point x="239" y="304" type="qcurve"/>
      <point x="245" y="287"/>
      <point x="245" y="267" type="qcurve"/>
      <point x="245" y="238"/>
      <point x="227" y="216" type="qcurve"/>
      <point x="205" y="195"/>
      <point x="168" y="185" type="qcurve"/>
      <point x="175" y="184"/>
      <point x="191" y="179"/>
      <point x="198" y="177" type="qcurve"/>
      <point x="215" y="171"/>
      <point x="229" y="161" type="qcurve"/>
      <point x="237" y="156"/>
      <point x="246" y="143"/>
      <point x="250" y="136" type="qcurve"/>
      <point x="255" y="127"/>
      <point x="259" y="110"/>
    </contour>
  </outline>
</glyph>
<glyph name="four" format="1">
  <advance width="299"/>
  <unicode hex="0034"/>
  <outline>
    <contour>
      <point x="54" y="139" type="line" name="hr00"/>
      <point x="169" y="139" type="line"/>
      <point x="169" y="291" type="line"/>
    </contour>
    <contour>
      <point x="216" y="-9" type="line"/>
      <point x="169" y="-9" type="line"/>
      <point x="169" y="104" type="line"/>
      <point x="13" y="104" type="line"/>
      <point x="13" y="139" type="line"/>
      <point x="184" y="357" type="line"/>
      <point x="216" y="357" type="line"/>
      <point x="216" y="139" type="line"/>
      <point x="264" y="139" type="line"/>
      <point x="264" y="104" type="line"/>
      <point x="216" y="104" type="line"/>
    </contour>
  </outline>
</glyph>
<glyph name="five" format="1">
  <advance width="301"/>
  <unicode hex="0035"/>
  <outline>
    <contour>
      <point x="259" y="108" type="line" name="hr00"/>
      <point x="259" y="93"/>
      <point x="255" y="70"/>
      <point x="250" y="59" type="qcurve"/>
      <point x="245" y="47"/>
      <point x="230" y="29"/>
      <point x="223" y="22" type="qcurve"/>
      <point x="211" y="12"/>
      <point x="191" y="0"/>
      <point x="176" y="-4" type="qcurve"/>
      <point x="162" y="-9"/>
      <point x="132" y="-13"/>
      <point x="114" y="-13" type="qcurve"/>
      <point x="103" y="-13"/>
      <point x="83" y="-12"/>
      <point x="74" y="-9" type="qcurve"/>
      <point x="67" y="-5"/>
      <point x="49" y="2"/>
      <point x="43" y="5" type="qcurve"/>
      <point x="36" y="11"/>
      <point x="27" y="21"/>
      <point x="21" y="26" type="qcurve"/>
      <point x="14" y="39"/>
      <point x="14" y="47" type="qcurve"/>
      <point x="14" y="59"/>
      <point x="24" y="71" type="qcurve"/>
      <point x="36" y="77"/>
      <point x="47" y="77" type="qcurve"/>
      <point x="56" y="77" type="line"/>
      <point x="59" y="77"/>
      <point x="59" y="74"/>
      <point x="61" y="74" type="qcurve"/>
      <point x="82" y="28" type="line"/>
      <point x="88" y="22" type="line"/>
      <point x="93" y="22"/>
      <point x="97" y="19"/>
      <point x="101" y="18" type="qcurve"/>
      <point x="103" y="18"/>
      <point x="108" y="14"/>
      <point x="112" y="14" type="qcurve"/>
      <point x="114" y="12"/>
      <point x="119" y="12"/>
      <point x="121" y="12" type="qcurve"/>
      <point x="132" y="12"/>
      <point x="150" y="18"/>
      <point x="157" y="22" type="qcurve"/>
      <point x="171" y="28"/>
      <point x="184" y="41" type="qcurve"/>
      <point x="191" y="47"/>
      <point x="199" y="59"/>
      <point x="202" y="68" type="qcurve"/>
      <point x="205" y="76"/>
      <point x="206" y="89"/>
      <point x="206" y="95" type="qcurve"/>
      <point x="206" y="107"/>
      <point x="205" y="126"/>
      <point x="202" y="132" type="qcurve"/>
      <point x="197" y="141"/>
      <point x="187" y="155"/>
      <point x="180" y="161" type="qcurve"/>
      <point x="171" y="169"/>
      <point x="153" y="176" type="qcurve"/>
      <point x="144" y="180"/>
      <point x="126" y="181"/>
      <point x="119" y="181" type="qcurve"/>
      <point x="112" y="181"/>
      <point x="98" y="181"/>
      <point x="90" y="180" type="qcurve"/>
      <point x="84" y="177"/>
      <point x="71" y="173"/>
      <point x="64" y="172" type="qcurve"/>
      <point x="56" y="169"/>
      <point x="43" y="167"/>
      <point x="36" y="165" type="qcurve"/>
      <point x="36" y="345" type="line"/>
      <point x="236" y="345" type="line"/>
      <point x="236" y="300" type="line"/>
      <point x="72" y="300" type="line"/>
      <point x="72" y="202" type="line"/>
      <point x="73" y="202" type="line"/>
      <point x="74" y="202"/>
      <point x="79" y="203" type="qcurve"/>
      <point x="83" y="205"/>
      <point x="90" y="206"/>
      <point x="96" y="209" type="qcurve"/>
      <point x="99" y="209"/>
      <point x="111" y="211"/>
      <point x="116" y="213" type="qcurve"/>
      <point x="123" y="213"/>
      <point x="136" y="216"/>
      <point x="141" y="216" type="qcurve"/>
      <point x="156" y="216"/>
      <point x="180" y="212"/>
      <point x="193" y="209" type="qcurve"/>
      <point x="214" y="200"/>
      <point x="227" y="188" type="qcurve"/>
      <point x="236" y="181"/>
      <point x="246" y="163"/>
      <point x="250" y="153" type="qcurve"/>
      <point x="255" y="143"/>
      <point x="259" y="121"/>
      <point x="259" y="109" type="qcurve"/>
    </contour>
  </outline>
</glyph>
<glyph name="six" format="1">
  <advance width="298"/>
  <unicode hex="0036"/>
  <outline>
    <contour>
      <point x="208" y="108" type="qcurve" name="hr00"/>
      <point x="208" y="117"/>
      <point x="207" y="135"/>
      <point x="205" y="142" type="qcurve"/>
      <point x="201" y="155"/>
      <point x="190" y="167" type="qcurve"/>
      <point x="185" y="172"/>
      <point x="175" y="181"/>
      <point x="168" y="183" type="qcurve"/>
      <point x="160" y="187"/>
      <point x="146" y="188"/>
      <point x="134" y="188" type="qcurve"/>
      <point x="119" y="188" type="line"/>
      <point x="108" y="183"/>
      <point x="101" y="181" type="qcurve"/>
      <point x="96" y="181"/>
      <point x="87" y="175"/>
      <point x="84" y="173" type="qcurve"/>
      <point x="79" y="172"/>
      <point x="72" y="166"/>
      <point x="67" y="162" type="qcurve"/>
      <point x="66" y="157"/>
      <point x="66" y="146" type="qcurve"/>
      <point x="66" y="135" type="line"/>
      <point x="66" y="120"/>
      <point x="67" y="97"/>
      <point x="69" y="86" type="qcurve"/>
      <point x="72" y="76"/>
      <point x="79" y="56"/>
      <point x="84" y="47" type="qcurve"/>
      <point x="87" y="40"/>
      <point x="97" y="29"/>
      <point x="104" y="24" type="qcurve"/>
      <point x="117" y="14"/>
      <point x="138" y="14" type="qcurve"/>
      <point x="156" y="14"/>
      <point x="169" y="22" type="qcurve"/>
      <point x="181" y="27"/>
      <point x="193" y="42" type="qcurve"/>
      <point x="200" y="55"/>
      <point x="206" y="71" type="qcurve"/>
      <point x="208" y="80"/>
      <point x="208" y="99"/>
    </contour>
    <contour>
      <point x="261" y="114" type="qcurve"/>
      <point x="261" y="88"/>
      <point x="251" y="63" type="qcurve"/>
      <point x="245" y="50"/>
      <point x="232" y="30"/>
      <point x="224" y="22" type="qcurve"/>
      <point x="206" y="6"/>
      <point x="184" y="-4" type="qcurve"/>
      <point x="172" y="-9"/>
      <point x="149" y="-13"/>
      <point x="134" y="-13" type="qcurve"/>
      <point x="120" y="-13"/>
      <point x="97" y="-9"/>
      <point x="86" y="-4" type="qcurve"/>
      <point x="73" y="2"/>
      <point x="55" y="16"/>
      <point x="47" y="24" type="qcurve"/>
      <point x="31" y="41"/>
      <point x="19" y="71" type="qcurve"/>
      <point x="15" y="87"/>
      <point x="10" y="123"/>
      <point x="10" y="146" type="qcurve"/>
      <point x="10" y="191"/>
      <point x="24" y="228" type="qcurve"/>
      <point x="36" y="267"/>
      <point x="66" y="295" type="qcurve"/>
      <point x="80" y="310"/>
      <point x="111" y="330"/>
      <point x="131" y="338" type="qcurve"/>
      <point x="168" y="351"/>
      <point x="217" y="351" type="qcurve"/>
      <point x="217" y="322" type="line"/>
      <point x="202" y="322" type="line"/>
      <point x="187" y="322"/>
      <point x="165" y="317"/>
      <point x="153" y="311" type="qcurve"/>
      <point x="132" y="306"/>
      <point x="114" y="287" type="qcurve"/>
      <point x="103" y="278"/>
      <point x="90" y="257"/>
      <point x="84" y="245" type="qcurve"/>
      <point x="71" y="221"/>
      <point x="67" y="190" type="qcurve"/>
      <point x="79" y="198"/>
      <point x="98" y="211"/>
      <point x="110" y="216" type="qcurve"/>
      <point x="133" y="221"/>
      <point x="153" y="221" type="qcurve"/>
      <point x="165" y="221"/>
      <point x="188" y="218"/>
      <point x="199" y="212" type="qcurve"/>
      <point x="216" y="207"/>
      <point x="235" y="191" type="qcurve"/>
      <point x="241" y="184"/>
      <point x="252" y="168"/>
      <point x="254" y="157" type="qcurve"/>
      <point x="261" y="138"/>
    </contour>
  </outline>
</glyph>
<glyph name="seven" format="1">
  <advance width="293"/>
  <unicode hex="0037"/>
  <outline>
    <contour>
      <point x="94" y="-11" type="line" name="hr00"/>
      <point x="36" y="-11" type="line"/>
      <point x="208" y="303" type="line"/>
      <point x="49" y="303" type="line"/>
      <point x="39" y="254" type="line"/>
      <point x="13" y="254" type="line"/>
      <point x="13" y="347" type="line"/>
      <point x="261" y="347" type="line"/>
      <point x="261" y="316" type="line"/>
      <point x="94" y="7" type="line"/>
    </contour>
  </outline>
</glyph>
<glyph name="eight" format="1">
  <advance width="291"/>
  <unicode hex="0038"/>
  <outline>
    <contour>
      <point x="208" y="84" type="qcurve"/>
      <point x="208" y="93"/>
      <point x="207" y="106"/>
      <point x="202" y="112" type="qcurve"/>
      <point x="197" y="123"/>
      <point x="184" y="133" type="qcurve"/>
      <point x="176" y="138"/>
      <point x="158" y="147"/>
      <point x="151" y="149" type="qcurve"/>
      <point x="140" y="154"/>
      <point x="119" y="163"/>
      <point x="106" y="168" type="qcurve"/>
      <point x="102" y="165"/>
      <point x="92" y="158"/>
      <point x="88" y="156" type="qcurve"/>
      <point x="85" y="152"/>
      <point x="79" y="147"/>
      <point x="74" y="141" type="qcurve"/>
      <point x="71" y="136"/>
      <point x="67" y="127"/>
      <point x="64" y="121" type="qcurve"/>
      <point x="61" y="116"/>
      <point x="61" y="103"/>
      <point x="61" y="96" type="qcurve" name="hr01"/>
      <point x="61" y="87"/>
      <point x="61" y="74"/>
      <point x="66" y="66" type="qcurve"/>
      <point x="67" y="59"/>
      <point x="76" y="45"/>
      <point x="79" y="41" type="qcurve"/>
      <point x="84" y="35"/>
      <point x="97" y="28"/>
      <point x="104" y="25" type="qcurve"/>
      <point x="120" y="21"/>
      <point x="138" y="21" type="qcurve"/>
      <point x="145" y="21"/>
      <point x="160" y="21"/>
      <point x="168" y="25" type="qcurve"/>
      <point x="175" y="27"/>
      <point x="185" y="35"/>
      <point x="190" y="39" type="qcurve"/>
      <point x="201" y="50"/>
      <point x="205" y="59" type="qcurve"/>
      <point x="207" y="66"/>
      <point x="208" y="77"/>
    </contour>
    <contour>
      <point x="201" y="261" type="line"/>
      <point x="201" y="270"/>
      <point x="200" y="285"/>
      <point x="196" y="290" type="qcurve"/>
      <point x="193" y="304"/>
      <point x="182" y="313" type="qcurve"/>
      <point x="175" y="318"/>
      <point x="160" y="325" type="qcurve"/>
      <point x="155" y="327"/>
      <point x="144" y="327"/>
      <point x="138" y="327" type="qcurve"/>
      <point x="131" y="327"/>
      <point x="117" y="326"/>
      <point x="112" y="322" type="qcurve"/>
      <point x="106" y="321"/>
      <point x="98" y="314"/>
      <point x="94" y="311" type="qcurve"/>
      <point x="89" y="306"/>
      <point x="84" y="297"/>
      <point x="82" y="292" type="qcurve"/>
      <point x="77" y="277"/>
      <point x="77" y="269" type="qcurve"/>
      <point x="77" y="254"/>
      <point x="84" y="243" type="qcurve"/>
      <point x="86" y="238"/>
      <point x="96" y="229"/>
      <point x="101" y="224" type="qcurve"/>
      <point x="105" y="218"/>
      <point x="118" y="210"/>
      <point x="125" y="206" type="qcurve"/>
      <point x="134" y="201"/>
      <point x="151" y="194"/>
      <point x="162" y="191" type="qcurve"/>
      <point x="166" y="194"/>
      <point x="175" y="201"/>
      <point x="176" y="205" type="qcurve"/>
      <point x="180" y="208"/>
      <point x="187" y="216"/>
      <point x="190" y="221" type="qcurve"/>
      <point x="192" y="224"/>
      <point x="194" y="235"/>
      <point x="197" y="239" type="qcurve"/>
      <point x="198" y="244"/>
      <point x="202" y="255"/>
      <point x="202" y="260" type="qcurve" name="hr02"/>
    </contour>
    <contour>
      <point x="261" y="92" type="qcurve"/>
      <point x="261" y="80"/>
      <point x="258" y="59"/>
      <point x="253" y="50" type="qcurve"/>
      <point x="247" y="39"/>
      <point x="235" y="23"/>
      <point x="227" y="15" type="qcurve"/>
      <point x="218" y="11"/>
      <point x="198" y="-2"/>
      <point x="186" y="-6" type="qcurve"/>
      <point x="163" y="-12"/>
      <point x="138" y="-12" type="qcurve"/>
      <point x="121" y="-12"/>
      <point x="97" y="-9"/>
      <point x="84" y="-6" type="qcurve"/>
      <point x="72" y="-2"/>
      <point x="53" y="11"/>
      <point x="45" y="15" type="qcurve"/>
      <point x="36" y="23"/>
      <point x="25" y="39"/>
      <point x="19" y="50" type="qcurve"/>
      <point x="13" y="67"/>
      <point x="13" y="89" type="qcurve"/>
      <point x="13" y="105"/>
      <point x="17" y="121" type="qcurve"/>
      <point x="23" y="133"/>
      <point x="33" y="146" type="qcurve"/>
      <point x="39" y="150"/>
      <point x="51" y="158"/>
      <point x="59" y="164" type="qcurve"/>
      <point x="66" y="166"/>
      <point x="79" y="172"/>
      <point x="86" y="175" type="qcurve"/>
      <point x="81" y="177"/>
      <point x="71" y="185"/>
      <point x="66" y="188" type="qcurve"/>
      <point x="61" y="190"/>
      <point x="49" y="200"/>
      <point x="45" y="205" type="qcurve"/>
      <point x="42" y="209"/>
      <point x="33" y="221"/>
      <point x="31" y="228" type="qcurve"/>
      <point x="28" y="233"/>
      <point x="27" y="246"/>
      <point x="27" y="255" type="qcurve"/>
      <point x="27" y="277"/>
      <point x="33" y="295" type="qcurve"/>
      <point x="37" y="305"/>
      <point x="49" y="319"/>
      <point x="56" y="327" type="qcurve"/>
      <point x="64" y="332"/>
      <point x="80" y="343"/>
      <point x="90" y="345" type="qcurve"/>
      <point x="102" y="349"/>
      <point x="125" y="351"/>
      <point x="138" y="351" type="qcurve"/>
      <point x="162" y="351"/>
      <point x="180" y="345" type="qcurve"/>
      <point x="192" y="343"/>
      <point x="208" y="332"/>
      <point x="215" y="327" type="qcurve"/>
      <point x="230" y="314"/>
      <point x="239" y="298" type="qcurve"/>
      <point x="247" y="281"/>
      <point x="247" y="265" type="qcurve"/>
      <point x="247" y="246"/>
      <point x="241" y="235" type="qcurve"/>
      <point x="237" y="227"/>
      <point x="230" y="215"/>
      <point x="227" y="209" type="qcurve"/>
      <point x="222" y="206"/>
      <point x="211" y="195"/>
      <point x="206" y="193" type="qcurve"/>
      <point x="201" y="188"/>
      <point x="191" y="183"/>
      <point x="184" y="179" type="qcurve"/>
      <point x="191" y="176"/>
      <point x="205" y="172"/>
      <point x="211" y="168" type="qcurve"/>
      <point x="218" y="165"/>
      <point x="229" y="156"/>
      <point x="236" y="151" type="qcurve"/>
      <point x="247" y="140"/>
      <point x="254" y="127" type="qcurve"/>
      <point x="261" y="113"/>
    </contour>
  </outline>
</glyph>
<glyph name="nine" format="1">
  <advance width="303"/>
  <unicode hex="0039"/>
  <outline>
    <contour>
      <point x="208" y="206" type="line" name="hr00"/>
      <point x="208" y="218"/>
      <point x="207" y="242"/>
      <point x="205" y="255" type="qcurve"/>
      <point x="202" y="264"/>
      <point x="195" y="283"/>
      <point x="193" y="292" type="qcurve"/>
      <point x="187" y="299"/>
      <point x="176" y="311"/>
      <point x="169" y="317" type="qcurve"/>
      <point x="155" y="326"/>
      <point x="138" y="326" type="qcurve"/>
      <point x="121" y="326"/>
      <point x="104" y="318" type="qcurve"/>
      <point x="89" y="311"/>
      <point x="84" y="299" type="qcurve"/>
      <point x="79" y="292"/>
      <point x="72" y="277"/>
      <point x="67" y="269" type="qcurve"/>
      <point x="66" y="259"/>
      <point x="66" y="242"/>
      <point x="66" y="232" type="qcurve"/>
      <point x="66" y="222"/>
      <point x="67" y="205"/>
      <point x="69" y="198" type="qcurve"/>
      <point x="73" y="185"/>
      <point x="84" y="172" type="qcurve"/>
      <point x="89" y="167"/>
      <point x="99" y="159"/>
      <point x="106" y="155" type="qcurve"/>
      <point x="114" y="153"/>
      <point x="127" y="151"/>
      <point x="138" y="151" type="qcurve"/>
      <point x="142" y="151"/>
      <point x="151" y="153"/>
      <point x="156" y="153" type="qcurve"/>
      <point x="161" y="155"/>
      <point x="169" y="155"/>
      <point x="175" y="157" type="qcurve"/>
      <point x="179" y="159"/>
      <point x="187" y="165"/>
      <point x="193" y="167" type="qcurve"/>
      <point x="195" y="170"/>
      <point x="205" y="174"/>
      <point x="208" y="180" type="qcurve"/>
      <point x="208" y="191" type="line"/>
    </contour>
    <contour>
      <point x="264" y="194" type="qcurve"/>
      <point x="264" y="146"/>
      <point x="250" y="109" type="qcurve"/>
      <point x="243" y="89"/>
      <point x="223" y="59"/>
      <point x="208" y="44" type="qcurve"/>
      <point x="182" y="18"/>
      <point x="141" y="0" type="qcurve"/>
      <point x="104" y="-13"/>
      <point x="54" y="-13" type="qcurve"/>
      <point x="54" y="18" type="line"/>
      <point x="72" y="17" type="line"/>
      <point x="84" y="17"/>
      <point x="108" y="23"/>
      <point x="119" y="26" type="qcurve"/>
      <point x="141" y="33"/>
      <point x="160" y="51" type="qcurve"/>
      <point x="169" y="60"/>
      <point x="185" y="81"/>
      <point x="190" y="93" type="qcurve"/>
      <point x="197" y="105"/>
      <point x="205" y="133"/>
      <point x="206" y="148" type="qcurve"/>
      <point x="201" y="145"/>
      <point x="191" y="137"/>
      <point x="186" y="135" type="qcurve"/>
      <point x="178" y="131"/>
      <point x="168" y="126"/>
      <point x="162" y="123" type="qcurve"/>
      <point x="157" y="121"/>
      <point x="146" y="120"/>
      <point x="141" y="118" type="qcurve"/>
      <point x="136" y="118"/>
      <point x="126" y="116"/>
      <point x="119" y="116" type="qcurve"/>
      <point x="106" y="116"/>
      <point x="85" y="121"/>
      <point x="74" y="126" type="qcurve"/>
      <point x="67" y="129"/>
      <point x="47" y="140"/>
      <point x="43" y="146" type="qcurve"/>
      <point x="35" y="154"/>
      <point x="25" y="173"/>
      <point x="19" y="181" type="qcurve"/>
      <point x="13" y="199"/>
      <point x="13" y="225" type="qcurve"/>
      <point x="13" y="239"/>
      <point x="16" y="265"/>
      <point x="21" y="277" type="qcurve"/>
      <point x="31" y="299"/>
      <point x="49" y="317" type="qcurve"/>
      <point x="67" y="335"/>
      <point x="88" y="342" type="qcurve"/>
      <point x="101" y="347"/>
      <point x="125" y="351"/>
      <point x="138" y="351" type="qcurve"/>
      <point x="162" y="351"/>
      <point x="187" y="345" type="qcurve"/>
      <point x="210" y="333"/>
      <point x="227" y="317" type="qcurve"/>
      <point x="246" y="293"/>
      <point x="252" y="269" type="qcurve"/>
      <point x="264" y="236"/>
    </contour>
  </outline>
</glyph>
<glyph name="colon" format="1">
  <advance width="147"/>
  <unicode hex="003A"/>
  <outline>
    <contour>
      <point x="96" y="26" type="qcurve"/>
      <point x="96" y="17"/>
      <point x="93" y="13" type="qcurve"/>
      <point x="92" y="9"/>
      <point x="88" y="6"/>
      <point x="85" y="2" type="qcurve"/>
      <point x="83" y="0"/>
      <point x="77" y="-3"/>
      <point x="73" y="-5" type="qcurve"/>
      <point x="71" y="-7"/>
      <point x="65" y="-7"/>
      <point x="63" y="-7" type="qcurve" name="hr01"/>
      <point x="52" y="-7"/>
      <point x="48" y="-5" type="qcurve" name="hr02"/>
      <point x="45" y="-3"/>
      <point x="41" y="0"/>
      <point x="39" y="2" type="qcurve"/>
      <point x="33" y="8"/>
      <point x="33" y="13" type="qcurve"/>
      <point x="31" y="16"/>
      <point x="30" y="22"/>
      <point x="30" y="26" type="qcurve"/>
      <point x="30" y="35"/>
      <point x="33" y="39" type="qcurve"/>
      <point x="33" y="42"/>
      <point x="37" y="48"/>
      <point x="39" y="50" type="qcurve"/>
      <point x="42" y="54"/>
      <point x="50" y="56" type="qcurve"/>
      <point x="54" y="59"/>
      <point x="63" y="59" type="qcurve"/>
      <point x="67" y="59"/>
      <point x="72" y="58"/>
      <point x="76" y="56" type="qcurve"/>
      <point x="79" y="54"/>
      <point x="87" y="50" type="qcurve"/>
      <point x="89" y="48"/>
      <point x="92" y="42"/>
      <point x="93" y="39" type="qcurve"/>
      <point x="96" y="35"/>
    </contour>
    <contour>
      <point x="96" y="209" type="qcurve"/>
      <point x="96" y="199"/>
      <point x="93" y="195" type="qcurve"/>
      <point x="93" y="192"/>
      <point x="87" y="187"/>
      <point x="85" y="184" type="qcurve"/>
      <point x="83" y="182"/>
      <point x="77" y="180"/>
      <point x="73" y="178" type="qcurve"/>
      <point x="65" y="174"/>
      <point x="61" y="174" type="qcurve"/>
      <point x="57" y="174"/>
      <point x="51" y="176"/>
      <point x="48" y="178" type="qcurve"/>
      <point x="45" y="180"/>
      <point x="41" y="182"/>
      <point x="39" y="184" type="qcurve"/>
      <point x="33" y="188"/>
      <point x="33" y="195" type="qcurve"/>
      <point x="28" y="203"/>
      <point x="28" y="209" type="qcurve"/>
      <point x="28" y="215"/>
      <point x="33" y="222" type="qcurve"/>
      <point x="33" y="227"/>
      <point x="39" y="230" type="qcurve"/>
      <point x="41" y="234"/>
      <point x="45" y="237"/>
      <point x="48" y="239" type="qcurve"/>
      <point x="51" y="239"/>
      <point x="58" y="241"/>
      <point x="63" y="241" type="qcurve"/>
      <point x="65" y="241"/>
      <point x="71" y="239"/>
      <point x="73" y="239" type="qcurve"/>
      <point x="82" y="236"/>
      <point x="85" y="230" type="qcurve"/>
      <point x="90" y="227"/>
      <point x="93" y="222" type="qcurve"/>
      <point x="96" y="218"/>
      <point x="96" y="212"/>
    </contour>
  </outline>
</glyph>
<glyph name="semicolon" format="1">
  <advance width="166"/>
  <unicode hex="003B"/>
  <outline>
    <contour>
      <point x="103" y="4" type="qcurve"/>
      <point x="103" y="-6"/>
      <point x="99" y="-22"/>
      <point x="96" y="-31" type="qcurve"/>
      <point x="91" y="-37"/>
      <point x="82" y="-52"/>
      <point x="76" y="-57" type="qcurve"/>
      <point x="64" y="-70"/>
      <point x="48" y="-77" type="qcurve"/>
      <point x="34" y="-82"/>
      <point x="15" y="-85" type="qcurve" name="hr01"/>
      <point x="15" y="-68" type="line" name="hr02"/>
      <point x="31" y="-65"/>
      <point x="39" y="-59" type="qcurve"/>
      <point x="43" y="-55"/>
      <point x="54" y="-49"/>
      <point x="56" y="-45" type="qcurve"/>
      <point x="60" y="-41"/>
      <point x="64" y="-31"/>
      <point x="68" y="-26" type="qcurve"/>
      <point x="70" y="-20"/>
      <point x="70" y="-6"/>
      <point x="70" y="2" type="qcurve"/>
      <point x="39" y="2" type="line"/>
      <point x="39" y="3" type="line"/>
      <point x="39" y="3"/>
      <point x="37" y="4" type="qcurve"/>
      <point x="37" y="5"/>
      <point x="36" y="7"/>
      <point x="36" y="8" type="qcurve"/>
      <point x="35" y="8" type="line"/>
      <point x="33" y="10"/>
      <point x="33" y="13" type="qcurve"/>
      <point x="33" y="15" type="line"/>
      <point x="30" y="20"/>
      <point x="30" y="26" type="qcurve"/>
      <point x="30" y="29"/>
      <point x="33" y="36"/>
      <point x="33" y="39" type="qcurve"/>
      <point x="35" y="41"/>
      <point x="37" y="45"/>
      <point x="39" y="48" type="qcurve"/>
      <point x="41" y="51"/>
      <point x="45" y="54"/>
      <point x="48" y="56" type="qcurve"/>
      <point x="51" y="58"/>
      <point x="56" y="59"/>
      <point x="61" y="59" type="qcurve"/>
      <point x="65" y="59"/>
      <point x="75" y="58"/>
      <point x="78" y="54" type="qcurve"/>
      <point x="82" y="52"/>
      <point x="88" y="47"/>
      <point x="91" y="43" type="qcurve"/>
      <point x="95" y="40"/>
      <point x="96" y="31"/>
      <point x="98" y="26" type="qcurve"/>
      <point x="99" y="21"/>
      <point x="103" y="11"/>
    </contour>
    <contour>
      <point x="96" y="207" type="qcurve"/>
      <point x="96" y="198"/>
      <point x="93" y="195" type="qcurve"/>
      <point x="90" y="188"/>
      <point x="87" y="184" type="qcurve"/>
      <point x="78" y="178"/>
      <point x="76" y="178" type="qcurve"/>
      <point x="72" y="176"/>
      <point x="67" y="174"/>
      <point x="63" y="174" type="qcurve"/>
      <point x="58" y="174"/>
      <point x="50" y="178" type="qcurve"/>
      <point x="47" y="178"/>
      <point x="42" y="182"/>
      <point x="39" y="184" type="qcurve"/>
      <point x="37" y="187"/>
      <point x="35" y="192"/>
      <point x="33" y="195" type="qcurve"/>
      <point x="31" y="197"/>
      <point x="30" y="205"/>
      <point x="30" y="207" type="qcurve"/>
      <point x="30" y="218"/>
      <point x="33" y="222" type="qcurve"/>
      <point x="35" y="224"/>
      <point x="37" y="229"/>
      <point x="39" y="230" type="qcurve"/>
      <point x="45" y="237"/>
      <point x="50" y="237" type="qcurve"/>
      <point x="54" y="239"/>
      <point x="60" y="241"/>
      <point x="63" y="241" type="qcurve"/>
      <point x="67" y="241"/>
      <point x="72" y="239"/>
      <point x="76" y="237" type="qcurve"/>
      <point x="84" y="237"/>
      <point x="87" y="230" type="qcurve"/>
      <point x="89" y="229"/>
      <point x="92" y="224"/>
      <point x="93" y="222" type="qcurve"/>
      <point x="96" y="218"/>
    </contour>
  </outline>
</glyph>
<glyph name="less" format="1">
  <advance width="539"/>
  <unicode hex="003C"/>
  <outline>
    <contour>
      <point x="98" y="161" type="line" name="hr00"/>
      <point x="392" y="274" type="line"/>
      <point x="392" y="244" type="line"/>
      <point x="128" y="146" type="line"/>
      <point x="392" y="50" type="line"/>
      <point x="392" y="20" type="line"/>
      <point x="98" y="133" type="line"/>
    </contour>
  </outline>
</glyph>
<glyph name="equal" format="1">
  <advance width="571"/>
  <unicode hex="003D"/>
  <outline>
    <contour>
      <point x="98" y="117" type="line" name="hr00"/>
      <point x="392" y="117" type="line"/>
      <point x="392" y="87" type="line"/>
      <point x="98" y="87" type="line"/>
    </contour>
    <contour>
      <point x="98" y="207" type="line"/>
      <point x="392" y="207" type="line"/>
      <point x="392" y="176" type="line"/>
      <point x="98" y="176" type="line"/>
    </contour>
  </outline>
</glyph>
<glyph name="greater" format="1">
  <advance width="561"/>
  <unicode hex="003E"/>
  <outline>
    <contour>
      <point x="98" y="50" type="line" name="hr00"/>
      <point x="360" y="146" type="line"/>
      <point x="98" y="244" type="line"/>
      <point x="98" y="274" type="line"/>
      <point x="392" y="161" type="line"/>
      <point x="392" y="133" type="line"/>
      <point x="98" y="20" type="line"/>
    </contour>
  </outline>
</glyph>
<glyph name="question" format="1">
  <advance width="299"/>
  <unicode hex="003F"/>
  <outline>
    <contour>
      <point x="202" y="246" type="line" name="hr00"/>
      <point x="202" y="239"/>
      <point x="201" y="226"/>
      <point x="198" y="219" type="qcurve"/>
      <point x="194" y="205"/>
      <point x="187" y="195" type="qcurve"/>
      <point x="184" y="190"/>
      <point x="174" y="181"/>
      <point x="169" y="176" type="qcurve"/>
      <point x="167" y="173"/>
      <point x="156" y="166"/>
      <point x="150" y="163" type="qcurve"/>
      <point x="145" y="160"/>
      <point x="135" y="154"/>
      <point x="131" y="150" type="qcurve"/>
      <point x="124" y="148"/>
      <point x="114" y="143"/>
      <point x="111" y="141" type="qcurve"/>
      <point x="111" y="87" type="line"/>
      <point x="82" y="87" type="line"/>
      <point x="82" y="159" type="line"/>
      <point x="87" y="161"/>
      <point x="99" y="167"/>
      <point x="106" y="169" type="qcurve"/>
      <point x="113" y="173"/>
      <point x="124" y="182"/>
      <point x="128" y="187" type="qcurve"/>
      <point x="135" y="191"/>
      <point x="142" y="204"/>
      <point x="146" y="211" type="qcurve"/>
      <point x="149" y="218"/>
      <point x="155" y="233"/>
      <point x="155" y="244" type="qcurve"/>
      <point x="155" y="280"/>
      <point x="134" y="294" type="qcurve"/>
      <point x="120" y="311"/>
      <point x="82" y="311" type="qcurve"/>
      <point x="63" y="261" type="line"/>
      <point x="59" y="261" type="line"/>
      <point x="56" y="261" type="line"/>
      <point x="54" y="261" type="line"/>
      <point x="48" y="261"/>
      <point x="43" y="263" type="qcurve"/>
      <point x="36" y="263"/>
      <point x="33" y="268" type="qcurve"/>
      <point x="28" y="271"/>
      <point x="26" y="276" type="qcurve"/>
      <point x="24" y="279"/>
      <point x="24" y="287" type="qcurve"/>
      <point x="24" y="295"/>
      <point x="28" y="304" type="qcurve"/>
      <point x="35" y="314"/>
      <point x="43" y="320" type="qcurve"/>
      <point x="48" y="323"/>
      <point x="59" y="329"/>
      <point x="68" y="331" type="qcurve"/>
      <point x="76" y="334"/>
      <point x="92" y="335"/>
      <point x="103" y="335" type="qcurve"/>
      <point x="113" y="335"/>
      <point x="133" y="332"/>
      <point x="141" y="331" type="qcurve"/>
      <point x="161" y="324"/>
      <point x="174" y="314" type="qcurve"/>
      <point x="181" y="307"/>
      <point x="192" y="293"/>
      <point x="195" y="286" type="qcurve"/>
      <point x="201" y="276"/>
      <point x="204" y="258"/>
      <point x="204" y="247" type="qcurve"/>
    </contour>
    <contour>
      <point x="126" y="24" type="line"/>
      <point x="126" y="15"/>
      <point x="124" y="11" type="qcurve"/>
      <point x="124" y="8"/>
      <point x="119" y="4"/>
      <point x="117" y="2" type="qcurve"/>
      <point x="115" y="0"/>
      <point x="110" y="-3"/>
      <point x="108" y="-5" type="qcurve"/>
      <point x="105" y="-7"/>
      <point x="96" y="-7" type="qcurve"/>
      <point x="93" y="-7"/>
      <point x="88" y="-7"/>
      <point x="85" y="-5" type="qcurve"/>
      <point x="83" y="-3"/>
      <point x="78" y="0"/>
      <point x="76" y="2" type="qcurve"/>
      <point x="75" y="4"/>
      <point x="71" y="8"/>
      <point x="70" y="11" type="qcurve"/>
      <point x="70" y="14"/>
      <point x="68" y="20"/>
      <point x="68" y="24" type="qcurve"/>
      <point x="68" y="27"/>
      <point x="70" y="33"/>
      <point x="70" y="35" type="qcurve"/>
      <point x="72" y="41"/>
      <point x="76" y="43" type="qcurve"/>
      <point x="78" y="47"/>
      <point x="83" y="48"/>
      <point x="85" y="50" type="qcurve"/>
      <point x="88" y="52"/>
      <point x="93" y="52"/>
      <point x="96" y="52" type="qcurve"/>
      <point x="105" y="52"/>
      <point x="108" y="50" type="qcurve"/>
      <point x="112" y="48"/>
      <point x="115" y="45"/>
      <point x="117" y="43" type="qcurve"/>
      <point x="119" y="40"/>
      <point x="124" y="36"/>
      <point x="124" y="33" type="qcurve"/>
      <point x="126" y="30"/>
      <point x="126" y="21" type="qcurve"/>
    </contour>
  </outline>
</glyph>
<glyph name="at" format="1">
  <advance width="565"/>
  <unicode hex="0040"/>
  <outline>
    <contour>
      <point x="286" y="194" type="line"/>
      <point x="286" y="201" type="line"/>
      <point x="280" y="206"/>
      <point x="279" y="211" type="qcurve"/>
      <point x="275" y="213"/>
      <point x="268" y="218" type="qcurve"/>
      <point x="262" y="222"/>
      <point x="257" y="222" type="qcurve"/>
      <point x="246" y="222"/>
      <point x="231" y="217"/>
      <point x="224" y="212" type="qcurve"/>
      <point x="208" y="205"/>
      <point x="198" y="190" type="qcurve"/>
      <point x="194" y="183"/>
      <point x="185" y="164"/>
      <point x="183" y="155" type="qcurve"/>
      <point x="178" y="144"/>
      <point x="176" y="122"/>
      <point x="176" y="113" type="qcurve"/>
      <point x="176" y="99"/>
      <point x="182" y="78"/>
      <point x="187" y="71" type="qcurve"/>
      <point x="196" y="59"/>
      <point x="216" y="59" type="qcurve"/>
      <point x="223" y="59"/>
      <point x="230" y="63" type="qcurve"/>
      <point x="241" y="65"/>
      <point x="244" y="71" type="qcurve"/>
      <point x="248" y="73"/>
      <point x="253" y="78"/>
      <point x="257" y="80" type="qcurve"/>
      <point x="263" y="87"/>
      <point x="265" y="91" type="qcurve"/>
      <point x="286" y="191" type="line"/>
    </contour>
    <contour>
      <point x="420" y="181" type="line"/>
      <point x="420" y="169"/>
      <point x="419" y="146"/>
      <point x="416" y="134" type="qcurve"/>
      <point x="412" y="125"/>
      <point x="406" y="105"/>
      <point x="402" y="98" type="qcurve"/>
      <point x="395" y="90"/>
      <point x="385" y="75"/>
      <point x="378" y="68" type="qcurve"/>
      <point x="373" y="61"/>
      <point x="362" y="50"/>
      <point x="355" y="45" type="qcurve"/>
      <point x="343" y="36"/>
      <point x="329" y="33" type="qcurve"/>
      <point x="313" y="26"/>
      <point x="303" y="26" type="qcurve"/>
      <point x="291" y="26"/>
      <point x="276" y="32"/>
      <point x="272" y="37" type="qcurve"/>
      <point x="269" y="42"/>
      <point x="263" y="57"/>
      <point x="263" y="68" type="qcurve"/>
      <point x="253" y="57"/>
      <point x="236" y="43"/>
      <point x="229" y="39" type="qcurve"/>
      <point x="218" y="34"/>
      <point x="201" y="28"/>
      <point x="194" y="28" type="qcurve"/>
      <point x="185" y="28"/>
      <point x="174" y="31"/>
      <point x="167" y="33" type="qcurve"/>
      <point x="162" y="36"/>
      <point x="154" y="45"/>
      <point x="150" y="50" type="qcurve"/>
      <point x="145" y="55"/>
      <point x="139" y="67"/>
      <point x="134" y="73" type="qcurve"/>
      <point x="133" y="82"/>
      <point x="133" y="99"/>
      <point x="133" y="108" type="qcurve"/>
      <point x="133" y="122"/>
      <point x="136" y="147"/>
      <point x="141" y="159" type="qcurve"/>
      <point x="154" y="184"/>
      <point x="169" y="202" type="qcurve"/>
      <point x="178" y="210"/>
      <point x="197" y="225"/>
      <point x="209" y="230" type="qcurve"/>
      <point x="218" y="235"/>
      <point x="241" y="241"/>
      <point x="252" y="241" type="qcurve"/>
      <point x="255" y="241"/>
      <point x="262" y="241"/>
      <point x="265" y="239" type="qcurve"/>
      <point x="269" y="239"/>
      <point x="275" y="237"/>
      <point x="279" y="237" type="qcurve"/>
      <point x="281" y="237"/>
      <point x="286" y="235"/>
      <point x="291" y="233" type="qcurve"/>
      <point x="296" y="229"/>
      <point x="303" y="229" type="qcurve" name="hr01"/>
      <point x="311" y="239" type="line"/>
      <point x="337" y="239" type="line"/>
      <point x="337" y="237"/>
      <point x="337" y="234"/>
      <point x="335" y="230" type="qcurve"/>
      <point x="335" y="227"/>
      <point x="332" y="218"/>
      <point x="331" y="212" type="qcurve"/>
      <point x="331" y="206"/>
      <point x="328" y="196"/>
      <point x="326" y="190" type="qcurve"/>
      <point x="320" y="163" type="line"/>
      <point x="316" y="147"/>
      <point x="309" y="113"/>
      <point x="304" y="93" type="qcurve"/>
      <point x="303" y="89"/>
      <point x="303" y="82"/>
      <point x="303" y="78" type="qcurve"/>
      <point x="303" y="70"/>
      <point x="304" y="65" type="qcurve"/>
      <point x="309" y="61"/>
      <point x="311" y="59" type="qcurve"/>
      <point x="314" y="57"/>
      <point x="319" y="54"/>
      <point x="324" y="54" type="qcurve"/>
      <point x="329" y="54"/>
      <point x="340" y="60"/>
      <point x="348" y="63" type="qcurve"/>
      <point x="353" y="68"/>
      <point x="365" y="82"/>
      <point x="372" y="89" type="qcurve"/>
      <point x="377" y="97"/>
      <point x="386" y="117"/>
      <point x="390" y="128" type="qcurve" name="hr02"/>
      <point x="393" y="142"/>
      <point x="399" y="168"/>
      <point x="399" y="183" type="qcurve"/>
      <point x="399" y="215"/>
      <point x="385" y="241" type="qcurve"/>
      <point x="375" y="267"/>
      <point x="355" y="286" type="qcurve"/>
      <point x="344" y="293"/>
      <point x="322" y="303"/>
      <point x="311" y="309" type="qcurve" name="hr03"/>
      <point x="297" y="314"/>
      <point x="273" y="317"/>
      <point x="261" y="317" type="qcurve" name="hr04"/>
      <point x="233" y="317"/>
      <point x="207" y="311" type="qcurve" name="hr05"/>
      <point x="181" y="303"/>
      <point x="161" y="291" type="qcurve"/>
      <point x="150" y="286"/>
      <point x="132" y="271"/>
      <point x="122" y="263" type="qcurve"/>
      <point x="114" y="255"/>
      <point x="100" y="234"/>
      <point x="93" y="224" type="qcurve"/>
      <point x="89" y="213"/>
      <point x="79" y="191"/>
      <point x="76" y="178" type="qcurve"/>
      <point x="70" y="154"/>
      <point x="70" y="126" type="qcurve"/>
      <point x="70" y="108"/>
      <point x="73" y="72"/>
      <point x="80" y="56" type="qcurve"/>
      <point x="85" y="40"/>
      <point x="103" y="12"/>
      <point x="113" y="0" type="qcurve"/>
      <point x="125" y="-12"/>
      <point x="150" y="-30"/>
      <point x="167" y="-37" type="qcurve"/>
      <point x="202" y="-50"/>
      <point x="239" y="-50" type="qcurve"/>
      <point x="251" y="-50"/>
      <point x="271" y="-48"/>
      <point x="280" y="-48" type="qcurve"/>
      <point x="288" y="-47"/>
      <point x="308" y="-42"/>
      <point x="315" y="-40" type="qcurve"/>
      <point x="323" y="-36"/>
      <point x="337" y="-30"/>
      <point x="346" y="-26" type="qcurve"/>
      <point x="359" y="-20"/>
      <point x="370" y="-14" type="qcurve"/>
      <point x="377" y="-33" type="line"/>
      <point x="368" y="-36"/>
      <point x="352" y="-44"/>
      <point x="343" y="-48" type="qcurve"/>
      <point x="334" y="-54"/>
      <point x="317" y="-60"/>
      <point x="309" y="-63" type="qcurve"/>
      <point x="299" y="-65"/>
      <point x="280" y="-70"/>
      <point x="269" y="-71" type="qcurve"/>
      <point x="259" y="-73"/>
      <point x="240" y="-75"/>
      <point x="229" y="-75" type="qcurve"/>
      <point x="215" y="-75"/>
      <point x="191" y="-71"/>
      <point x="178" y="-70" type="qcurve"/>
      <point x="164" y="-67"/>
      <point x="143" y="-57"/>
      <point x="133" y="-52" type="qcurve"/>
      <point x="108" y="-39"/>
      <point x="93" y="-24" type="qcurve"/>
      <point x="83" y="-16"/>
      <point x="70" y="4"/>
      <point x="63" y="15" type="qcurve"/>
      <point x="51" y="33"/>
      <point x="42" y="61" type="qcurve"/>
      <point x="37" y="75"/>
      <point x="35" y="103"/>
      <point x="35" y="117" type="qcurve"/>
      <point x="35" y="135"/>
      <point x="39" y="168"/>
      <point x="43" y="183" type="qcurve"/>
      <point x="47" y="199"/>
      <point x="59" y="225"/>
      <point x="68" y="239" type="qcurve"/>
      <point x="76" y="251"/>
      <point x="92" y="273"/>
      <point x="103" y="282" type="qcurve"/>
      <point x="113" y="291"/>
      <point x="136" y="307"/>
      <point x="150" y="314" type="qcurve"/>
      <point x="161" y="320"/>
      <point x="187" y="329"/>
      <point x="201" y="331" type="qcurve"/>
      <point x="213" y="336"/>
      <point x="241" y="339"/>
      <point x="254" y="339" type="qcurve"/>
      <point x="273" y="339"/>
      <point x="306" y="334"/>
      <point x="322" y="329" type="qcurve"/>
      <point x="350" y="319"/>
      <point x="374" y="297" type="qcurve"/>
      <point x="399" y="278"/>
      <point x="409" y="251" type="qcurve"/>
      <point x="422" y="222"/>
      <point x="422" y="183" type="qcurve"/>
    </contour>
  </outline>
</glyph>
<glyph name="A" format="1">
  <advance width="336"/>
  <unicode hex="0041"/>
  <outline>
    <contour>
      <point x="106" y="143" type="line" name="hr00"/>
      <point x="202" y="143" type="line"/>
      <point x="155" y="274" type="line"/>
    </contour>
    <contour>
      <point x="211" y="21" type="line"/>
      <point x="239" y="24" type="line"/>
      <point x="241" y="24"/>
      <point x="244" y="26" type="qcurve"/>
      <point x="244" y="33" type="line"/>
      <point x="211" y="122" type="line"/>
      <point x="98" y="122" type="line"/>
      <point x="65" y="33" type="line"/>
      <point x="65" y="30" type="line"/>
      <point x="65" y="28"/>
      <point x="68" y="26" type="qcurve"/>
      <point x="68" y="25" type="line"/>
      <point x="68" y="24"/>
      <point x="70" y="24" type="qcurve"/>
      <point x="71" y="24" type="line"/>
      <point x="99" y="21" type="line"/>
      <point x="99" y="0" type="line"/>
      <point x="2" y="0" type="line"/>
      <point x="2" y="21" type="line"/>
      <point x="30" y="26" type="line"/>
      <point x="143" y="337" type="line"/>
      <point x="181" y="337" type="line"/>
      <point x="296" y="35" type="line"/>
      <point x="296" y="32"/>
      <point x="297" y="31" type="qcurve"/>
      <point x="297" y="29"/>
      <point x="297" y="28" type="qcurve"/>
      <point x="300" y="26"/>
      <point x="303" y="26"/>
      <point x="304" y="24" type="qcurve"/>
      <point x="326" y="21" type="line"/>
      <point x="326" y="0" type="line"/>
      <point x="211" y="0" type="line"/>
    </contour>
  </outline>
</glyph>
<glyph name="B" format="1">
  <advance width="289"/>
  <unicode hex="0042"/>
  <outline>
    <contour>
      <point x="276" y="98" type="line" name="hr00"/>
      <point x="276" y="88"/>
      <point x="275" y="71"/>
      <point x="272" y="63" type="qcurve"/>
      <point x="265" y="48"/>
      <point x="257" y="37" type="qcurve"/>
      <point x="247" y="26"/>
      <point x="235" y="20" type="qcurve"/>
      <point x="229" y="16"/>
      <point x="215" y="11"/>
      <point x="207" y="8" type="qcurve"/>
      <point x="195" y="2"/>
      <point x="181" y="2" type="qcurve"/>
      <point x="173" y="0"/>
      <point x="159" y="0"/>
      <point x="152" y="0" type="qcurve"/>
      <point x="15" y="0" type="line"/>
      <point x="15" y="21" type="line"/>
      <point x="42" y="24" type="line"/>
      <point x="48" y="24"/>
      <point x="50" y="26" type="qcurve"/>
      <point x="50" y="28"/>
      <point x="51" y="30" type="qcurve"/>
      <point x="51" y="31"/>
      <point x="52" y="33" type="qcurve"/>
      <point x="52" y="294" type="line"/>
      <point x="52" y="300"/>
      <point x="50" y="303" type="qcurve"/>
      <point x="48" y="304"/>
      <point x="42" y="304" type="qcurve"/>
      <point x="15" y="307" type="line"/>
      <point x="15" y="329" type="line"/>
      <point x="148" y="329" type="line"/>
      <point x="161" y="329"/>
      <point x="187" y="326"/>
      <point x="198" y="324" type="qcurve"/>
      <point x="208" y="321"/>
      <point x="224" y="314"/>
      <point x="230" y="307" type="qcurve"/>
      <point x="243" y="297"/>
      <point x="251" y="282" type="qcurve"/>
      <point x="257" y="266"/>
      <point x="257" y="251" type="qcurve"/>
      <point x="257" y="230"/>
      <point x="251" y="218" type="qcurve"/>
      <point x="246" y="211"/>
      <point x="238" y="201"/>
      <point x="233" y="195" type="qcurve"/>
      <point x="224" y="188"/>
      <point x="209" y="181" type="qcurve"/>
      <point x="202" y="178"/>
      <point x="191" y="176"/>
      <point x="187" y="174" type="qcurve"/>
      <point x="202" y="174"/>
      <point x="219" y="169" type="qcurve"/>
      <point x="226" y="167"/>
      <point x="241" y="161"/>
      <point x="247" y="156" type="qcurve"/>
      <point x="254" y="152"/>
      <point x="264" y="140"/>
      <point x="268" y="133" type="qcurve"/>
      <point x="276" y="119"/>
      <point x="276" y="96" type="qcurve"/>
    </contour>
    <contour>
      <point x="224" y="93" type="qcurve"/>
      <point x="224" y="127"/>
      <point x="204" y="141" type="qcurve"/>
      <point x="194" y="149"/>
      <point x="166" y="159"/>
      <point x="146" y="159" type="qcurve"/>
      <point x="138" y="159"/>
      <point x="133" y="156" type="qcurve"/>
      <point x="117" y="156" type="line"/>
      <point x="106" y="156" type="line"/>
      <point x="105" y="156"/>
      <point x="105" y="156"/>
      <point x="104" y="156" type="qcurve"/>
      <point x="103" y="155" type="line"/>
      <point x="103" y="26" type="line"/>
      <point x="105" y="26"/>
      <point x="110" y="26"/>
      <point x="113" y="24" type="qcurve"/>
      <point x="122" y="24" type="line"/>
      <point x="131" y="24" type="line"/>
      <point x="144" y="24"/>
      <point x="167" y="26"/>
      <point x="174" y="28" type="qcurve"/>
      <point x="192" y="35"/>
      <point x="204" y="42" type="qcurve"/>
      <point x="213" y="50"/>
      <point x="219" y="63" type="qcurve"/>
      <point x="222" y="70"/>
      <point x="224" y="85"/>
    </contour>
    <contour>
      <point x="204" y="247" type="line"/>
      <point x="204" y="275"/>
      <point x="184" y="291" type="qcurve"/>
      <point x="170" y="307"/>
      <point x="128" y="307" type="qcurve"/>
      <point x="120" y="307" type="line"/>
      <point x="113" y="307" type="line"/>
      <point x="105" y="307" type="line"/>
      <point x="103" y="304" type="line"/>
      <point x="103" y="181" type="line"/>
      <point x="106" y="181" type="line"/>
      <point x="113" y="181" type="line"/>
      <point x="117" y="181" type="line"/>
      <point x="131" y="181"/>
      <point x="150" y="183"/>
      <point x="159" y="184" type="qcurve"/>
      <point x="167" y="189"/>
      <point x="180" y="194"/>
      <point x="184" y="198" type="qcurve"/>
      <point x="190" y="203"/>
      <point x="198" y="212"/>
      <point x="201" y="219" type="qcurve"/>
      <point x="202" y="224"/>
      <point x="204" y="239"/>
      <point x="204" y="246" type="qcurve"/>
    </contour>
  </outline>
</glyph>
<glyph name="C" format="1">
  <advance width="302"/>
  <unicode hex="0043"/>
  <outline>
    <contour>
      <point x="286" y="11" type="line"/>
      <point x="283" y="11" type="line"/>
      <point x="282" y="11"/>
      <point x="276" y="8" type="qcurve"/>
      <point x="273" y="7"/>
      <point x="261" y="4"/>
      <point x="254" y="2" type="qcurve"/>
      <point x="247" y="0"/>
      <point x="234" y="-3"/>
      <point x="224" y="-5" type="qcurve"/>
      <point x="216" y="-7"/>
      <point x="199" y="-9"/>
      <point x="190" y="-9" type="qcurve"/>
      <point x="174" y="-9"/>
      <point x="150" y="-4"/>
      <point x="138" y="0" type="qcurve"/>
      <point x="126" y="3"/>
      <point x="105" y="11"/>
      <point x="96" y="17" type="qcurve"/>
      <point x="75" y="31"/>
      <point x="63" y="45" type="qcurve"/>
      <point x="55" y="54"/>
      <point x="43" y="71"/>
      <point x="39" y="80" type="qcurve"/>
      <point x="34" y="91"/>
      <point x="26" y="110"/>
      <point x="24" y="122" type="qcurve"/>
      <point x="20" y="132"/>
      <point x="17" y="154"/>
      <point x="17" y="166" type="qcurve"/>
      <point x="17" y="203"/>
      <point x="30" y="235" type="qcurve"/>
      <point x="42" y="265"/>
      <point x="65" y="289" type="qcurve"/>
      <point x="76" y="301"/>
      <point x="104" y="317"/>
      <point x="120" y="324" type="qcurve"/>
      <point x="153" y="337"/>
      <point x="190" y="337" type="qcurve"/>
      <point x="196" y="337"/>
      <point x="206" y="337"/>
      <point x="212" y="335" type="qcurve"/>
      <point x="218" y="335"/>
      <point x="230" y="332"/>
      <point x="235" y="331" type="qcurve"/>
      <point x="241" y="331"/>
      <point x="252" y="328"/>
      <point x="259" y="326" type="qcurve"/>
      <point x="266" y="324"/>
      <point x="280" y="319"/>
      <point x="287" y="317" type="qcurve"/>
      <point x="287" y="241" type="line"/>
      <point x="257" y="241" type="line"/>
      <point x="251" y="286" type="line"/>
      <point x="251" y="287"/>
      <point x="247" y="289"/>
      <point x="246" y="291" type="qcurve"/>
      <point x="243" y="296"/>
      <point x="241" y="296" type="qcurve"/>
      <point x="239" y="296"/>
      <point x="235" y="300" type="qcurve"/>
      <point x="231" y="300"/>
      <point x="226" y="303"/>
      <point x="222" y="304" type="qcurve"/>
      <point x="219" y="304"/>
      <point x="212" y="307"/>
      <point x="209" y="307" type="qcurve"/>
      <point x="204" y="309"/>
      <point x="191" y="309" type="qcurve" name="hr01"/>
      <point x="178" y="309"/>
      <point x="156" y="304"/>
      <point x="146" y="300" type="qcurve" name="hr02"/>
      <point x="134" y="295"/>
      <point x="115" y="282"/>
      <point x="108" y="272" type="qcurve" name="hr03"/>
      <point x="100" y="264"/>
      <point x="87" y="240"/>
      <point x="82" y="226" type="qcurve"/>
      <point x="79" y="212"/>
      <point x="73" y="184"/>
      <point x="73" y="166" type="qcurve"/>
      <point x="73" y="147"/>
      <point x="79" y="118"/>
      <point x="82" y="105" type="qcurve"/>
      <point x="87" y="91"/>
      <point x="99" y="69"/>
      <point x="108" y="59" type="qcurve"/>
      <point x="121" y="39"/>
      <point x="146" y="28" type="qcurve"/>
      <point x="156" y="23"/>
      <point x="184" y="20"/>
      <point x="198" y="20" type="qcurve"/>
      <point x="212" y="20" type="line"/>
      <point x="218" y="21"/>
      <point x="224" y="22"/>
      <point x="226" y="24" type="qcurve"/>
      <point x="233" y="24"/>
      <point x="235" y="26" type="qcurve"/>
      <point x="237" y="26"/>
      <point x="237" y="28" type="qcurve"/>
      <point x="244" y="28"/>
      <point x="244" y="33" type="qcurve"/>
      <point x="247" y="33"/>
      <point x="247" y="37" type="qcurve"/>
      <point x="259" y="91" type="line"/>
      <point x="287" y="91" type="line"/>
      <point x="287" y="11" type="line"/>
    </contour>
  </outline>
</glyph>
<glyph name="D" format="1">
  <advance width="343"/>
  <unicode hex="0044"/>
  <outline>
    <contour>
      <point x="265" y="163" type="qcurve" name="hr00"/>
      <point x="265" y="183"/>
      <point x="261" y="215"/>
      <point x="257" y="229" type="qcurve"/>
      <point x="251" y="257"/>
      <point x="230" y="272" type="qcurve"/>
      <point x="224" y="282"/>
      <point x="203" y="293"/>
      <point x="191" y="297" type="qcurve"/>
      <point x="170" y="304"/>
      <point x="139" y="304" type="qcurve"/>
      <point x="103" y="304" type="line"/>
      <point x="103" y="24" type="line"/>
      <point x="141" y="24" type="line"/>
      <point x="156" y="24"/>
      <point x="182" y="28"/>
      <point x="194" y="33" type="qcurve"/>
      <point x="205" y="36"/>
      <point x="224" y="48"/>
      <point x="233" y="56" type="qcurve"/>
      <point x="251" y="76"/>
      <point x="257" y="99" type="qcurve"/>
      <point x="261" y="113"/>
      <point x="265" y="145"/>
    </contour>
    <contour>
      <point x="322" y="166" type="qcurve"/>
      <point x="322" y="143"/>
      <point x="317" y="122" type="qcurve"/>
      <point x="314" y="101"/>
      <point x="304" y="82" type="qcurve"/>
      <point x="301" y="75"/>
      <point x="289" y="58"/>
      <point x="282" y="50" type="qcurve"/>
      <point x="269" y="33"/>
      <point x="251" y="24" type="qcurve"/>
      <point x="240" y="17"/>
      <point x="218" y="9"/>
      <point x="207" y="7" type="qcurve"/>
      <point x="183" y="0"/>
      <point x="150" y="0" type="qcurve"/>
      <point x="15" y="0" type="line"/>
      <point x="15" y="21" type="line"/>
      <point x="42" y="24" type="line"/>
      <point x="48" y="24"/>
      <point x="50" y="26" type="qcurve"/>
      <point x="52" y="28"/>
      <point x="52" y="33" type="qcurve"/>
      <point x="52" y="294" type="line"/>
      <point x="52" y="296"/>
      <point x="52" y="300"/>
      <point x="50" y="300" type="qcurve"/>
      <point x="45" y="304"/>
      <point x="42" y="304" type="qcurve"/>
      <point x="15" y="307" type="line"/>
      <point x="15" y="329" type="line"/>
      <point x="141" y="329" type="line"/>
      <point x="161" y="329"/>
      <point x="196" y="322"/>
      <point x="212" y="317" type="qcurve"/>
      <point x="229" y="313"/>
      <point x="258" y="300"/>
      <point x="269" y="289" type="qcurve"/>
      <point x="281" y="280"/>
      <point x="302" y="253"/>
      <point x="309" y="237" type="qcurve"/>
      <point x="322" y="207"/>
    </contour>
  </outline>
</glyph>
<glyph name="E" format="1">
  <advance width="283"/>
  <unicode hex="0045"/>
  <outline>
    <contour>
      <point x="15" y="21" type="line"/>
      <point x="42" y="24" type="line"/>
      <point x="43" y="24"/>
      <point x="48" y="24"/>
      <point x="48" y="26" type="qcurve"/>
      <point x="52" y="33"/>
      <point x="52" y="35" type="qcurve"/>
      <point x="52" y="296" type="line"/>
      <point x="52" y="297"/>
      <point x="48" y="303" type="qcurve"/>
      <point x="48" y="304"/>
      <point x="43" y="304"/>
      <point x="42" y="307" type="qcurve"/>
      <point x="15" y="309" type="line"/>
      <point x="15" y="329" type="line"/>
      <point x="252" y="329" type="line"/>
      <point x="252" y="254" type="line"/>
      <point x="224" y="254" type="line"/>
      <point x="216" y="296" type="line"/>
      <point x="216" y="300"/>
      <point x="212" y="303" type="qcurve"/>
      <point x="212" y="304"/>
      <point x="207" y="304" type="qcurve" name="hr01"/>
      <point x="103" y="304" type="line"/>
      <point x="103" y="183" type="line"/>
      <point x="174" y="183" type="line"/>
      <point x="176" y="183"/>
      <point x="181" y="184"/>
      <point x="181" y="187" type="qcurve"/>
      <point x="183" y="189"/>
      <point x="184" y="190"/>
      <point x="184" y="191" type="qcurve"/>
      <point x="190" y="226" type="line" name="hr02"/>
      <point x="212" y="226" type="line"/>
      <point x="212" y="115" type="line"/>
      <point x="190" y="115" type="line" name="hr03"/>
      <point x="184" y="150" type="line"/>
      <point x="184" y="153"/>
      <point x="181" y="156" type="qcurve"/>
      <point x="181" y="159"/>
      <point x="174" y="159" type="qcurve"/>
      <point x="103" y="159" type="line"/>
      <point x="103" y="24" type="line"/>
      <point x="226" y="24" type="line"/>
      <point x="229" y="24"/>
      <point x="230" y="28" type="qcurve"/>
      <point x="231" y="29"/>
      <point x="233" y="30"/>
      <point x="234" y="31" type="qcurve"/>
      <point x="235" y="32"/>
      <point x="235" y="33" type="qcurve"/>
      <point x="244" y="80" type="line"/>
      <point x="269" y="80" type="line"/>
      <point x="269" y="0" type="line"/>
      <point x="15" y="0" type="line"/>
    </contour>
  </outline>
</glyph>
<glyph name="F" format="1">
  <advance width="261"/>
  <unicode hex="0046"/>
  <outline>
    <contour>
      <point x="212" y="296" type="line"/>
      <point x="212" y="300"/>
      <point x="211" y="303" type="qcurve"/>
      <point x="209" y="304"/>
      <point x="204" y="304" type="qcurve"/>
      <point x="103" y="304" type="line"/>
      <point x="103" y="176" type="line"/>
      <point x="176" y="176" type="line"/>
      <point x="181" y="176"/>
      <point x="181" y="181" type="qcurve"/>
      <point x="184" y="184"/>
      <point x="184" y="187" type="qcurve"/>
      <point x="190" y="222" type="line"/>
      <point x="212" y="222" type="line"/>
      <point x="212" y="111" type="line"/>
      <point x="190" y="111" type="line"/>
      <point x="184" y="143" type="line"/>
      <point x="184" y="146"/>
      <point x="181" y="150" type="qcurve"/>
      <point x="181" y="152"/>
      <point x="176" y="152" type="qcurve"/>
      <point x="103" y="152" type="line"/>
      <point x="103" y="33" type="line"/>
      <point x="103" y="30" type="line"/>
      <point x="103" y="28"/>
      <point x="105" y="26" type="qcurve"/>
      <point x="105" y="24"/>
      <point x="111" y="24" type="qcurve"/>
      <point x="143" y="21" type="line" name="hr01"/>
      <point x="143" y="0" type="line"/>
      <point x="15" y="0" type="line"/>
      <point x="15" y="21" type="line"/>
      <point x="42" y="24" type="line"/>
      <point x="48" y="24"/>
      <point x="50" y="26" type="qcurve" name="hr02"/>
      <point x="52" y="28"/>
      <point x="52" y="30" type="qcurve"/>
      <point x="52" y="33" type="line"/>
      <point x="52" y="294" type="line"/>
      <point x="52" y="300"/>
      <point x="50" y="303" type="qcurve"/>
      <point x="48" y="304"/>
      <point x="42" y="304" type="qcurve"/>
      <point x="13" y="307" type="line" name="hr03"/>
      <point x="13" y="329" type="line"/>
      <point x="251" y="329" type="line"/>
      <point x="251" y="251" type="line"/>
      <point x="222" y="251" type="line" name="hr04"/>
    </contour>
  </outline>
</glyph>
<glyph name="G" format="1">
  <advance width="334"/>
  <unicode hex="0047"/>
  <outline>
    <contour>
      <point x="303" y="134" type="line"/>
      <point x="297" y="134"/>
      <point x="294" y="131" type="qcurve"/>
      <point x="291" y="128"/>
      <point x="291" y="124" type="qcurve"/>
      <point x="291" y="11" type="line"/>
      <point x="285" y="8"/>
      <point x="269" y="4"/>
      <point x="261" y="2" type="qcurve"/>
      <point x="253" y="0"/>
      <point x="236" y="-3"/>
      <point x="229" y="-5" type="qcurve"/>
      <point x="218" y="-7"/>
      <point x="199" y="-9"/>
      <point x="190" y="-9" type="qcurve"/>
      <point x="176" y="-9"/>
      <point x="150" y="-6"/>
      <point x="139" y="-2" type="qcurve"/>
      <point x="127" y="1"/>
      <point x="105" y="11"/>
      <point x="96" y="15" type="qcurve"/>
      <point x="85" y="22"/>
      <point x="70" y="36"/>
      <point x="63" y="45" type="qcurve"/>
      <point x="55" y="52"/>
      <point x="43" y="71"/>
      <point x="39" y="78" type="qcurve" name="hr01"/>
      <point x="34" y="90"/>
      <point x="26" y="110"/>
      <point x="24" y="120" type="qcurve"/>
      <point x="17" y="140"/>
      <point x="17" y="166" type="qcurve"/>
      <point x="17" y="203"/>
      <point x="30" y="235" type="qcurve"/>
      <point x="37" y="250"/>
      <point x="54" y="278"/>
      <point x="65" y="289" type="qcurve"/>
      <point x="76" y="301"/>
      <point x="105" y="317"/>
      <point x="122" y="324" type="qcurve"/>
      <point x="156" y="335"/>
      <point x="195" y="335" type="qcurve"/>
      <point x="222" y="335" type="line"/>
      <point x="229" y="332"/>
      <point x="239" y="332"/>
      <point x="246" y="331" type="qcurve"/>
      <point x="252" y="329"/>
      <point x="263" y="326"/>
      <point x="268" y="324" type="qcurve"/>
      <point x="275" y="324"/>
      <point x="286" y="322"/>
      <point x="291" y="320" type="qcurve"/>
      <point x="291" y="241" type="line"/>
      <point x="261" y="241" type="line"/>
      <point x="254" y="286" type="line"/>
      <point x="252" y="287"/>
      <point x="252" y="289"/>
      <point x="251" y="291" type="qcurve"/>
      <point x="246" y="296"/>
      <point x="244" y="296" type="qcurve"/>
      <point x="241" y="297"/>
      <point x="238" y="297"/>
      <point x="235" y="300" type="qcurve"/>
      <point x="233" y="300"/>
      <point x="227" y="303"/>
      <point x="224" y="304" type="qcurve"/>
      <point x="220" y="304"/>
      <point x="213" y="307"/>
      <point x="209" y="309" type="qcurve"/>
      <point x="194" y="309" type="line"/>
      <point x="180" y="309"/>
      <point x="155" y="304"/>
      <point x="143" y="300" type="qcurve"/>
      <point x="133" y="295"/>
      <point x="114" y="282"/>
      <point x="106" y="272" type="qcurve"/>
      <point x="90" y="255"/>
      <point x="82" y="229" type="qcurve"/>
      <point x="73" y="202"/>
      <point x="73" y="167" type="qcurve"/>
      <point x="73" y="133"/>
      <point x="82" y="105" type="qcurve"/>
      <point x="93" y="77"/>
      <point x="108" y="59" type="qcurve"/>
      <point x="125" y="41"/>
      <point x="148" y="30" type="qcurve"/>
      <point x="160" y="25"/>
      <point x="185" y="20"/>
      <point x="201" y="20" type="qcurve"/>
      <point x="216" y="20" type="line"/>
      <point x="220" y="21"/>
      <point x="225" y="22"/>
      <point x="229" y="24" type="qcurve"/>
      <point x="235" y="24"/>
      <point x="237" y="26" type="qcurve"/>
      <point x="244" y="26" type="line"/>
      <point x="244" y="124" type="line"/>
      <point x="244" y="126"/>
      <point x="244" y="131"/>
      <point x="241" y="133" type="qcurve"/>
      <point x="239" y="134"/>
      <point x="233" y="134" type="qcurve"/>
      <point x="201" y="138" type="line"/>
      <point x="201" y="159" type="line"/>
      <point x="329" y="159" type="line"/>
      <point x="329" y="138" type="line"/>
    </contour>
  </outline>
</glyph>
<glyph name="H" format="1">
  <advance width="358"/>
  <unicode hex="0048"/>
  <outline>
    <contour>
      <point x="224" y="21" type="line"/>
      <point x="252" y="24" type="line"/>
      <point x="254" y="24"/>
      <point x="259" y="24"/>
      <point x="259" y="26" type="qcurve"/>
      <point x="261" y="28"/>
      <point x="261" y="33" type="qcurve"/>
      <point x="261" y="159" type="line"/>
      <point x="103" y="159" type="line"/>
      <point x="103" y="33" type="line"/>
      <point x="103" y="26" type="line"/>
      <point x="105" y="24"/>
      <point x="111" y="24" type="qcurve"/>
      <point x="139" y="21" type="line"/>
      <point x="139" y="0" type="line" name="hr01"/>
      <point x="15" y="0" type="line"/>
      <point x="15" y="21" type="line"/>
      <point x="42" y="24" type="line"/>
      <point x="48" y="24"/>
      <point x="48" y="26" type="qcurve"/>
      <point x="52" y="29"/>
      <point x="52" y="33" type="qcurve"/>
      <point x="52" y="294" type="line" name="hr02"/>
      <point x="52" y="296"/>
      <point x="49" y="300"/>
      <point x="48" y="300" type="qcurve"/>
      <point x="48" y="304"/>
      <point x="42" y="304" type="qcurve"/>
      <point x="15" y="307" type="line"/>
      <point x="15" y="329" type="line"/>
      <point x="139" y="329" type="line"/>
      <point x="139" y="307" type="line" name="hr03"/>
      <point x="111" y="304" type="line"/>
      <point x="105" y="304"/>
      <point x="103" y="300" type="qcurve"/>
      <point x="103" y="294" type="line"/>
      <point x="103" y="184" type="line"/>
      <point x="261" y="184" type="line"/>
      <point x="261" y="294" type="line"/>
      <point x="261" y="300" type="line"/>
      <point x="259" y="302"/>
      <point x="254" y="304"/>
      <point x="252" y="304" type="qcurve"/>
      <point x="224" y="307" type="line"/>
      <point x="224" y="329" type="line" name="hr04"/>
      <point x="348" y="329" type="line"/>
      <point x="348" y="307" type="line"/>
      <point x="322" y="304" type="line"/>
      <point x="320" y="304"/>
      <point x="315" y="302"/>
      <point x="315" y="300" type="qcurve"/>
      <point x="314" y="300"/>
      <point x="311" y="296"/>
      <point x="311" y="294" type="qcurve"/>
      <point x="311" y="33" type="line" name="hr05"/>
      <point x="311" y="30"/>
      <point x="315" y="26" type="qcurve"/>
      <point x="315" y="24"/>
      <point x="320" y="24"/>
      <point x="322" y="24" type="qcurve"/>
      <point x="348" y="21" type="line"/>
      <point x="348" y="0" type="line" name="hr06"/>
      <point x="224" y="0" type="line"/>
    </contour>
  </outline>
</glyph>
<glyph name="I" format="1">
  <advance width="157"/>
  <unicode hex="0049"/>
  <outline>
    <contour>
      <point x="15" y="21" type="line" name="hr00"/>
      <point x="45" y="24" type="line"/>
      <point x="48" y="24"/>
      <point x="52" y="24"/>
      <point x="52" y="26" type="qcurve"/>
      <point x="54" y="28"/>
      <point x="54" y="33" type="qcurve"/>
      <point x="54" y="294" type="line"/>
      <point x="54" y="300" type="line"/>
      <point x="52" y="302"/>
      <point x="48" y="304"/>
      <point x="45" y="304" type="qcurve"/>
      <point x="15" y="307" type="line"/>
      <point x="15" y="329" type="line"/>
      <point x="146" y="329" type="line"/>
      <point x="146" y="307" type="line"/>
      <point x="115" y="304" type="line"/>
      <point x="108" y="304"/>
      <point x="108" y="300" type="qcurve"/>
      <point x="106" y="300"/>
      <point x="105" y="296"/>
      <point x="105" y="294" type="qcurve"/>
      <point x="105" y="33" type="line"/>
      <point x="105" y="30"/>
      <point x="108" y="26" type="qcurve"/>
      <point x="108" y="24"/>
      <point x="115" y="24" type="qcurve"/>
      <point x="146" y="21" type="line"/>
      <point x="146" y="0" type="line"/>
      <point x="15" y="0" type="line"/>
    </contour>
  </outline>
</glyph>
<glyph name="J" format="1">
  <advance width="236"/>
  <unicode hex="004A"/>
  <outline>
    <contour>
      <point x="195" y="304" type="line"/>
      <point x="192" y="304"/>
      <point x="189" y="303"/>
      <point x="187" y="300" type="qcurve"/>
      <point x="185" y="299"/>
      <point x="185" y="297" type="qcurve"/>
      <point x="184" y="297"/>
      <point x="184" y="294" type="qcurve"/>
      <point x="184" y="124" type="line"/>
      <point x="184" y="107"/>
      <point x="183" y="82"/>
      <point x="181" y="70" type="qcurve"/>
      <point x="174" y="44"/>
      <point x="161" y="28" type="qcurve"/>
      <point x="154" y="19"/>
      <point x="139" y="7"/>
      <point x="128" y="0" type="qcurve"/>
      <point x="118" y="-4"/>
      <point x="93" y="-9"/>
      <point x="78" y="-9" type="qcurve"/>
      <point x="71" y="-9"/>
      <point x="61" y="-9"/>
      <point x="54" y="-7" type="qcurve"/>
      <point x="49" y="-5"/>
      <point x="37" y="-2"/>
      <point x="33" y="0" type="qcurve"/>
      <point x="29" y="0"/>
      <point x="23" y="2"/>
      <point x="20" y="4" type="qcurve"/>
      <point x="16" y="4"/>
      <point x="13" y="7"/>
      <point x="11" y="7" type="qcurve"/>
      <point x="11" y="89" type="line"/>
      <point x="42" y="89" type="line"/>
      <point x="52" y="30" type="line"/>
      <point x="52" y="28"/>
      <point x="54" y="26"/>
      <point x="54" y="24" type="qcurve"/>
      <point x="56" y="22"/>
      <point x="59" y="21"/>
      <point x="61" y="20" type="qcurve"/>
      <point x="63" y="20"/>
      <point x="65" y="17"/>
      <point x="68" y="17" type="qcurve"/>
      <point x="73" y="17" type="line"/>
      <point x="93" y="17"/>
      <point x="103" y="24" type="qcurve"/>
      <point x="114" y="29"/>
      <point x="122" y="43" type="qcurve"/>
      <point x="125" y="50"/>
      <point x="131" y="65"/>
      <point x="133" y="76" type="qcurve" name="hr01"/>
      <point x="134" y="84"/>
      <point x="138" y="106"/>
      <point x="138" y="120" type="qcurve" name="hr02"/>
      <point x="138" y="294" type="line"/>
      <point x="138" y="297"/>
      <point x="134" y="301"/>
      <point x="134" y="303" type="qcurve"/>
      <point x="133" y="304"/>
      <point x="126" y="304" type="qcurve"/>
      <point x="96" y="307" type="line"/>
      <point x="96" y="329" type="line"/>
      <point x="224" y="329" type="line"/>
      <point x="224" y="307" type="line"/>
    </contour>
  </outline>
</glyph>
<glyph name="K" format="1">
  <advance width="323"/>
  <unicode hex="004B"/>
  <outline>
    <contour>
      <point x="226" y="15" type="line" name="hr00"/>
      <point x="134" y="146" type="line"/>
      <point x="103" y="146" type="line"/>
      <point x="103" y="33" type="line"/>
      <point x="103" y="30" type="line"/>
      <point x="103" y="28"/>
      <point x="105" y="26" type="qcurve"/>
      <point x="106" y="24"/>
      <point x="111" y="24" type="qcurve"/>
      <point x="139" y="21" type="line"/>
      <point x="139" y="0" type="line"/>
      <point x="15" y="0" type="line"/>
      <point x="15" y="21" type="line"/>
      <point x="42" y="24" type="line"/>
      <point x="48" y="24"/>
      <point x="50" y="26" type="qcurve"/>
      <point x="50" y="28"/>
      <point x="51" y="30" type="qcurve"/>
      <point x="51" y="31"/>
      <point x="52" y="33" type="qcurve"/>
      <point x="52" y="294" type="line"/>
      <point x="52" y="300"/>
      <point x="50" y="303" type="qcurve"/>
      <point x="48" y="304"/>
      <point x="42" y="304" type="qcurve"/>
      <point x="15" y="307" type="line"/>
      <point x="15" y="329" type="line"/>
      <point x="141" y="329" type="line"/>
      <point x="141" y="307" type="line"/>
      <point x="111" y="304" type="line"/>
      <point x="106" y="304"/>
      <point x="105" y="303" type="qcurve"/>
      <point x="103" y="300"/>
      <point x="103" y="294" type="qcurve"/>
      <point x="103" y="166" type="line"/>
      <point x="117" y="166" type="line"/>
      <point x="226" y="296" type="line"/>
      <point x="226" y="303" type="line"/>
      <point x="224" y="304"/>
      <point x="222" y="304" type="qcurve"/>
      <point x="198" y="309" type="line"/>
      <point x="198" y="329" type="line"/>
      <point x="300" y="329" type="line"/>
      <point x="300" y="309" type="line"/>
      <point x="295" y="307"/>
      <point x="288" y="307"/>
      <point x="286" y="307" type="qcurve"/>
      <point x="280" y="304"/>
      <point x="274" y="304" type="qcurve"/>
      <point x="268" y="304"/>
      <point x="268" y="303" type="qcurve"/>
      <point x="167" y="183" type="line"/>
      <point x="276" y="24" type="line"/>
      <point x="314" y="21" type="line"/>
      <point x="314" y="0" type="line"/>
      <point x="226" y="0" type="line"/>
    </contour>
  </outline>
</glyph>
<glyph name="L" format="1">
  <advance width="267"/>
  <unicode hex="004C"/>
  <outline>
    <contour>
      <point x="13" y="21" type="line" name="hr00"/>
      <point x="42" y="24" type="line"/>
      <point x="48" y="24"/>
      <point x="48" y="26" type="qcurve"/>
      <point x="48" y="27"/>
      <point x="50" y="28"/>
      <point x="51" y="30" type="qcurve"/>
      <point x="52" y="31"/>
      <point x="52" y="33" type="qcurve"/>
      <point x="52" y="294" type="line"/>
      <point x="52" y="296"/>
      <point x="51" y="297"/>
      <point x="51" y="297" type="qcurve"/>
      <point x="50" y="299"/>
      <point x="50" y="300" type="qcurve"/>
      <point x="48" y="303"/>
      <point x="44" y="304"/>
      <point x="42" y="304" type="qcurve"/>
      <point x="13" y="307" type="line"/>
      <point x="13" y="329" type="line"/>
      <point x="138" y="329" type="line"/>
      <point x="138" y="307" type="line"/>
      <point x="111" y="304" type="line"/>
      <point x="106" y="304"/>
      <point x="105" y="300" type="qcurve"/>
      <point x="103" y="300"/>
      <point x="103" y="294" type="qcurve"/>
      <point x="103" y="24" type="line"/>
      <point x="204" y="24" type="line"/>
      <point x="207" y="24" type="line"/>
      <point x="209" y="24"/>
      <point x="211" y="26" type="qcurve"/>
      <point x="212" y="28"/>
      <point x="213" y="31"/>
      <point x="216" y="33" type="qcurve"/>
      <point x="222" y="91" type="line"/>
      <point x="252" y="91" type="line"/>
      <point x="252" y="0" type="line"/>
      <point x="13" y="0" type="line"/>
    </contour>
  </outline>
</glyph>
<glyph name="M" format="1">
  <advance width="427"/>
  <unicode hex="004D"/>
  <outline>
    <contour>
      <point x="289" y="21" type="line" name="hr00"/>
      <point x="315" y="24" type="line"/>
      <point x="322" y="24"/>
      <point x="324" y="26" type="qcurve"/>
      <point x="324" y="28"/>
      <point x="326" y="31"/>
      <point x="326" y="33" type="qcurve"/>
      <point x="326" y="303" type="line"/>
      <point x="212" y="0" type="line"/>
      <point x="190" y="0" type="line"/>
      <point x="80" y="297" type="line"/>
      <point x="80" y="33" type="line"/>
      <point x="80" y="28"/>
      <point x="82" y="26" type="qcurve"/>
      <point x="85" y="24"/>
      <point x="91" y="24" type="qcurve"/>
      <point x="120" y="21" type="line"/>
      <point x="120" y="0" type="line"/>
      <point x="13" y="0" type="line"/>
      <point x="13" y="21" type="line"/>
      <point x="42" y="24" type="line"/>
      <point x="48" y="24"/>
      <point x="50" y="26" type="qcurve"/>
      <point x="52" y="28"/>
      <point x="52" y="33" type="qcurve"/>
      <point x="52" y="294" type="line"/>
      <point x="52" y="296"/>
      <point x="52" y="300"/>
      <point x="50" y="300" type="qcurve"/>
      <point x="45" y="304"/>
      <point x="42" y="304" type="qcurve"/>
      <point x="15" y="307" type="line"/>
      <point x="15" y="329" type="line"/>
      <point x="124" y="329" type="line"/>
      <point x="124" y="315" type="line"/>
      <point x="212" y="73" type="line"/>
      <point x="300" y="314" type="line"/>
      <point x="300" y="329" type="line"/>
      <point x="413" y="329" type="line"/>
      <point x="413" y="307" type="line"/>
      <point x="387" y="304" type="line"/>
      <point x="383" y="304"/>
      <point x="378" y="300" type="qcurve"/>
      <point x="377" y="300"/>
      <point x="377" y="296"/>
      <point x="377" y="294" type="qcurve"/>
      <point x="377" y="33" type="line"/>
      <point x="377" y="28"/>
      <point x="378" y="26" type="qcurve"/>
      <point x="381" y="24"/>
      <point x="387" y="24" type="qcurve"/>
      <point x="413" y="21" type="line"/>
      <point x="413" y="0" type="line"/>
      <point x="289" y="0" type="line"/>
    </contour>
  </outline>
</glyph>
<glyph name="N" format="1">
  <advance width="353"/>
  <unicode hex="004E"/>
  <outline>
    <contour>
      <point x="311" y="307" type="line" name="hr00"/>
      <point x="309" y="304"/>
      <point x="304" y="304"/>
      <point x="303" y="303" type="qcurve"/>
      <point x="300" y="300"/>
      <point x="300" y="296" type="qcurve"/>
      <point x="300" y="0" type="line"/>
      <point x="263" y="0" type="line"/>
      <point x="80" y="274" type="line"/>
      <point x="80" y="35" type="line"/>
      <point x="80" y="30"/>
      <point x="82" y="26" type="qcurve"/>
      <point x="85" y="24"/>
      <point x="91" y="24" type="qcurve"/>
      <point x="117" y="21" type="line"/>
      <point x="117" y="0" type="line"/>
      <point x="13" y="0" type="line"/>
      <point x="13" y="21" type="line"/>
      <point x="42" y="24" type="line"/>
      <point x="48" y="24"/>
      <point x="48" y="26" type="qcurve"/>
      <point x="52" y="33"/>
      <point x="52" y="35" type="qcurve"/>
      <point x="52" y="296" type="line"/>
      <point x="52" y="297"/>
      <point x="48" y="303" type="qcurve"/>
      <point x="48" y="307"/>
      <point x="42" y="307" type="qcurve"/>
      <point x="13" y="309" type="line"/>
      <point x="13" y="329" type="line"/>
      <point x="108" y="329" type="line"/>
      <point x="108" y="315" type="line"/>
      <point x="272" y="70" type="line"/>
      <point x="272" y="294" type="line"/>
      <point x="272" y="300"/>
      <point x="269" y="303" type="qcurve"/>
      <point x="268" y="304"/>
      <point x="261" y="304" type="qcurve"/>
      <point x="235" y="307" type="line"/>
      <point x="235" y="329" type="line"/>
      <point x="339" y="329" type="line"/>
      <point x="339" y="307" type="line"/>
      <point x="311" y="304" type="line"/>
    </contour>
  </outline>
</glyph>
<glyph name="O" format="1">
  <advance width="348"/>
  <unicode hex="004F"/>
  <outline>
    <contour>
      <point x="280" y="163" type="line" name="hr00"/>
      <point x="280" y="178"/>
      <point x="278" y="206"/>
      <point x="274" y="219" type="qcurve"/>
      <point x="268" y="246"/>
      <point x="254" y="265" type="qcurve"/>
      <point x="247" y="275"/>
      <point x="233" y="291"/>
      <point x="222" y="296" type="qcurve"/>
      <point x="206" y="309"/>
      <point x="178" y="309" type="qcurve"/>
      <point x="152" y="309"/>
      <point x="133" y="296" type="qcurve"/>
      <point x="112" y="286"/>
      <point x="99" y="265" type="qcurve"/>
      <point x="93" y="255"/>
      <point x="84" y="233"/>
      <point x="80" y="219" type="qcurve"/>
      <point x="77" y="206"/>
      <point x="73" y="178"/>
      <point x="73" y="166" type="qcurve"/>
      <point x="73" y="149"/>
      <point x="77" y="122"/>
      <point x="80" y="108" type="qcurve"/>
      <point x="88" y="82"/>
      <point x="99" y="63" type="qcurve"/>
      <point x="106" y="51"/>
      <point x="122" y="37"/>
      <point x="133" y="30" type="qcurve"/>
      <point x="143" y="25"/>
      <point x="164" y="20"/>
      <point x="178" y="20" type="qcurve"/>
      <point x="191" y="20"/>
      <point x="213" y="25"/>
      <point x="224" y="30" type="qcurve"/>
      <point x="234" y="37"/>
      <point x="250" y="51"/>
      <point x="257" y="63" type="qcurve"/>
      <point x="269" y="84"/>
      <point x="276" y="108" type="qcurve"/>
      <point x="282" y="134"/>
      <point x="282" y="163" type="qcurve"/>
    </contour>
    <contour>
      <point x="337" y="163" type="qcurve"/>
      <point x="337" y="145"/>
      <point x="331" y="112"/>
      <point x="326" y="96" type="qcurve"/>
      <point x="319" y="82"/>
      <point x="304" y="52"/>
      <point x="294" y="42" type="qcurve"/>
      <point x="283" y="30"/>
      <point x="258" y="11"/>
      <point x="244" y="4" type="qcurve"/>
      <point x="216" y="-9"/>
      <point x="178" y="-9" type="qcurve"/>
      <point x="141" y="-9"/>
      <point x="113" y="4" type="qcurve"/>
      <point x="82" y="17"/>
      <point x="63" y="39" type="qcurve"/>
      <point x="51" y="50"/>
      <point x="37" y="79"/>
      <point x="30" y="96" type="qcurve"/>
      <point x="25" y="110"/>
      <point x="20" y="145"/>
      <point x="20" y="163" type="qcurve"/>
      <point x="20" y="181"/>
      <point x="25" y="216"/>
      <point x="30" y="230" type="qcurve"/>
      <point x="40" y="262"/>
      <point x="63" y="286" type="qcurve"/>
      <point x="85" y="309"/>
      <point x="111" y="322" type="qcurve"/>
      <point x="142" y="335"/>
      <point x="178" y="335" type="qcurve"/>
      <point x="216" y="335"/>
      <point x="244" y="322" type="qcurve"/>
      <point x="258" y="315"/>
      <point x="283" y="296"/>
      <point x="294" y="286" type="qcurve"/>
      <point x="304" y="272"/>
      <point x="319" y="246"/>
      <point x="326" y="230" type="qcurve"/>
      <point x="331" y="213"/>
      <point x="337" y="181"/>
    </contour>
  </outline>
</glyph>
<glyph name="P" format="1">
  <advance width="279"/>
  <unicode hex="0050"/>
  <outline>
    <contour>
      <point x="212" y="229" type="qcurve" name="hr00"/>
      <point x="212" y="239"/>
      <point x="211" y="254"/>
      <point x="209" y="261" type="qcurve"/>
      <point x="205" y="268"/>
      <point x="198" y="280"/>
      <point x="194" y="286" type="qcurve"/>
      <point x="183" y="294"/>
      <point x="166" y="300" type="qcurve"/>
      <point x="150" y="304"/>
      <point x="126" y="304" type="qcurve"/>
      <point x="117" y="304" type="line"/>
      <point x="111" y="304" type="line"/>
      <point x="103" y="304" type="line"/>
      <point x="103" y="150" type="line"/>
      <point x="105" y="150" type="line"/>
      <point x="113" y="150" type="line"/>
      <point x="115" y="148"/>
      <point x="122" y="148" type="qcurve"/>
      <point x="128" y="148" type="line"/>
      <point x="139" y="148"/>
      <point x="157" y="150"/>
      <point x="166" y="152" type="qcurve"/>
      <point x="181" y="156"/>
      <point x="190" y="166" type="qcurve"/>
      <point x="196" y="173"/>
      <point x="205" y="184"/>
      <point x="207" y="191" type="qcurve"/>
      <point x="212" y="207"/>
    </contour>
    <contour>
      <point x="263" y="229" type="qcurve"/>
      <point x="263" y="204"/>
      <point x="252" y="181" type="qcurve"/>
      <point x="247" y="170"/>
      <point x="234" y="156"/>
      <point x="226" y="148" type="qcurve"/>
      <point x="216" y="141"/>
      <point x="196" y="132"/>
      <point x="184" y="128" type="qcurve"/>
      <point x="173" y="125"/>
      <point x="148" y="122"/>
      <point x="134" y="122" type="qcurve"/>
      <point x="126" y="122" type="line"/>
      <point x="122" y="124"/>
      <point x="116" y="124"/>
      <point x="113" y="124" type="qcurve"/>
      <point x="105" y="124" type="line"/>
      <point x="103" y="124"/>
      <point x="103" y="126" type="qcurve"/>
      <point x="103" y="33" type="line"/>
      <point x="103" y="26" type="line"/>
      <point x="105" y="24"/>
      <point x="111" y="24" type="qcurve"/>
      <point x="143" y="21" type="line"/>
      <point x="143" y="0" type="line"/>
      <point x="15" y="0" type="line"/>
      <point x="15" y="21" type="line"/>
      <point x="42" y="24" type="line"/>
      <point x="48" y="24"/>
      <point x="48" y="26" type="qcurve"/>
      <point x="48" y="27"/>
      <point x="50" y="28"/>
      <point x="51" y="30" type="qcurve"/>
      <point x="52" y="31"/>
      <point x="52" y="33" type="qcurve"/>
      <point x="52" y="294" type="line"/>
      <point x="52" y="297"/>
      <point x="48" y="303" type="qcurve"/>
      <point x="48" y="304"/>
      <point x="42" y="304" type="qcurve"/>
      <point x="11" y="307" type="line"/>
      <point x="11" y="329" type="line"/>
      <point x="128" y="329" type="line"/>
      <point x="146" y="329"/>
      <point x="176" y="326"/>
      <point x="190" y="324" type="qcurve"/>
      <point x="212" y="318"/>
      <point x="230" y="307" type="qcurve"/>
      <point x="246" y="294"/>
      <point x="257" y="276" type="qcurve"/>
      <point x="263" y="258"/>
    </contour>
  </outline>
</glyph>
<glyph name="Q" format="1">
  <advance width="362"/>
  <unicode hex="0051"/>
  <outline>
    <contour>
      <point x="286" y="163" type="qcurve" name="hr00"/>
      <point x="286" y="178"/>
      <point x="281" y="204"/>
      <point x="279" y="218" type="qcurve"/>
      <point x="271" y="247"/>
      <point x="259" y="265" type="qcurve"/>
      <point x="246" y="286"/>
      <point x="226" y="296" type="qcurve"/>
      <point x="207" y="309"/>
      <point x="181" y="309" type="qcurve"/>
      <point x="154" y="309"/>
      <point x="134" y="296" type="qcurve"/>
      <point x="124" y="291"/>
      <point x="110" y="275"/>
      <point x="103" y="265" type="qcurve"/>
      <point x="90" y="246"/>
      <point x="82" y="219" type="qcurve"/>
      <point x="76" y="194"/>
      <point x="76" y="166" type="qcurve"/>
      <point x="76" y="134"/>
      <point x="82" y="108" type="qcurve"/>
      <point x="89" y="84"/>
      <point x="103" y="63" type="qcurve"/>
      <point x="117" y="42"/>
      <point x="134" y="30" type="qcurve"/>
      <point x="145" y="25"/>
      <point x="167" y="20"/>
      <point x="181" y="20" type="qcurve"/>
      <point x="195" y="20"/>
      <point x="216" y="25"/>
      <point x="226" y="30" type="qcurve"/>
      <point x="236" y="37"/>
      <point x="252" y="51"/>
      <point x="259" y="63" type="qcurve"/>
      <point x="271" y="82"/>
      <point x="279" y="108" type="qcurve"/>
      <point x="281" y="122"/>
      <point x="286" y="148"/>
    </contour>
    <contour>
      <point x="342" y="163" type="qcurve"/>
      <point x="342" y="147"/>
      <point x="337" y="116"/>
      <point x="332" y="103" type="qcurve"/>
      <point x="322" y="71"/>
      <point x="307" y="50" type="qcurve"/>
      <point x="297" y="39"/>
      <point x="276" y="21"/>
      <point x="263" y="13" type="qcurve"/>
      <point x="239" y="0"/>
      <point x="207" y="-7" type="qcurve"/>
      <point x="207" y="-35"/>
      <point x="224" y="-50" type="qcurve"/>
      <point x="240" y="-65"/>
      <point x="274" y="-65" type="qcurve"/>
      <point x="291" y="-65" type="line"/>
      <point x="295" y="-65"/>
      <point x="301" y="-63"/>
      <point x="304" y="-63" type="qcurve"/>
      <point x="315" y="-63" type="line"/>
      <point x="317" y="-63"/>
      <point x="320" y="-61"/>
      <point x="322" y="-61" type="qcurve"/>
      <point x="322" y="-83" type="line"/>
      <point x="317" y="-83"/>
      <point x="314" y="-85" type="qcurve"/>
      <point x="309" y="-85"/>
      <point x="301" y="-87"/>
      <point x="296" y="-87" type="qcurve"/>
      <point x="291" y="-87"/>
      <point x="280" y="-89"/>
      <point x="274" y="-89" type="qcurve"/>
      <point x="251" y="-89" type="line"/>
      <point x="237" y="-89"/>
      <point x="215" y="-87"/>
      <point x="204" y="-85" type="qcurve"/>
      <point x="196" y="-82"/>
      <point x="183" y="-75"/>
      <point x="176" y="-68" type="qcurve"/>
      <point x="166" y="-58"/>
      <point x="159" y="-42" type="qcurve"/>
      <point x="156" y="-35"/>
      <point x="155" y="-20"/>
      <point x="155" y="-9" type="qcurve"/>
      <point x="139" y="-6"/>
      <point x="113" y="2"/>
      <point x="99" y="8" type="qcurve"/>
      <point x="89" y="16"/>
      <point x="67" y="34"/>
      <point x="56" y="45" type="qcurve"/>
      <point x="48" y="57"/>
      <point x="35" y="83"/>
      <point x="28" y="98" type="qcurve"/>
      <point x="23" y="112"/>
      <point x="20" y="145"/>
      <point x="20" y="163" type="qcurve"/>
      <point x="20" y="174"/>
      <point x="20" y="197"/>
      <point x="24" y="209" type="qcurve"/>
      <point x="26" y="220"/>
      <point x="34" y="240"/>
      <point x="39" y="251" type="qcurve"/>
      <point x="43" y="260"/>
      <point x="55" y="276"/>
      <point x="63" y="286" type="qcurve"/>
      <point x="76" y="302"/>
      <point x="96" y="311" type="qcurve"/>
      <point x="104" y="318"/>
      <point x="124" y="325"/>
      <point x="134" y="329" type="qcurve"/>
      <point x="155" y="335"/>
      <point x="181" y="335" type="qcurve"/>
      <point x="218" y="335"/>
      <point x="246" y="322" type="qcurve"/>
      <point x="262" y="315"/>
      <point x="288" y="296"/>
      <point x="297" y="286" type="qcurve"/>
      <point x="321" y="262"/>
      <point x="331" y="230" type="qcurve"/>
      <point x="337" y="213"/>
      <point x="342" y="181"/>
    </contour>
  </outline>
</glyph>
<glyph name="R" format="1">
  <advance width="329"/>
  <unicode hex="0052"/>
  <outline>
    <contour>
      <point x="211" y="237" type="line"/>
      <point x="211" y="245"/>
      <point x="208" y="260"/>
      <point x="204" y="265" type="qcurve"/>
      <point x="201" y="279"/>
      <point x="190" y="287" type="qcurve"/>
      <point x="184" y="290"/>
      <point x="171" y="297"/>
      <point x="163" y="300" type="qcurve"/>
      <point x="155" y="302"/>
      <point x="135" y="303"/>
      <point x="124" y="303" type="qcurve"/>
      <point x="103" y="303" type="line"/>
      <point x="103" y="169" type="line"/>
      <point x="105" y="169" type="line"/>
      <point x="111" y="169" type="line"/>
      <point x="117" y="169" type="line"/>
      <point x="126" y="169" type="line"/>
      <point x="136" y="169"/>
      <point x="153" y="170"/>
      <point x="161" y="174" type="qcurve"/>
      <point x="176" y="174"/>
      <point x="190" y="184" type="qcurve"/>
      <point x="195" y="189"/>
      <point x="201" y="201"/>
      <point x="204" y="207" type="qcurve"/>
      <point x="211" y="219"/>
      <point x="211" y="239" type="qcurve"/>
    </contour>
    <contour>
      <point x="317" y="-2" type="line"/>
      <point x="315" y="-2"/>
      <point x="314" y="-5" type="qcurve"/>
      <point x="309" y="-5"/>
      <point x="307" y="-7" type="qcurve"/>
      <point x="300" y="-7"/>
      <point x="296" y="-9" type="qcurve"/>
      <point x="286" y="-9" type="line"/>
      <point x="263" y="-9"/>
      <point x="251" y="-2" type="qcurve"/>
      <point x="236" y="5"/>
      <point x="229" y="15" type="qcurve"/>
      <point x="219" y="23"/>
      <point x="216" y="39" type="qcurve"/>
      <point x="212" y="45"/>
      <point x="209" y="61"/>
      <point x="207" y="68" type="qcurve"/>
      <point x="205" y="76"/>
      <point x="201" y="89"/>
      <point x="198" y="96" type="qcurve"/>
      <point x="195" y="104"/>
      <point x="188" y="117"/>
      <point x="183" y="122" type="qcurve"/>
      <point x="178" y="127"/>
      <point x="167" y="135"/>
      <point x="161" y="139" type="qcurve"/>
      <point x="153" y="142"/>
      <point x="135" y="146"/>
      <point x="124" y="146" type="qcurve"/>
      <point x="115" y="146" type="line"/>
      <point x="108" y="146" type="line"/>
      <point x="106" y="143"/>
      <point x="105" y="143" type="qcurve"/>
      <point x="103" y="143" type="line"/>
      <point x="103" y="33" type="line"/>
      <point x="103" y="28"/>
      <point x="105" y="26" type="qcurve"/>
      <point x="106" y="24"/>
      <point x="113" y="24" type="qcurve"/>
      <point x="139" y="21" type="line"/>
      <point x="139" y="0" type="line"/>
      <point x="15" y="0" type="line"/>
      <point x="15" y="21" type="line"/>
      <point x="42" y="24" type="line"/>
      <point x="48" y="24"/>
      <point x="50" y="26" type="qcurve"/>
      <point x="52" y="28"/>
      <point x="52" y="33" type="qcurve"/>
      <point x="52" y="294" type="line"/>
      <point x="52" y="296"/>
      <point x="52" y="300"/>
      <point x="50" y="300" type="qcurve" name="hr01"/>
      <point x="45" y="304"/>
      <point x="42" y="304" type="qcurve" name="hr02"/>
      <point x="15" y="307" type="line"/>
      <point x="15" y="329" type="line" name="hr03"/>
      <point x="143" y="329" type="line" name="hr04"/>
      <point x="159" y="329"/>
      <point x="184" y="326"/>
      <point x="194" y="324" type="qcurve" name="hr05"/>
      <point x="217" y="318"/>
      <point x="233" y="309" type="qcurve"/>
      <point x="247" y="297"/>
      <point x="257" y="280" type="qcurve"/>
      <point x="263" y="266"/>
      <point x="263" y="241" type="qcurve"/>
      <point x="263" y="222"/>
      <point x="257" y="207" type="qcurve"/>
      <point x="251" y="195"/>
      <point x="239" y="183" type="qcurve" name="hr06"/>
      <point x="234" y="178"/>
      <point x="222" y="171"/>
      <point x="212" y="167" type="qcurve"/>
      <point x="201" y="161"/>
      <point x="183" y="159" type="qcurve"/>
      <point x="195" y="156"/>
      <point x="209" y="149"/>
      <point x="216" y="146" type="qcurve"/>
      <point x="220" y="141"/>
      <point x="230" y="131"/>
      <point x="235" y="126" type="qcurve"/>
      <point x="237" y="119"/>
      <point x="241" y="110"/>
      <point x="244" y="103" type="qcurve"/>
      <point x="246" y="98"/>
      <point x="248" y="85"/>
      <point x="251" y="78" type="qcurve"/>
      <point x="252" y="73"/>
      <point x="252" y="61"/>
      <point x="254" y="56" type="qcurve"/>
      <point x="257" y="51"/>
      <point x="262" y="42"/>
      <point x="265" y="37" type="qcurve"/>
      <point x="269" y="34"/>
      <point x="279" y="27"/>
      <point x="286" y="24" type="qcurve"/>
      <point x="300" y="20"/>
      <point x="317" y="20" type="qcurve"/>
    </contour>
  </outline>
</glyph>
<glyph name="S" format="1">
  <advance width="246"/>
  <unicode hex="0053"/>
  <outline>
    <contour>
      <point x="235" y="91" type="line"/>
      <point x="235" y="73"/>
      <point x="229" y="54" type="qcurve"/>
      <point x="224" y="47"/>
      <point x="212" y="31"/>
      <point x="204" y="24" type="qcurve"/>
      <point x="196" y="15"/>
      <point x="177" y="5"/>
      <point x="166" y="0" type="qcurve"/>
      <point x="152" y="-5"/>
      <point x="122" y="-9"/>
      <point x="105" y="-9" type="qcurve"/>
      <point x="93" y="-9"/>
      <point x="77" y="-9"/>
      <point x="70" y="-7" type="qcurve"/>
      <point x="62" y="-5"/>
      <point x="48" y="-2"/>
      <point x="42" y="0" type="qcurve"/>
      <point x="35" y="2"/>
      <point x="24" y="7"/>
      <point x="17" y="8" type="qcurve"/>
      <point x="17" y="96" type="line"/>
      <point x="50" y="96" type="line"/>
      <point x="54" y="42" type="line"/>
      <point x="56" y="40"/>
      <point x="57" y="37"/>
      <point x="59" y="35" type="qcurve"/>
      <point x="61" y="33"/>
      <point x="63" y="32"/>
      <point x="63" y="30" type="qcurve"/>
      <point x="68" y="28" type="line"/>
      <point x="70" y="26"/>
      <point x="75" y="26"/>
      <point x="78" y="24" type="qcurve"/>
      <point x="80" y="24"/>
      <point x="89" y="21"/>
      <point x="93" y="20" type="qcurve"/>
      <point x="113" y="20" type="line"/>
      <point x="121" y="20"/>
      <point x="134" y="20"/>
      <point x="141" y="24" type="qcurve"/>
      <point x="155" y="27"/>
      <point x="166" y="35" type="qcurve"/>
      <point x="170" y="37"/>
      <point x="177" y="48"/>
      <point x="181" y="52" type="qcurve"/>
      <point x="183" y="57"/>
      <point x="184" y="70"/>
      <point x="184" y="76" type="qcurve"/>
      <point x="184" y="93"/>
      <point x="176" y="103" type="qcurve"/>
      <point x="173" y="110"/>
      <point x="161" y="118"/>
      <point x="155" y="122" type="qcurve"/>
      <point x="148" y="127"/>
      <point x="134" y="135"/>
      <point x="126" y="138" type="qcurve"/>
      <point x="119" y="140"/>
      <point x="105" y="148"/>
      <point x="98" y="150" type="qcurve"/>
      <point x="91" y="155"/>
      <point x="76" y="161"/>
      <point x="70" y="166" type="qcurve"/>
      <point x="63" y="170"/>
      <point x="50" y="178"/>
      <point x="45" y="183" type="qcurve" name="hr01"/>
      <point x="34" y="194"/>
      <point x="30" y="207" type="qcurve" name="hr02"/>
      <point x="24" y="223"/>
      <point x="24" y="239" type="qcurve"/>
      <point x="24" y="251"/>
      <point x="28" y="271"/>
      <point x="33" y="279" type="qcurve"/>
      <point x="41" y="295"/>
      <point x="54" y="309" type="qcurve"/>
      <point x="62" y="315"/>
      <point x="82" y="325"/>
      <point x="91" y="329" type="qcurve"/>
      <point x="111" y="335"/>
      <point x="138" y="335" type="qcurve"/>
      <point x="144" y="335"/>
      <point x="156" y="335"/>
      <point x="163" y="332" type="qcurve"/>
      <point x="170" y="332"/>
      <point x="180" y="331"/>
      <point x="184" y="331" type="qcurve"/>
      <point x="191" y="329"/>
      <point x="201" y="326"/>
      <point x="204" y="324" type="qcurve"/>
      <point x="211" y="322"/>
      <point x="219" y="320"/>
      <point x="224" y="320" type="qcurve"/>
      <point x="224" y="244" type="line"/>
      <point x="195" y="244" type="line"/>
      <point x="190" y="289" type="line"/>
      <point x="187" y="291"/>
      <point x="184" y="294" type="qcurve"/>
      <point x="183" y="296"/>
      <point x="183" y="297"/>
      <point x="181" y="297" type="qcurve"/>
      <point x="181" y="299" type="line"/>
      <point x="180" y="299" type="line"/>
      <point x="178" y="299"/>
      <point x="178" y="300" type="qcurve"/>
      <point x="176" y="300"/>
      <point x="173" y="303"/>
      <point x="169" y="304" type="qcurve"/>
      <point x="168" y="304"/>
      <point x="159" y="309" type="qcurve"/>
      <point x="139" y="309" type="line"/>
      <point x="132" y="309"/>
      <point x="118" y="308"/>
      <point x="111" y="304" type="qcurve"/>
      <point x="101" y="302"/>
      <point x="91" y="291" type="qcurve"/>
      <point x="85" y="286"/>
      <point x="78" y="274" type="qcurve"/>
      <point x="76" y="269"/>
      <point x="76" y="259"/>
      <point x="76" y="252" type="qcurve"/>
      <point x="76" y="246"/>
      <point x="76" y="235"/>
      <point x="78" y="230" type="qcurve"/>
      <point x="82" y="225"/>
      <point x="89" y="218"/>
      <point x="93" y="212" type="qcurve"/>
      <point x="100" y="206"/>
      <point x="113" y="201" type="qcurve"/>
      <point x="120" y="196"/>
      <point x="135" y="190"/>
      <point x="143" y="187" type="qcurve"/>
      <point x="155" y="182"/>
      <point x="175" y="173"/>
      <point x="183" y="169" type="qcurve"/>
      <point x="190" y="164"/>
      <point x="206" y="155"/>
      <point x="211" y="150" type="qcurve"/>
      <point x="218" y="143"/>
      <point x="226" y="132"/>
      <point x="229" y="124" type="qcurve"/>
      <point x="232" y="117"/>
      <point x="237" y="101"/>
      <point x="237" y="91" type="qcurve"/>
    </contour>
  </outline>
</glyph>
<glyph name="T" format="1">
  <advance width="302"/>
  <unicode hex="0054"/>
  <outline>
    <contour>
      <point x="247" y="296" type="line"/>
      <point x="247" y="300"/>
      <point x="246" y="303" type="qcurve"/>
      <point x="244" y="303"/>
      <point x="244" y="304"/>
      <point x="241" y="304" type="qcurve"/>
      <point x="169" y="304" type="line" name="hr01"/>
      <point x="169" y="33" type="line"/>
      <point x="169" y="31"/>
      <point x="173" y="28"/>
      <point x="174" y="26" type="qcurve"/>
      <point x="174" y="24"/>
      <point x="181" y="24" type="qcurve"/>
      <point x="212" y="21" type="line"/>
      <point x="212" y="0" type="line" name="hr02"/>
      <point x="78" y="0" type="line"/>
      <point x="78" y="21" type="line"/>
      <point x="111" y="24" type="line"/>
      <point x="117" y="24"/>
      <point x="117" y="26" type="qcurve"/>
      <point x="122" y="29"/>
      <point x="122" y="33" type="qcurve"/>
      <point x="122" y="304" type="line"/>
      <point x="50" y="304" type="line"/>
      <point x="48" y="304"/>
      <point x="48" y="303"/>
      <point x="45" y="303" type="qcurve"/>
      <point x="43" y="300"/>
      <point x="43" y="296" type="qcurve"/>
      <point x="37" y="251" type="line"/>
      <point x="8" y="251" type="line"/>
      <point x="8" y="329" type="line"/>
      <point x="286" y="329" type="line"/>
      <point x="286" y="251" type="line" name="hr03"/>
      <point x="257" y="251" type="line"/>
    </contour>
  </outline>
</glyph>
<glyph name="U" format="1">
  <advance width="346"/>
  <unicode hex="0055"/>
  <outline>
    <contour>
      <point x="307" y="304" type="line" name="hr00"/>
      <point x="304" y="304"/>
      <point x="300" y="304"/>
      <point x="300" y="303" type="qcurve"/>
      <point x="297" y="300"/>
      <point x="297" y="294" type="qcurve"/>
      <point x="297" y="108" type="line"/>
      <point x="297" y="93"/>
      <point x="293" y="68"/>
      <point x="289" y="56" type="qcurve"/>
      <point x="285" y="45"/>
      <point x="274" y="27"/>
      <point x="265" y="20" type="qcurve"/>
      <point x="247" y="6"/>
      <point x="226" y="0" type="qcurve"/>
      <point x="212" y="-5"/>
      <point x="187" y="-9"/>
      <point x="173" y="-9" type="qcurve"/>
      <point x="141" y="-9"/>
      <point x="97" y="7"/>
      <point x="80" y="21" type="qcurve"/>
      <point x="67" y="37"/>
      <point x="52" y="80"/>
      <point x="52" y="108" type="qcurve"/>
      <point x="52" y="294" type="line"/>
      <point x="52" y="300"/>
      <point x="50" y="303" type="qcurve"/>
      <point x="48" y="304"/>
      <point x="42" y="304" type="qcurve"/>
      <point x="15" y="307" type="line"/>
      <point x="15" y="329" type="line"/>
      <point x="141" y="329" type="line"/>
      <point x="141" y="307" type="line"/>
      <point x="111" y="304" type="line"/>
      <point x="106" y="304"/>
      <point x="105" y="303" type="qcurve"/>
      <point x="103" y="300"/>
      <point x="103" y="294" type="qcurve"/>
      <point x="103" y="122" type="line"/>
      <point x="103" y="110"/>
      <point x="103" y="91"/>
      <point x="105" y="82" type="qcurve"/>
      <point x="106" y="72"/>
      <point x="112" y="59"/>
      <point x="117" y="52" type="qcurve"/>
      <point x="127" y="39"/>
      <point x="141" y="33" type="qcurve"/>
      <point x="149" y="29"/>
      <point x="171" y="24"/>
      <point x="184" y="24" type="qcurve"/>
      <point x="196" y="24"/>
      <point x="218" y="29"/>
      <point x="226" y="33" type="qcurve"/>
      <point x="234" y="36"/>
      <point x="246" y="45"/>
      <point x="252" y="52" type="qcurve"/>
      <point x="255" y="59"/>
      <point x="261" y="75"/>
      <point x="263" y="82" type="qcurve"/>
      <point x="267" y="93"/>
      <point x="268" y="111"/>
      <point x="268" y="122" type="qcurve"/>
      <point x="268" y="294" type="line"/>
      <point x="268" y="300"/>
      <point x="265" y="303" type="qcurve"/>
      <point x="263" y="304"/>
      <point x="257" y="304" type="qcurve"/>
      <point x="229" y="307" type="line"/>
      <point x="229" y="329" type="line"/>
      <point x="335" y="329" type="line"/>
      <point x="335" y="307" type="line"/>
    </contour>
  </outline>
</glyph>
<glyph name="V" format="1">
  <advance width="336"/>
  <unicode hex="0056"/>
  <outline>
    <contour>
      <point x="183" y="-9" type="line" name="hr00"/>
      <point x="146" y="-9" type="line"/>
      <point x="33" y="303" type="line"/>
      <point x="4" y="307" type="line"/>
      <point x="4" y="329" type="line"/>
      <point x="122" y="329" type="line"/>
      <point x="122" y="307" type="line"/>
      <point x="93" y="304" type="line"/>
      <point x="89" y="304"/>
      <point x="89" y="300" type="qcurve"/>
      <point x="87" y="300"/>
      <point x="87" y="296" type="qcurve"/>
      <point x="174" y="54" type="line"/>
      <point x="257" y="296" type="line"/>
      <point x="258" y="297"/>
      <point x="258" y="299" type="qcurve"/>
      <point x="258" y="300"/>
      <point x="257" y="300" type="qcurve"/>
      <point x="253" y="304"/>
      <point x="251" y="304" type="qcurve"/>
      <point x="224" y="307" type="line"/>
      <point x="224" y="329" type="line"/>
      <point x="322" y="329" type="line"/>
      <point x="322" y="307" type="line"/>
      <point x="291" y="303" type="line"/>
    </contour>
  </outline>
</glyph>
<glyph name="W" format="1">
  <advance width="458"/>
  <unicode hex="0057"/>
  <outline>
    <contour>
      <point x="346" y="-9" type="line" name="hr00"/>
      <point x="309" y="-9" type="line"/>
      <point x="229" y="263" type="line"/>
      <point x="148" y="-9" type="line"/>
      <point x="113" y="-9" type="line"/>
      <point x="33" y="300" type="line"/>
      <point x="4" y="307" type="line"/>
      <point x="4" y="329" type="line"/>
      <point x="117" y="329" type="line"/>
      <point x="117" y="307" type="line"/>
      <point x="87" y="304" type="line"/>
      <point x="85" y="304"/>
      <point x="84" y="302"/>
      <point x="82" y="300" type="qcurve"/>
      <point x="82" y="294" type="line"/>
      <point x="141" y="73" type="line"/>
      <point x="218" y="329" type="line"/>
      <point x="254" y="329" type="line"/>
      <point x="335" y="65" type="line"/>
      <point x="387" y="294" type="line"/>
      <point x="388" y="296"/>
      <point x="388" y="297" type="qcurve"/>
      <point x="388" y="299"/>
      <point x="387" y="300" type="qcurve"/>
      <point x="387" y="304"/>
      <point x="381" y="304" type="qcurve"/>
      <point x="350" y="307" type="line"/>
      <point x="350" y="329" type="line"/>
      <point x="450" y="329" type="line"/>
      <point x="450" y="307" type="line"/>
      <point x="420" y="300" type="line"/>
    </contour>
  </outline>
</glyph>
<glyph name="X" format="1">
  <advance width="313"/>
  <unicode hex="0058"/>
  <outline>
    <contour>
      <point x="181" y="21" type="line" name="hr00"/>
      <point x="207" y="24" type="line"/>
      <point x="212" y="24"/>
      <point x="212" y="26" type="qcurve"/>
      <point x="218" y="33"/>
      <point x="212" y="33" type="qcurve"/>
      <point x="150" y="134" type="line"/>
      <point x="73" y="33" type="line"/>
      <point x="71" y="30"/>
      <point x="71" y="26" type="qcurve"/>
      <point x="73" y="24"/>
      <point x="78" y="24" type="qcurve"/>
      <point x="108" y="21" type="line"/>
      <point x="108" y="0" type="line"/>
      <point x="4" y="0" type="line"/>
      <point x="4" y="21" type="line"/>
      <point x="35" y="26" type="line"/>
      <point x="133" y="161" type="line"/>
      <point x="43" y="300" type="line"/>
      <point x="11" y="307" type="line"/>
      <point x="11" y="329" type="line"/>
      <point x="134" y="329" type="line"/>
      <point x="134" y="307" type="line"/>
      <point x="111" y="304" type="line"/>
      <point x="103" y="304"/>
      <point x="103" y="300" type="qcurve"/>
      <point x="103" y="296" type="line"/>
      <point x="163" y="202" type="line"/>
      <point x="229" y="294" type="line"/>
      <point x="231" y="297"/>
      <point x="229" y="300" type="qcurve"/>
      <point x="229" y="304"/>
      <point x="224" y="304" type="qcurve"/>
      <point x="198" y="307" type="line"/>
      <point x="198" y="329" type="line"/>
      <point x="300" y="329" type="line"/>
      <point x="300" y="307" type="line"/>
      <point x="269" y="303" type="line"/>
      <point x="178" y="178" type="line"/>
      <point x="276" y="26" type="line"/>
      <point x="304" y="21" type="line"/>
      <point x="304" y="0" type="line"/>
      <point x="181" y="0" type="line"/>
    </contour>
  </outline>
</glyph>
<glyph name="Y" format="1">
  <advance width="307"/>
  <unicode hex="0059"/>
  <outline>
    <contour>
      <point x="176" y="139" type="line" name="hr00"/>
      <point x="176" y="33" type="line"/>
      <point x="176" y="30" type="line"/>
      <point x="176" y="28"/>
      <point x="178" y="26" type="qcurve"/>
      <point x="181" y="24"/>
      <point x="187" y="24" type="qcurve"/>
      <point x="218" y="21" type="line"/>
      <point x="218" y="0" type="line"/>
      <point x="87" y="0" type="line"/>
      <point x="87" y="21" type="line"/>
      <point x="115" y="24" type="line"/>
      <point x="122" y="24"/>
      <point x="124" y="26" type="qcurve"/>
      <point x="126" y="28"/>
      <point x="126" y="30" type="qcurve"/>
      <point x="126" y="33" type="line"/>
      <point x="126" y="133" type="line"/>
      <point x="33" y="300" type="line"/>
      <point x="4" y="307" type="line"/>
      <point x="4" y="329" type="line"/>
      <point x="120" y="329" type="line"/>
      <point x="120" y="307" type="line"/>
      <point x="96" y="304" type="line"/>
      <point x="93" y="304"/>
      <point x="89" y="302"/>
      <point x="89" y="300" type="qcurve"/>
      <point x="89" y="299" type="line"/>
      <point x="89" y="297"/>
      <point x="91" y="296" type="qcurve"/>
      <point x="159" y="167" type="line"/>
      <point x="235" y="294" type="line"/>
      <point x="238" y="297"/>
      <point x="235" y="300" type="qcurve"/>
      <point x="235" y="304"/>
      <point x="229" y="304" type="qcurve"/>
      <point x="202" y="307" type="line"/>
      <point x="202" y="329" type="line"/>
      <point x="300" y="329" type="line"/>
      <point x="300" y="307" type="line"/>
      <point x="276" y="303" type="line"/>
    </contour>
  </outline>
</glyph>
<glyph name="Z" format="1">
  <advance width="270"/>
  <unicode hex="005A"/>
  <outline>
    <contour>
      <point x="20" y="21" type="line" name="hr00"/>
      <point x="201" y="304" type="line"/>
      <point x="73" y="304" type="line"/>
      <point x="70" y="304"/>
      <point x="70" y="300" type="qcurve"/>
      <point x="65" y="300"/>
      <point x="65" y="296" type="qcurve"/>
      <point x="59" y="251" type="line"/>
      <point x="30" y="251" type="line"/>
      <point x="30" y="329" type="line"/>
      <point x="261" y="329" type="line"/>
      <point x="261" y="307" type="line"/>
      <point x="78" y="24" type="line"/>
      <point x="218" y="24" type="line"/>
      <point x="222" y="24"/>
      <point x="222" y="28" type="qcurve"/>
      <point x="224" y="28"/>
      <point x="224" y="30" type="qcurve"/>
      <point x="224" y="33" type="line"/>
      <point x="233" y="91" type="line"/>
      <point x="261" y="91" type="line"/>
      <point x="261" y="0" type="line"/>
      <point x="20" y="0" type="line"/>
    </contour>
  </outline>
</glyph>
<glyph name="bracketleft" format="1">
  <advance width="191"/>
  <unicode hex="005B"/>
  <outline>
    <contour>
      <point x="68" y="346" type="line"/>
      <point x="184" y="346" type="line"/>
      <point x="184" y="324" type="line"/>
      <point x="108" y="324" type="line" name="hr01"/>
      <point x="108" y="-42" type="line"/>
      <point x="184" y="-42" type="line" name="hr02"/>
      <point x="184" y="-65" type="line"/>
      <point x="68" y="-65" type="line"/>
    </contour>
  </outline>
</glyph>
<glyph name="bracketright" format="1">
  <advance width="176"/>
  <unicode hex="005D"/>
  <outline>
    <contour>
      <point x="21" y="-42" type="line"/>
      <point x="98" y="-42" type="line"/>
      <point x="98" y="324" type="line"/>
      <point x="21" y="324" type="line"/>
      <point x="21" y="346" type="line"/>
      <point x="141" y="346" type="line" name="hr01"/>
      <point x="141" y="-65" type="line"/>
      <point x="21" y="-65" type="line" name="hr02"/>
    </contour>
  </outline>
</glyph>
<glyph name="asciicircum" format="1">
  <advance width="178"/>
  <unicode hex="005E"/>
  <outline>
    <contour>
      <point x="80" y="317" type="line" name="hr00"/>
      <point x="30" y="269" type="line"/>
      <point x="0" y="269" type="line"/>
      <point x="61" y="352" type="line"/>
      <point x="98" y="352" type="line"/>
      <point x="159" y="269" type="line"/>
      <point x="131" y="269" type="line"/>
    </contour>
  </outline>
</glyph>
<glyph name="underscore" format="1">
  <advance width="261"/>
  <unicode hex="005F"/>
  <outline>
    <contour>
      <point x="0" y="-42" type="line" name="hr00"/>
      <point x="163" y="-42" type="line"/>
      <point x="163" y="-71" type="line"/>
      <point x="0" y="-71" type="line"/>
    </contour>
  </outline>
</glyph>
<glyph name="grave" format="1">
  <advance width="129"/>
  <unicode hex="0060"/>
  <outline>
    <contour>
      <point x="11" y="315" type="line" name="hr00"/>
      <point x="8" y="319"/>
      <point x="4" y="322"/>
      <point x="2" y="324" type="qcurve"/>
      <point x="0" y="329"/>
      <point x="0" y="337" type="qcurve"/>
      <point x="0" y="343" type="line"/>
      <point x="2" y="348"/>
      <point x="4" y="350" type="qcurve"/>
      <point x="6" y="354"/>
      <point x="8" y="355"/>
      <point x="11" y="357" type="qcurve"/>
      <point x="14" y="357"/>
      <point x="19" y="359"/>
      <point x="21" y="359" type="qcurve"/>
      <point x="28" y="359"/>
      <point x="33" y="357" type="qcurve"/>
      <point x="34" y="357" type="line"/>
      <point x="35" y="357"/>
      <point x="37" y="355" type="qcurve"/>
      <point x="39" y="355"/>
      <point x="43" y="350" type="qcurve"/>
      <point x="45" y="350"/>
      <point x="45" y="348"/>
      <point x="48" y="346" type="qcurve"/>
      <point x="113" y="269" type="line"/>
      <point x="85" y="269" type="line"/>
    </contour>
  </outline>
</glyph>
<glyph name="a" format="1">
  <advance width="245"/>
  <unicode hex="0061"/>
  <outline>
    <contour>
      <point x="161" y="131" type="line"/>
      <point x="127" y="122"/>
      <point x="111" y="113" type="qcurve"/>
      <point x="99" y="110"/>
      <point x="85" y="101"/>
      <point x="80" y="98" type="qcurve"/>
      <point x="76" y="93"/>
      <point x="70" y="85"/>
      <point x="68" y="80" type="qcurve"/>
      <point x="63" y="73"/>
      <point x="63" y="63" type="qcurve"/>
      <point x="63" y="59"/>
      <point x="68" y="48" type="qcurve"/>
      <point x="70" y="44"/>
      <point x="71" y="37"/>
      <point x="73" y="35" type="qcurve"/>
      <point x="77" y="33"/>
      <point x="82" y="28"/>
      <point x="87" y="26" type="qcurve"/>
      <point x="89" y="24"/>
      <point x="98" y="24"/>
      <point x="103" y="24" type="qcurve"/>
      <point x="107" y="24"/>
      <point x="117" y="24"/>
      <point x="122" y="26" type="qcurve"/>
      <point x="127" y="28"/>
      <point x="136" y="33"/>
      <point x="141" y="35" type="qcurve"/>
      <point x="148" y="37"/>
      <point x="156" y="42"/>
      <point x="161" y="45" type="qcurve"/>
    </contour>
    <contour>
      <point x="161" y="28" type="line"/>
      <point x="147" y="17"/>
      <point x="134" y="11" type="qcurve"/>
      <point x="132" y="8"/>
      <point x="125" y="6"/>
      <point x="122" y="4" type="qcurve"/>
      <point x="118" y="2"/>
      <point x="112" y="0"/>
      <point x="108" y="0" type="qcurve"/>
      <point x="104" y="-2"/>
      <point x="97" y="-5"/>
      <point x="93" y="-5" type="qcurve"/>
      <point x="89" y="-7"/>
      <point x="78" y="-7" type="qcurve"/>
      <point x="69" y="-7"/>
      <point x="54" y="-2" type="qcurve"/>
      <point x="49" y="0"/>
      <point x="37" y="8"/>
      <point x="35" y="11" type="qcurve"/>
      <point x="25" y="20"/>
      <point x="21" y="33" type="qcurve"/>
      <point x="19" y="37"/>
      <point x="15" y="52"/>
      <point x="15" y="59" type="qcurve"/>
      <point x="15" y="64"/>
      <point x="15" y="72"/>
      <point x="17" y="76" type="qcurve"/>
      <point x="20" y="83"/>
      <point x="24" y="93" type="qcurve"/>
      <point x="27" y="97"/>
      <point x="34" y="104"/>
      <point x="39" y="106" type="qcurve"/>
      <point x="45" y="110"/>
      <point x="57" y="118"/>
      <point x="68" y="122" type="qcurve"/>
      <point x="76" y="125"/>
      <point x="95" y="132"/>
      <point x="106" y="134" type="qcurve"/>
      <point x="118" y="139"/>
      <point x="144" y="145"/>
      <point x="161" y="150" type="qcurve"/>
      <point x="161" y="169" type="line"/>
      <point x="161" y="183"/>
      <point x="156" y="201"/>
      <point x="150" y="207" type="qcurve"/>
      <point x="143" y="212"/>
      <point x="127" y="218"/>
      <point x="115" y="218" type="qcurve"/>
      <point x="108" y="218"/>
      <point x="99" y="218"/>
      <point x="93" y="216" type="qcurve"/>
      <point x="90" y="216"/>
      <point x="86" y="215" type="qcurve"/>
      <point x="83" y="213"/>
      <point x="80" y="212" type="qcurve"/>
      <point x="80" y="169" type="line"/>
      <point x="45" y="169" type="line"/>
      <point x="39" y="169" type="line" name="hr01"/>
      <point x="37" y="169"/>
      <point x="35" y="173"/>
      <point x="33" y="173" type="qcurve" name="hr02"/>
      <point x="33" y="174"/>
      <point x="30" y="174"/>
      <point x="28" y="176" type="qcurve" name="hr03"/>
      <point x="28" y="183" type="line"/>
      <point x="28" y="201"/>
      <point x="37" y="209" type="qcurve"/>
      <point x="42" y="216"/>
      <point x="54" y="224"/>
      <point x="61" y="229" type="qcurve"/>
      <point x="68" y="232"/>
      <point x="83" y="237"/>
      <point x="93" y="238" type="qcurve"/>
      <point x="101" y="240"/>
      <point x="120" y="241"/>
      <point x="131" y="241" type="qcurve"/>
      <point x="142" y="241"/>
      <point x="161" y="239"/>
      <point x="167" y="237" type="qcurve"/>
      <point x="181" y="232"/>
      <point x="191" y="222" type="qcurve"/>
      <point x="196" y="215"/>
      <point x="201" y="205"/>
      <point x="204" y="198" type="qcurve"/>
      <point x="204" y="191"/>
      <point x="207" y="178"/>
      <point x="207" y="167" type="qcurve"/>
      <point x="207" y="33" type="line"/>
      <point x="207" y="31"/>
      <point x="211" y="24" type="qcurve"/>
      <point x="212" y="21"/>
      <point x="218" y="20" type="qcurve"/>
      <point x="241" y="20" type="line"/>
      <point x="241" y="0" type="line"/>
      <point x="167" y="0" type="line"/>
    </contour>
  </outline>
</glyph>
<glyph name="b" format="1">
  <advance width="265"/>
  <unicode hex="0062"/>
  <outline>
    <contour>
      <point x="254" y="128" type="qcurve" name="hr00"/>
      <point x="254" y="115"/>
      <point x="251" y="90"/>
      <point x="246" y="78" type="qcurve"/>
      <point x="239" y="54"/>
      <point x="222" y="37" type="qcurve"/>
      <point x="213" y="27"/>
      <point x="191" y="14"/>
      <point x="178" y="8" type="qcurve"/>
      <point x="163" y="4"/>
      <point x="133" y="0"/>
      <point x="115" y="0" type="qcurve"/>
      <point x="43" y="0" type="line"/>
      <point x="43" y="324" type="line"/>
      <point x="7" y="324" type="line"/>
      <point x="7" y="342" type="line"/>
      <point x="70" y="360" type="line"/>
      <point x="89" y="360" type="line"/>
      <point x="89" y="224" type="line"/>
      <point x="93" y="224"/>
      <point x="97" y="226"/>
      <point x="99" y="229" type="qcurve"/>
      <point x="104" y="230"/>
      <point x="112" y="233"/>
      <point x="117" y="235" type="qcurve"/>
      <point x="121" y="237"/>
      <point x="129" y="237"/>
      <point x="134" y="239" type="qcurve"/>
      <point x="139" y="241"/>
      <point x="152" y="241"/>
      <point x="156" y="241" type="qcurve"/>
      <point x="170" y="241"/>
      <point x="190" y="236"/>
      <point x="198" y="233" type="qcurve"/>
      <point x="208" y="229"/>
      <point x="224" y="216"/>
      <point x="230" y="209" type="qcurve"/>
      <point x="235" y="201"/>
      <point x="245" y="182"/>
      <point x="247" y="173" type="qcurve"/>
      <point x="254" y="153"/>
    </contour>
    <contour>
      <point x="204" y="120" type="qcurve"/>
      <point x="204" y="167"/>
      <point x="184" y="190" type="qcurve"/>
      <point x="164" y="212"/>
      <point x="131" y="212" type="qcurve"/>
      <point x="120" y="212" type="line"/>
      <point x="117" y="211"/>
      <point x="108" y="211" type="qcurve"/>
      <point x="105" y="209"/>
      <point x="101" y="209"/>
      <point x="98" y="207" type="qcurve"/>
      <point x="96" y="207"/>
      <point x="91" y="204"/>
      <point x="89" y="204" type="qcurve"/>
      <point x="89" y="24" type="line"/>
      <point x="98" y="24" type="line"/>
      <point x="105" y="24" type="line"/>
      <point x="113" y="24" type="line"/>
      <point x="125" y="24"/>
      <point x="144" y="25"/>
      <point x="152" y="28" type="qcurve"/>
      <point x="161" y="30"/>
      <point x="176" y="39"/>
      <point x="181" y="43" type="qcurve"/>
      <point x="194" y="56"/>
      <point x="198" y="73" type="qcurve"/>
      <point x="204" y="93"/>
    </contour>
  </outline>
</glyph>
<glyph name="c" format="1">
  <advance width="224"/>
  <unicode hex="0063"/>
  <outline>
    <contour>
      <point x="211" y="15" type="line"/>
      <point x="208" y="14"/>
      <point x="198" y="11"/>
      <point x="194" y="8" type="qcurve"/>
      <point x="190" y="5"/>
      <point x="178" y="2"/>
      <point x="174" y="0" type="qcurve"/>
      <point x="169" y="-2"/>
      <point x="159" y="-5"/>
      <point x="152" y="-7" type="qcurve"/>
      <point x="147" y="-7"/>
      <point x="135" y="-9"/>
      <point x="128" y="-9" type="qcurve"/>
      <point x="104" y="-9"/>
      <point x="82" y="2" type="qcurve"/>
      <point x="72" y="7"/>
      <point x="54" y="19"/>
      <point x="48" y="28" type="qcurve"/>
      <point x="40" y="36"/>
      <point x="29" y="55"/>
      <point x="24" y="65" type="qcurve"/>
      <point x="20" y="76"/>
      <point x="15" y="101"/>
      <point x="15" y="115" type="qcurve"/>
      <point x="15" y="146"/>
      <point x="26" y="169" type="qcurve"/>
      <point x="37" y="194"/>
      <point x="52" y="209" type="qcurve"/>
      <point x="60" y="217"/>
      <point x="79" y="229"/>
      <point x="89" y="233" type="qcurve"/>
      <point x="112" y="239"/>
      <point x="134" y="239" type="qcurve"/>
      <point x="143" y="239"/>
      <point x="159" y="239"/>
      <point x="166" y="237" type="qcurve"/>
      <point x="173" y="235"/>
      <point x="184" y="230"/>
      <point x="190" y="229" type="qcurve"/>
      <point x="198" y="223"/>
      <point x="204" y="212" type="qcurve"/>
      <point x="211" y="205"/>
      <point x="211" y="191" type="qcurve"/>
      <point x="211" y="188"/>
      <point x="209" y="183"/>
      <point x="209" y="181" type="qcurve"/>
      <point x="207" y="177"/>
      <point x="204" y="173"/>
      <point x="202" y="169" type="qcurve"/>
      <point x="199" y="167"/>
      <point x="195" y="166"/>
      <point x="191" y="166" type="qcurve"/>
      <point x="190" y="163"/>
      <point x="184" y="163"/>
      <point x="181" y="163" type="qcurve"/>
      <point x="177" y="163"/>
      <point x="171" y="166"/>
      <point x="167" y="166" type="qcurve"/>
      <point x="164" y="167"/>
      <point x="159" y="170"/>
      <point x="156" y="173" type="qcurve"/>
      <point x="156" y="212" type="line"/>
      <point x="155" y="215"/>
      <point x="149" y="218"/>
      <point x="146" y="219" type="qcurve"/>
      <point x="144" y="219"/>
      <point x="139" y="222"/>
      <point x="138" y="222" type="qcurve"/>
      <point x="118" y="222"/>
      <point x="106" y="212" type="qcurve"/>
      <point x="95" y="208"/>
      <point x="85" y="194" type="qcurve"/>
      <point x="80" y="185"/>
      <point x="73" y="171"/>
      <point x="71" y="161" type="qcurve"/>
      <point x="70" y="153"/>
      <point x="68" y="133"/>
      <point x="68" y="122" type="qcurve"/>
      <point x="68" y="111"/>
      <point x="70" y="93"/>
      <point x="71" y="85" type="qcurve"/>
      <point x="76" y="75"/>
      <point x="82" y="61"/>
      <point x="87" y="54" type="qcurve"/>
      <point x="97" y="40"/>
      <point x="111" y="33" type="qcurve"/>
      <point x="119" y="29"/>
      <point x="138" y="24"/>
      <point x="148" y="24" type="qcurve" name="hr01"/>
      <point x="163" y="24"/>
      <point x="181" y="30" type="qcurve"/>
      <point x="188" y="32"/>
      <point x="203" y="41"/>
      <point x="211" y="45" type="qcurve"/>
      <point x="211" y="17" type="line"/>
    </contour>
  </outline>
</glyph>
<glyph name="d" format="1">
  <advance width="273"/>
  <unicode hex="0064"/>
  <outline>
    <contour>
      <point x="187" y="211" type="line"/>
      <point x="184" y="212"/>
      <point x="178" y="212" type="qcurve"/>
      <point x="176" y="216"/>
      <point x="167" y="216" type="qcurve"/>
      <point x="166" y="218"/>
      <point x="160" y="218"/>
      <point x="156" y="218" type="qcurve"/>
      <point x="153" y="219"/>
      <point x="148" y="219"/>
      <point x="146" y="219" type="qcurve"/>
      <point x="135" y="219"/>
      <point x="119" y="215"/>
      <point x="111" y="211" type="qcurve"/>
      <point x="98" y="205"/>
      <point x="87" y="191" type="qcurve"/>
      <point x="82" y="184"/>
      <point x="73" y="171"/>
      <point x="71" y="161" type="qcurve"/>
      <point x="69" y="150"/>
      <point x="65" y="131"/>
      <point x="65" y="120" type="qcurve"/>
      <point x="65" y="110"/>
      <point x="68" y="93"/>
      <point x="70" y="82" type="qcurve"/>
      <point x="71" y="75"/>
      <point x="79" y="61"/>
      <point x="82" y="54" type="qcurve"/>
      <point x="87" y="48"/>
      <point x="99" y="37"/>
      <point x="106" y="35" type="qcurve"/>
      <point x="119" y="28"/>
      <point x="134" y="28" type="qcurve"/>
      <point x="150" y="28" type="line" name="hr01"/>
      <point x="154" y="30"/>
      <point x="160" y="33"/>
      <point x="163" y="33" type="qcurve" name="hr02"/>
      <point x="167" y="35"/>
      <point x="173" y="37"/>
      <point x="176" y="39" type="qcurve"/>
      <point x="180" y="39"/>
      <point x="184" y="42"/>
      <point x="187" y="43" type="qcurve"/>
    </contour>
    <contour>
      <point x="187" y="26" type="line"/>
      <point x="182" y="22"/>
      <point x="174" y="16"/>
      <point x="169" y="13" type="qcurve"/>
      <point x="167" y="9"/>
      <point x="156" y="6"/>
      <point x="152" y="2" type="qcurve"/>
      <point x="147" y="0"/>
      <point x="138" y="-3"/>
      <point x="133" y="-5" type="qcurve"/>
      <point x="127" y="-7"/>
      <point x="116" y="-7"/>
      <point x="111" y="-7" type="qcurve"/>
      <point x="99" y="-7"/>
      <point x="77" y="-1"/>
      <point x="70" y="4" type="qcurve"/>
      <point x="59" y="8"/>
      <point x="45" y="24"/>
      <point x="39" y="33" type="qcurve"/>
      <point x="34" y="41"/>
      <point x="26" y="58"/>
      <point x="24" y="70" type="qcurve"/>
      <point x="20" y="79"/>
      <point x="17" y="100"/>
      <point x="17" y="111" type="qcurve"/>
      <point x="17" y="125"/>
      <point x="21" y="147"/>
      <point x="26" y="159" type="qcurve" name="hr03"/>
      <point x="29" y="173"/>
      <point x="41" y="192"/>
      <point x="48" y="202" type="qcurve"/>
      <point x="56" y="210"/>
      <point x="76" y="225"/>
      <point x="87" y="230" type="qcurve"/>
      <point x="99" y="235"/>
      <point x="127" y="241"/>
      <point x="141" y="241" type="qcurve"/>
      <point x="155" y="241" type="line"/>
      <point x="157" y="241"/>
      <point x="164" y="239"/>
      <point x="167" y="239" type="qcurve"/>
      <point x="176" y="239"/>
      <point x="178" y="237" type="qcurve"/>
      <point x="187" y="237" type="line"/>
      <point x="187" y="326" type="line"/>
      <point x="150" y="326" type="line"/>
      <point x="150" y="342" type="line"/>
      <point x="212" y="360" type="line"/>
      <point x="233" y="360" type="line"/>
      <point x="233" y="33" type="line"/>
      <point x="233" y="26"/>
      <point x="235" y="24" type="qcurve"/>
      <point x="237" y="21"/>
      <point x="244" y="21" type="qcurve"/>
      <point x="263" y="20" type="line"/>
      <point x="263" y="0" type="line"/>
      <point x="187" y="0" type="line"/>
    </contour>
  </outline>
</glyph>
<glyph name="e" format="1">
  <advance width="239"/>
  <unicode hex="0065"/>
  <outline>
    <contour>
      <point x="222" y="24" type="line"/>
      <point x="217" y="20"/>
      <point x="207" y="14"/>
      <point x="201" y="11" type="qcurve"/>
      <point x="195" y="8"/>
      <point x="183" y="4"/>
      <point x="178" y="2" type="qcurve"/>
      <point x="171" y="0"/>
      <point x="161" y="-3"/>
      <point x="155" y="-5" type="qcurve"/>
      <point x="148" y="-7"/>
      <point x="135" y="-7"/>
      <point x="128" y="-7" type="qcurve"/>
      <point x="118" y="-7"/>
      <point x="97" y="-4"/>
      <point x="87" y="0" type="qcurve"/>
      <point x="76" y="5"/>
      <point x="58" y="15"/>
      <point x="50" y="24" type="qcurve"/>
      <point x="42" y="31"/>
      <point x="31" y="49"/>
      <point x="26" y="61" type="qcurve"/>
      <point x="15" y="85"/>
      <point x="15" y="115" type="qcurve"/>
      <point x="15" y="129"/>
      <point x="20" y="154"/>
      <point x="24" y="167" type="qcurve"/>
      <point x="29" y="178"/>
      <point x="41" y="198"/>
      <point x="48" y="207" type="qcurve"/>
      <point x="65" y="223"/>
      <point x="85" y="233" type="qcurve"/>
      <point x="96" y="236"/>
      <point x="119" y="241"/>
      <point x="131" y="241" type="qcurve"/>
      <point x="142" y="241"/>
      <point x="161" y="238"/>
      <point x="173" y="235" type="qcurve"/>
      <point x="188" y="224"/>
      <point x="201" y="212" type="qcurve"/>
      <point x="210" y="199"/>
      <point x="218" y="181" type="qcurve"/>
      <point x="220" y="173"/>
      <point x="222" y="153"/>
      <point x="222" y="141" type="qcurve"/>
      <point x="222" y="134" type="line"/>
      <point x="222" y="126" type="line"/>
      <point x="63" y="126" type="line"/>
      <point x="63" y="111"/>
      <point x="68" y="89" type="qcurve"/>
      <point x="71" y="82"/>
      <point x="76" y="65"/>
      <point x="80" y="56" type="qcurve"/>
      <point x="85" y="49"/>
      <point x="99" y="37"/>
      <point x="106" y="33" type="qcurve"/>
      <point x="114" y="28"/>
      <point x="134" y="24"/>
      <point x="146" y="24" type="qcurve"/>
      <point x="150" y="24"/>
      <point x="161" y="24"/>
      <point x="166" y="26" type="qcurve"/>
      <point x="178" y="29"/>
      <point x="187" y="33" type="qcurve" name="hr01"/>
      <point x="191" y="36"/>
      <point x="201" y="40"/>
      <point x="204" y="43" type="qcurve"/>
      <point x="217" y="49"/>
      <point x="222" y="54" type="qcurve"/>
    </contour>
    <contour>
      <point x="174" y="159" type="line"/>
      <point x="174" y="166"/>
      <point x="171" y="176"/>
      <point x="169" y="183" type="qcurve"/>
      <point x="167" y="188"/>
      <point x="164" y="196"/>
      <point x="161" y="201" type="qcurve"/>
      <point x="159" y="203"/>
      <point x="150" y="210"/>
      <point x="148" y="212" type="qcurve"/>
      <point x="143" y="215"/>
      <point x="133" y="216"/>
      <point x="126" y="216" type="qcurve"/>
      <point x="119" y="216"/>
      <point x="110" y="215"/>
      <point x="103" y="212" type="qcurve"/>
      <point x="90" y="206"/>
      <point x="85" y="198" type="qcurve"/>
      <point x="80" y="194"/>
      <point x="76" y="183"/>
      <point x="71" y="176" type="qcurve"/>
      <point x="70" y="169"/>
      <point x="67" y="156"/>
      <point x="65" y="148" type="qcurve"/>
      <point x="174" y="148" type="line"/>
    </contour>
  </outline>
</glyph>
<glyph name="f" format="1">
  <advance width="207"/>
  <unicode hex="0066"/>
  <outline>
    <contour>
      <point x="190" y="331" type="qcurve" name="hr00"/>
      <point x="190" y="327"/>
      <point x="189" y="321"/>
      <point x="187" y="317" type="qcurve"/>
      <point x="181" y="311" type="line"/>
      <point x="176" y="307"/>
      <point x="174" y="307" type="qcurve"/>
      <point x="173" y="304"/>
      <point x="167" y="304" type="qcurve"/>
      <point x="167" y="304"/>
      <point x="167" y="306" type="qcurve"/>
      <point x="166" y="307"/>
      <point x="166" y="309" type="qcurve"/>
      <point x="161" y="309"/>
      <point x="159" y="311"/>
      <point x="156" y="314" type="qcurve"/>
      <point x="150" y="315"/>
      <point x="146" y="322" type="qcurve"/>
      <point x="139" y="325"/>
      <point x="134" y="329" type="qcurve"/>
      <point x="131" y="332"/>
      <point x="126" y="332" type="qcurve"/>
      <point x="124" y="335"/>
      <point x="124" y="336" type="qcurve"/>
      <point x="124" y="337" type="line"/>
      <point x="121" y="336"/>
      <point x="116" y="331"/>
      <point x="113" y="329" type="qcurve"/>
      <point x="111" y="325"/>
      <point x="105" y="319"/>
      <point x="103" y="315" type="qcurve"/>
      <point x="100" y="310"/>
      <point x="98" y="297"/>
      <point x="96" y="291" type="qcurve"/>
      <point x="96" y="263" type="line"/>
      <point x="96" y="230" type="line"/>
      <point x="155" y="230" type="line"/>
      <point x="155" y="207" type="line"/>
      <point x="96" y="207" type="line"/>
      <point x="96" y="30" type="line"/>
      <point x="96" y="26"/>
      <point x="98" y="24" type="qcurve"/>
      <point x="100" y="20"/>
      <point x="105" y="20" type="qcurve"/>
      <point x="134" y="20" type="line"/>
      <point x="134" y="0" type="line"/>
      <point x="15" y="0" type="line"/>
      <point x="15" y="20" type="line"/>
      <point x="39" y="20" type="line"/>
      <point x="42" y="20"/>
      <point x="45" y="24" type="qcurve"/>
      <point x="48" y="26"/>
      <point x="48" y="30" type="qcurve"/>
      <point x="48" y="207" type="line"/>
      <point x="17" y="207" type="line"/>
      <point x="17" y="224" type="line"/>
      <point x="48" y="233" type="line"/>
      <point x="48" y="240"/>
      <point x="48" y="250"/>
      <point x="50" y="254" type="qcurve"/>
      <point x="50" y="259"/>
      <point x="50" y="269"/>
      <point x="52" y="272" type="qcurve"/>
      <point x="54" y="276"/>
      <point x="54" y="286"/>
      <point x="56" y="289" type="qcurve"/>
      <point x="58" y="293"/>
      <point x="63" y="302"/>
      <point x="65" y="307" type="qcurve"/>
      <point x="70" y="314"/>
      <point x="77" y="326"/>
      <point x="82" y="331" type="qcurve"/>
      <point x="86" y="336"/>
      <point x="98" y="344"/>
      <point x="103" y="348" type="qcurve"/>
      <point x="107" y="351"/>
      <point x="119" y="355"/>
      <point x="124" y="357" type="qcurve"/>
      <point x="131" y="359"/>
      <point x="143" y="360"/>
      <point x="148" y="360" type="qcurve"/>
      <point x="161" y="360"/>
      <point x="166" y="359" type="qcurve"/>
      <point x="173" y="357"/>
      <point x="181" y="352" type="qcurve"/>
      <point x="183" y="349"/>
      <point x="187" y="345"/>
      <point x="187" y="342" type="qcurve"/>
      <point x="189" y="339"/>
      <point x="190" y="334"/>
    </contour>
  </outline>
</glyph>
<glyph name="g" format="1">
  <advance width="260"/>
  <unicode hex="0067"/>
  <outline>
    <contour>
      <point x="194" y="-33" type="qcurve"/>
      <point x="194" y="-28"/>
      <point x="191" y="-20"/>
      <point x="190" y="-15" type="qcurve"/>
      <point x="185" y="-12"/>
      <point x="178" y="-8"/>
      <point x="174" y="-5" type="qcurve"/>
      <point x="168" y="-1"/>
      <point x="156" y="2" type="qcurve"/>
      <point x="152" y="4"/>
      <point x="139" y="7"/>
      <point x="134" y="8" type="qcurve"/>
      <point x="129" y="8"/>
      <point x="120" y="8"/>
      <point x="115" y="11" type="qcurve"/>
      <point x="103" y="11"/>
      <point x="98" y="13" type="qcurve" name="hr01"/>
      <point x="91" y="11"/>
      <point x="83" y="6"/>
      <point x="78" y="4" type="qcurve" name="hr02"/>
      <point x="75" y="1"/>
      <point x="71" y="-6"/>
      <point x="68" y="-9" type="qcurve"/>
      <point x="65" y="-13"/>
      <point x="63" y="-17"/>
      <point x="63" y="-22" type="qcurve"/>
      <point x="61" y="-24"/>
      <point x="61" y="-33" type="qcurve"/>
      <point x="61" y="-37"/>
      <point x="61" y="-48"/>
      <point x="63" y="-52" type="qcurve"/>
      <point x="67" y="-57"/>
      <point x="72" y="-67"/>
      <point x="76" y="-71" type="qcurve"/>
      <point x="79" y="-76"/>
      <point x="89" y="-82"/>
      <point x="96" y="-85" type="qcurve"/>
      <point x="103" y="-87"/>
      <point x="116" y="-89"/>
      <point x="124" y="-89" type="qcurve"/>
      <point x="132" y="-89"/>
      <point x="148" y="-87"/>
      <point x="155" y="-85" type="qcurve"/>
      <point x="161" y="-82"/>
      <point x="173" y="-75"/>
      <point x="176" y="-70" type="qcurve"/>
      <point x="181" y="-67"/>
      <point x="188" y="-57"/>
      <point x="190" y="-52" type="qcurve"/>
      <point x="191" y="-48"/>
      <point x="194" y="-37"/>
    </contour>
    <contour>
      <point x="166" y="159" type="line"/>
      <point x="166" y="166"/>
      <point x="166" y="176"/>
      <point x="163" y="183" type="qcurve"/>
      <point x="161" y="188"/>
      <point x="157" y="197"/>
      <point x="155" y="202" type="qcurve"/>
      <point x="141" y="216" type="line"/>
      <point x="136" y="218"/>
      <point x="127" y="219"/>
      <point x="122" y="219" type="qcurve"/>
      <point x="115" y="219"/>
      <point x="107" y="218"/>
      <point x="103" y="216" type="qcurve"/>
      <point x="93" y="212"/>
      <point x="87" y="204" type="qcurve"/>
      <point x="83" y="199"/>
      <point x="80" y="190"/>
      <point x="78" y="184" type="qcurve"/>
      <point x="76" y="180"/>
      <point x="73" y="167"/>
      <point x="73" y="159" type="qcurve"/>
      <point x="73" y="154"/>
      <point x="76" y="142"/>
      <point x="78" y="138" type="qcurve"/>
      <point x="78" y="133"/>
      <point x="83" y="122"/>
      <point x="87" y="117" type="qcurve"/>
      <point x="89" y="114"/>
      <point x="97" y="107"/>
      <point x="99" y="105" type="qcurve"/>
      <point x="105" y="103"/>
      <point x="115" y="99"/>
      <point x="120" y="99" type="qcurve"/>
      <point x="127" y="99"/>
      <point x="135" y="103"/>
      <point x="139" y="105" type="qcurve"/>
      <point x="144" y="107"/>
      <point x="150" y="114"/>
      <point x="155" y="117" type="qcurve"/>
      <point x="157" y="122"/>
      <point x="161" y="133"/>
      <point x="163" y="138" type="qcurve"/>
      <point x="166" y="144"/>
      <point x="166" y="154"/>
      <point x="166" y="161" type="qcurve"/>
    </contour>
    <contour>
      <point x="201" y="198" type="line"/>
      <point x="203" y="195"/>
      <point x="208" y="185"/>
      <point x="211" y="181" type="qcurve"/>
      <point x="212" y="176"/>
      <point x="212" y="162"/>
      <point x="212" y="155" type="qcurve"/>
      <point x="212" y="144"/>
      <point x="209" y="127"/>
      <point x="204" y="120" type="qcurve"/>
      <point x="199" y="113"/>
      <point x="189" y="100"/>
      <point x="181" y="96" type="qcurve"/>
      <point x="174" y="91"/>
      <point x="157" y="84"/>
      <point x="148" y="80" type="qcurve"/>
      <point x="138" y="78"/>
      <point x="119" y="76"/>
      <point x="108" y="78" type="qcurve"/>
      <point x="106" y="75"/>
      <point x="105" y="71"/>
      <point x="105" y="68" type="qcurve"/>
      <point x="103" y="63"/>
      <point x="103" y="56" type="qcurve"/>
      <point x="103" y="50" type="line"/>
      <point x="105" y="47"/>
      <point x="105" y="47" type="qcurve"/>
      <point x="105" y="45" type="line"/>
      <point x="110" y="45"/>
      <point x="122" y="43"/>
      <point x="128" y="43" type="qcurve"/>
      <point x="136" y="42"/>
      <point x="150" y="41"/>
      <point x="159" y="39" type="qcurve"/>
      <point x="166" y="37"/>
      <point x="180" y="35"/>
      <point x="187" y="33" type="qcurve" name="hr03"/>
      <point x="195" y="29"/>
      <point x="206" y="23"/>
      <point x="212" y="20" type="qcurve"/>
      <point x="224" y="13"/>
      <point x="230" y="2" type="qcurve"/>
      <point x="237" y="-8"/>
      <point x="237" y="-24" type="qcurve"/>
      <point x="237" y="-32"/>
      <point x="233" y="-48"/>
      <point x="229" y="-57" type="qcurve"/>
      <point x="224" y="-65"/>
      <point x="208" y="-80"/>
      <point x="201" y="-87" type="qcurve"/>
      <point x="192" y="-94"/>
      <point x="170" y="-104"/>
      <point x="159" y="-106" type="qcurve"/>
      <point x="147" y="-111"/>
      <point x="122" y="-115"/>
      <point x="111" y="-115" type="qcurve"/>
      <point x="99" y="-115"/>
      <point x="79" y="-113"/>
      <point x="71" y="-111" type="qcurve"/>
      <point x="62" y="-107"/>
      <point x="48" y="-100"/>
      <point x="42" y="-96" type="qcurve"/>
      <point x="30" y="-84"/>
      <point x="24" y="-71" type="qcurve"/>
      <point x="17" y="-59"/>
      <point x="17" y="-45" type="qcurve"/>
      <point x="17" y="-41"/>
      <point x="20" y="-31"/>
      <point x="21" y="-24" type="qcurve"/>
      <point x="25" y="-14"/>
      <point x="30" y="-9" type="qcurve"/>
      <point x="34" y="-4"/>
      <point x="41" y="3"/>
      <point x="48" y="7" type="qcurve" name="hr04"/>
      <point x="52" y="9"/>
      <point x="63" y="14"/>
      <point x="70" y="15" type="qcurve"/>
      <point x="70" y="17"/>
      <point x="68" y="20"/>
      <point x="68" y="21" type="qcurve"/>
      <point x="68" y="23"/>
      <point x="65" y="24"/>
      <point x="65" y="26" type="qcurve"/>
      <point x="65" y="30" type="line"/>
      <point x="63" y="33"/>
      <point x="63" y="37" type="qcurve"/>
      <point x="63" y="47"/>
      <point x="70" y="59" type="qcurve"/>
      <point x="72" y="64"/>
      <point x="82" y="76"/>
      <point x="89" y="82" type="qcurve"/>
      <point x="82" y="84"/>
      <point x="70" y="88"/>
      <point x="65" y="91" type="qcurve"/>
      <point x="60" y="95"/>
      <point x="50" y="104"/>
      <point x="45" y="108" type="qcurve"/>
      <point x="42" y="112"/>
      <point x="36" y="124"/>
      <point x="33" y="128" type="qcurve"/>
      <point x="28" y="143"/>
      <point x="28" y="156" type="qcurve"/>
      <point x="28" y="177"/>
      <point x="35" y="191" type="qcurve"/>
      <point x="37" y="199"/>
      <point x="49" y="212"/>
      <point x="54" y="218" type="qcurve"/>
      <point x="68" y="229"/>
      <point x="87" y="235" type="qcurve"/>
      <point x="95" y="237"/>
      <point x="115" y="239"/>
      <point x="126" y="239" type="qcurve"/>
      <point x="131" y="239"/>
      <point x="139" y="239"/>
      <point x="143" y="237" type="qcurve"/>
      <point x="147" y="237"/>
      <point x="156" y="237"/>
      <point x="159" y="235" type="qcurve"/>
      <point x="162" y="233"/>
      <point x="168" y="230"/>
      <point x="173" y="229" type="qcurve"/>
      <point x="178" y="229"/>
      <point x="183" y="224" type="qcurve"/>
      <point x="247" y="224" type="line"/>
      <point x="247" y="201" type="line"/>
      <point x="201" y="201" type="line"/>
    </contour>
  </outline>
</glyph>
<glyph name="h" format="1">
  <advance width="279"/>
  <unicode hex="0068"/>
  <outline>
    <contour>
      <point x="159" y="17" type="line"/>
      <point x="181" y="20" type="line"/>
      <point x="184" y="20"/>
      <point x="187" y="24" type="qcurve"/>
      <point x="189" y="24"/>
      <point x="191" y="28"/>
      <point x="191" y="30" type="qcurve"/>
      <point x="191" y="156" type="line"/>
      <point x="191" y="161"/>
      <point x="190" y="171"/>
      <point x="190" y="176" type="qcurve"/>
      <point x="185" y="185"/>
      <point x="181" y="191" type="qcurve"/>
      <point x="173" y="197"/>
      <point x="166" y="202" type="qcurve"/>
      <point x="161" y="204"/>
      <point x="149" y="204"/>
      <point x="141" y="204" type="qcurve"/>
      <point x="128" y="204" type="line"/>
      <point x="125" y="204"/>
      <point x="119" y="202"/>
      <point x="115" y="202" type="qcurve" name="hr01"/>
      <point x="107" y="198"/>
      <point x="103" y="198" type="qcurve" name="hr02"/>
      <point x="98" y="196"/>
      <point x="93" y="194"/>
      <point x="89" y="191" type="qcurve"/>
      <point x="89" y="30" type="line"/>
      <point x="89" y="26"/>
      <point x="91" y="24" type="qcurve"/>
      <point x="96" y="20"/>
      <point x="99" y="20" type="qcurve"/>
      <point x="120" y="20" type="line"/>
      <point x="120" y="0" type="line"/>
      <point x="8" y="0" type="line"/>
      <point x="8" y="20" type="line"/>
      <point x="33" y="20" type="line"/>
      <point x="37" y="20"/>
      <point x="42" y="24" type="qcurve"/>
      <point x="43" y="26"/>
      <point x="43" y="30" type="qcurve"/>
      <point x="43" y="324" type="line"/>
      <point x="7" y="324" type="line"/>
      <point x="7" y="342" type="line"/>
      <point x="70" y="360" type="line"/>
      <point x="89" y="360" type="line"/>
      <point x="89" y="211" type="line"/>
      <point x="93" y="212"/>
      <point x="101" y="218"/>
      <point x="106" y="222" type="qcurve"/>
      <point x="115" y="226"/>
      <point x="126" y="230" type="qcurve"/>
      <point x="133" y="232"/>
      <point x="143" y="237"/>
      <point x="150" y="237" type="qcurve"/>
      <point x="155" y="241"/>
      <point x="164" y="241"/>
      <point x="169" y="241" type="qcurve"/>
      <point x="178" y="241"/>
      <point x="190" y="239"/>
      <point x="195" y="237" type="qcurve"/>
      <point x="202" y="235"/>
      <point x="212" y="227"/>
      <point x="218" y="224" type="qcurve"/>
      <point x="227" y="215"/>
      <point x="230" y="201" type="qcurve"/>
      <point x="237" y="188"/>
      <point x="237" y="167" type="qcurve"/>
      <point x="237" y="33" type="line"/>
      <point x="237" y="26"/>
      <point x="239" y="24" type="qcurve"/>
      <point x="241" y="22"/>
      <point x="245" y="21"/>
      <point x="247" y="20" type="qcurve"/>
      <point x="269" y="20" type="line"/>
      <point x="269" y="0" type="line"/>
      <point x="161" y="0" type="line"/>
    </contour>
  </outline>
</glyph>
<glyph name="i" format="1">
  <advance width="140"/>
  <unicode hex="0069"/>
  <outline>
    <contour>
      <point x="17" y="20" type="line" name="hr00"/>
      <point x="42" y="20" type="line"/>
      <point x="43" y="21"/>
      <point x="45" y="22"/>
      <point x="48" y="24" type="qcurve"/>
      <point x="50" y="26"/>
      <point x="50" y="33" type="qcurve"/>
      <point x="50" y="204" type="line"/>
      <point x="17" y="204" type="line"/>
      <point x="17" y="222" type="line"/>
      <point x="78" y="241" type="line"/>
      <point x="96" y="241" type="line"/>
      <point x="96" y="33" type="line"/>
      <point x="96" y="28"/>
      <point x="99" y="24" type="qcurve"/>
      <point x="103" y="21"/>
      <point x="106" y="20" type="qcurve"/>
      <point x="133" y="20" type="line"/>
      <point x="133" y="0" type="line"/>
      <point x="15" y="0" type="line"/>
    </contour>
    <contour>
      <point x="106" y="315" type="qcurve"/>
      <point x="106" y="313"/>
      <point x="105" y="308"/>
      <point x="105" y="304" type="qcurve"/>
      <point x="103" y="301"/>
      <point x="99" y="297"/>
      <point x="98" y="294" type="qcurve"/>
      <point x="96" y="292"/>
      <point x="91" y="289"/>
      <point x="89" y="289" type="qcurve"/>
      <point x="82" y="286"/>
      <point x="78" y="286" type="qcurve"/>
      <point x="73" y="286"/>
      <point x="69" y="287"/>
      <point x="65" y="289" type="qcurve"/>
      <point x="62" y="289"/>
      <point x="58" y="292"/>
      <point x="54" y="294" type="qcurve"/>
      <point x="54" y="297"/>
      <point x="50" y="301"/>
      <point x="50" y="304" type="qcurve"/>
      <point x="48" y="308"/>
      <point x="48" y="314"/>
      <point x="48" y="315" type="qcurve"/>
      <point x="48" y="319"/>
      <point x="48" y="325"/>
      <point x="50" y="329" type="qcurve"/>
      <point x="50" y="331"/>
      <point x="54" y="336"/>
      <point x="54" y="337" type="qcurve"/>
      <point x="62" y="340"/>
      <point x="65" y="343" type="qcurve"/>
      <point x="69" y="345"/>
      <point x="75" y="346"/>
      <point x="78" y="346" type="qcurve"/>
      <point x="80" y="346"/>
      <point x="86" y="345"/>
      <point x="89" y="343" type="qcurve"/>
      <point x="93" y="342"/>
      <point x="98" y="337" type="qcurve"/>
      <point x="101" y="336"/>
      <point x="103" y="331"/>
      <point x="105" y="329" type="qcurve"/>
      <point x="106" y="324"/>
    </contour>
  </outline>
</glyph>
